<svg height="512pt" viewBox="-30 0 512 512" width="512pt" xmlns="http://www.w3.org/2000/svg"><path d="m205.375 496.683594c-2.707031-49.167969-18.28125-54.246094-18.28125-112.6875 0-64 18.679688-64 18.679688-128s-18.679688-64-18.679688-127.996094c0-58.441406 15.574219-63.515625 18.28125-112.683594.457031-8.3125-6.136719-15.316406-14.457031-15.316406h-48.8125c8.320312 0 14.914062 7.003906 14.457031 15.316406-2.703125 49.167969-18.28125 54.242188-18.28125 112.683594 0 63.996094 18.679688 63.996094 18.679688 127.996094s-18.679688 64-18.679688 128c0 58.441406 15.578125 63.519531 18.28125 112.6875.457031 8.3125-6.132812 15.316406-14.457031 15.316406h48.8125c8.320312 0 14.914062-7.003906 14.457031-15.316406zm0 0" fill="#f97d7d"/><path d="m158.597656 496.683594c-2.707031-49.167969-18.28125-54.246094-18.28125-112.6875 0-64 18.679688-64 18.679688-128s-18.679688-64-18.679688-127.996094c0-58.441406 15.574219-63.515625 18.28125-112.683594.457032-8.3125-6.136718-15.316406-14.460937-15.316406h-48.792969c8.324219 0 14.917969 7.003906 14.460938 15.316406-2.707032 49.167969-18.28125 54.242188-18.28125 112.683594 0 63.996094 18.679687 63.996094 18.679687 127.996094s-18.679687 64-18.679687 128c0 58.441406 15.574218 63.519531 18.28125 112.6875.457031 8.3125-6.136719 15.316406-14.460938 15.316406h48.792969c8.324219 0 14.917969-7.003906 14.460937-15.316406zm0 0" fill="#f26d6d"/><path d="m111.820312 496.683594c-2.707031-49.167969-18.28125-54.246094-18.28125-112.6875 0-64 18.679688-64 18.679688-128s-18.679688-64-18.679688-127.996094c0-58.441406 15.574219-63.515625 18.28125-112.683594.457032-8.3125-6.136718-15.316406-14.460937-15.316406h-48.839844c8.324219 0 14.917969 7.003906 14.460938 15.316406-2.707031 49.167969-18.28125 54.242188-18.28125 112.683594 0 63.996094 18.679687 63.996094 18.679687 127.996094s-18.679687 64-18.679687 128c0 58.441406 15.574219 63.519531 18.28125 112.6875.457031 8.3125-6.136719 15.316406-14.460938 15.316406h48.839844c8.324219 0 14.917969-7.003906 14.460937-15.316406zm0 0" fill="#e95353"/><path d="m65.039062 496.683594c-2.703124-49.167969-18.277343-54.246094-18.277343-112.6875 0-64 18.679687-64 18.679687-128s-18.679687-64-18.679687-127.996094c0-58.441406 15.574219-63.515625 18.277343-112.683594.460938-8.3125-6.132812-15.316406-14.457031-15.316406h-17.019531c-8.453125 0-15.300781 6.863281-15.28125 15.316406-2.707031 49.167969-18.28125 54.242188-18.28125 112.683594 0 63.996094 18.679688 63.996094 18.679688 127.996094s-18.679688 64-18.679688 128c0 58.441406 15.574219 63.519531 18.28125 112.6875 0 8.457031 6.855469 15.316406 15.316406 15.316406h16.984375c8.324219 0 14.917969-7.003906 14.457031-15.316406zm0 0" fill="#d44545"/><path d="m38.886719 496.683594c-2.707031-49.167969-18.28125-54.246094-18.28125-112.6875 0-64 18.679687-64 18.679687-128s-18.679687-64-18.679687-127.996094c0-58.441406 15.574219-63.515625 18.28125-112.683594-.019531-7.835937 5.871093-14.296875 13.464843-15.199218-.582031-.070313-1.167968-.117188-1.769531-.117188h-17.019531c-8.453125 0-15.300781 6.863281-15.28125 15.316406-2.707031 49.167969-18.28125 54.242188-18.28125 112.683594 0 63.996094 18.679688 63.996094 18.679688 127.996094s-18.679688 64-18.679688 128c0 58.441406 15.574219 63.519531 18.28125 112.6875 0 8.457031 6.855469 15.316406 15.316406 15.316406h16.984375c.605469 0 1.199219-.046875 1.785157-.121094-7.589844-.90625-13.480469-7.359375-13.480469-15.195312zm0 0" fill="#c03636"/><path d="m451.757812 496.683594c-2.707031-49.167969-18.28125-54.246094-18.28125-112.6875 0-64 18.679688-64 18.679688-128s-18.679688-64-18.679688-127.996094c0-58.441406 15.574219-63.515625 18.28125-112.683594.457032-8.3125-6.136718-15.316406-14.460937-15.316406h-48.8125c8.324219 0 14.917969 7.003906 14.460937 15.316406-2.707031 49.167969-18.28125 54.242188-18.28125 112.683594 0 63.996094 18.679688 63.996094 18.679688 127.996094s-18.679688 64-18.679688 128c0 58.441406 15.574219 63.519531 18.28125 112.6875.457032 8.3125-6.136718 15.316406-14.460937 15.316406h48.8125c8.324219 0 14.917969-7.003906 14.460937-15.316406zm0 0" fill="#f97d7d"/><path d="m404.976562 496.683594c-2.703124-49.167969-18.277343-54.246094-18.277343-112.6875 0-64 18.679687-64 18.679687-128s-18.679687-64-18.679687-127.996094c0-58.441406 15.574219-63.515625 18.277343-112.683594.457032-8.3125-6.132812-15.316406-14.457031-15.316406h-48.792969c8.324219 0 14.914063 7.003906 14.457032 15.316406-2.703125 49.167969-18.277344 54.242188-18.277344 112.683594 0 63.996094 18.675781 63.996094 18.675781 127.996094s-18.675781 64-18.675781 128c0 58.441406 15.574219 63.519531 18.277344 112.6875.457031 8.3125-6.132813 15.316406-14.457032 15.316406h48.792969c8.324219 0 14.914063-7.003906 14.457031-15.316406zm0 0" fill="#f26d6d"/><path d="m358.199219 496.683594c-2.707031-49.167969-18.28125-54.246094-18.28125-112.6875 0-64 18.679687-64 18.679687-128s-18.679687-64-18.679687-127.996094c0-58.441406 15.574219-63.515625 18.28125-112.683594.457031-8.3125-6.136719-15.316406-14.457031-15.316406h-48.839844c8.324218 0 14.914062 7.003906 14.457031 15.316406-2.703125 49.167969-18.277344 54.242188-18.277344 112.683594 0 63.996094 18.679688 63.996094 18.679688 127.996094s-18.679688 64-18.679688 128c0 58.441406 15.574219 63.519531 18.277344 112.6875.460937 8.3125-6.132813 15.316406-14.457031 15.316406h48.839844c8.320312 0 14.914062-7.003906 14.457031-15.316406zm0 0" fill="#e95353"/><path d="m311.421875 496.683594c-2.707031-49.167969-18.28125-54.246094-18.28125-112.6875 0-64 18.679687-64 18.679687-128s-18.679687-64-18.679687-127.996094c0-58.441406 15.574219-63.515625 18.28125-112.683594.457031-8.3125-6.136719-15.316406-14.460937-15.316406h-17.019532c-8.453125 0-15.300781 6.863281-15.28125 15.316406-2.703125 49.167969-18.28125 54.242188-18.28125 112.683594 0 63.996094 18.679688 63.996094 18.679688 127.996094s-18.679688 64-18.679688 128c0 58.441406 15.578125 63.519531 18.28125 112.6875 0 8.457031 6.859375 15.316406 15.316406 15.316406h16.984376c8.324218 0 14.917968-7.003906 14.460937-15.316406zm0 0" fill="#d44545"/><path d="m285.265625 496.683594c-2.703125-49.167969-18.277344-54.246094-18.277344-112.6875 0-64 18.675781-64 18.675781-128s-18.675781-64-18.675781-127.996094c0-58.441406 15.574219-63.515625 18.277344-112.683594-.015625-7.835937 5.871094-14.296875 13.46875-15.199218-.582031-.070313-1.171875-.117188-1.773437-.117188h-17.019532c-8.453125 0-15.300781 6.863281-15.28125 15.316406-2.703125 49.167969-18.28125 54.242188-18.28125 112.683594 0 63.996094 18.679688 63.996094 18.679688 127.996094s-18.679688 64-18.679688 128c0 58.441406 15.578125 63.519531 18.28125 112.6875 0 8.457031 6.859375 15.316406 15.316406 15.316406h16.984376c.609374 0 1.203124-.046875 1.789062-.121094-7.59375-.90625-13.484375-7.359375-13.484375-15.195312zm0 0" fill="#c03636"/></svg>