<?xml version="1.0" encoding="iso-8859-1"?>
<!-- Generator: Adobe Illustrator 19.0.0, SVG Export Plug-In . SVG Version: 6.00 Build 0)  -->
<svg version="1.1" id="Capa_1" xmlns="http://www.w3.org/2000/svg" xmlns:xlink="http://www.w3.org/1999/xlink" x="0px" y="0px"
	 viewBox="0 0 512 512" style="enable-background:new 0 0 512 512;" xml:space="preserve">
<path style="fill:#FFC107;" d="M336,0c-45.6,0-88.736,10.784-121.408,30.4C179.392,51.52,160,80.512,160,112
	c0,23.904,11.04,46.24,32,65.024V368c0,8.832,7.168,16,16,16h256c8.832,0,16-7.168,16-16V177.024c20.96-18.784,32-41.12,32-65.024
	C512,49.216,434.688,0,336,0z"/>
<path style="fill:#FFE082;" d="M176,128c-45.6,0-88.736,10.784-121.408,30.4C19.392,179.52,0,208.512,0,240
	c0,23.904,11.04,46.24,32,65.024V496c0,8.832,7.168,16,16,16h256c8.832,0,16-7.168,16-16V305.024c20.96-18.784,32-41.12,32-65.024
	C352,177.216,274.688,128,176,128z"/>
<g>
	<path style="fill:#FFB300;" d="M176,448c-4.096,0-8.192-1.568-11.328-4.672l-64-64c-6.24-6.24-6.24-16.384,0-22.624
		s16.384-6.24,22.624,0l64,64c6.24,6.24,6.24,16.384,0,22.624C184.192,446.432,180.096,448,176,448z"/>
	<path style="fill:#FFB300;" d="M240,384c-4.096,0-8.192-1.568-11.328-4.672l-64-64c-6.24-6.24-6.24-16.384,0-22.624
		s16.384-6.24,22.624,0l64,64c6.24,6.24,6.24,16.384,0,22.624C248.192,382.432,244.096,384,240,384z"/>
</g>
<g>
</g>
<g>
</g>
<g>
</g>
<g>
</g>
<g>
</g>
<g>
</g>
<g>
</g>
<g>
</g>
<g>
</g>
<g>
</g>
<g>
</g>
<g>
</g>
<g>
</g>
<g>
</g>
<g>
</g>
</svg>
