<?xml version="1.0" encoding="iso-8859-1"?>
<!-- Generator: Adobe Illustrator 19.0.0, SVG Export Plug-In . SVG Version: 6.00 Build 0)  -->
<svg version="1.1" id="Capa_1" xmlns="http://www.w3.org/2000/svg" xmlns:xlink="http://www.w3.org/1999/xlink" x="0px" y="0px"
	 viewBox="0 0 512 512" style="enable-background:new 0 0 512 512;" xml:space="preserve">
<path style="fill:#B7623F;" d="M253.385,21.46l-0.132,0.456C148.414,31.789,68.08,87.92,68.08,155.687
	c0,24.833,10.794,48.104,29.628,68.109c1.739,1.847,2.696,4.297,2.696,6.834v260.994H44.863c-2.77,0-5.016-2.246-5.016-5.016V230.63
	c0-2.537-0.957-4.987-2.696-6.834C18.318,203.79,7.524,180.519,7.524,155.687c0-74.734,97.691-135.311,218.196-135.311
	C235.087,20.376,244.322,20.741,253.385,21.46z"/>
<path style="fill:#E59770;" d="M504.477,155.686c0-74.729-97.691-135.308-218.199-135.308S68.079,80.957,68.079,155.686
	c0,24.834,10.799,48.102,29.63,68.107c1.739,1.847,2.696,4.297,2.696,6.833V491.62h366.73c2.77,0,5.016-2.246,5.016-5.016V230.626
	c0-2.537,0.957-4.986,2.696-6.833C493.678,203.788,504.477,180.52,504.477,155.686z"/>
<path style="fill:#DB7E56;" d="M504.471,155.69c0,24.829-10.794,48.093-29.624,68.107c-1.736,1.846-2.699,4.294-2.699,6.832v255.975
	c0,2.77-2.246,5.016-5.016,5.016h-20.616V230.629c0-2.538,0.953-4.986,2.699-6.832c18.83-20.014,29.624-43.278,29.624-68.107
	c0-72.07-90.839-130.967-205.374-135.08c4.233-0.151,8.507-0.231,12.811-0.231C406.79,20.379,504.471,80.952,504.471,155.69z"/>
<path style="fill:#F9E8D4;" d="M326.744,68.427c-23.184-9.235-49.297-11.87-73.926-7.906c-28.894,4.651-56.54,18.21-76.708,39.599
	c-37.404,39.668-46.163,103.989-19.64,151.624c26.462,47.525,80.396,72.982,133.237,85.89c19.497,4.763,39.56,8.254,59.576,6.781
	c20.017-1.474,40.138-8.289,54.835-21.958c19.074-17.741,26.927-46.626,19.462-71.582c-4.516-15.096-15.245-25.093-21.12-38.349
	c-5.242-11.828-2.188-27.164-3.866-39.723c-2.436-18.212-4.512-36.802-13.526-53.18C372.249,96.333,351.411,78.253,326.744,68.427z"
	/>
<path style="fill:#E8D0BA;" d="M404.122,322.462c-14.697,13.664-34.821,20.475-54.835,21.95c-7.935,0.582-15.881,0.391-23.786-0.361
	c18.679-2.047,37.138-8.828,50.862-21.589c19.071-17.747,26.926-46.629,19.462-71.588c-4.514-15.098-15.249-25.09-21.127-38.342
	c-5.237-11.838-2.187-27.167-3.862-39.727c-2.438-18.208-4.514-36.807-13.523-53.179c-12.821-23.294-33.657-41.372-58.326-51.203
	c-11.948-4.765-24.679-7.765-37.59-9.019c22.04-2.157,44.843,0.853,65.348,9.019c24.668,9.831,45.505,27.909,58.326,51.203
	c9.009,16.372,11.085,34.971,13.523,53.179c1.675,12.56-1.375,27.889,3.862,39.727c5.879,13.252,16.603,23.244,21.127,38.342
	C431.048,275.833,423.193,304.715,404.122,322.462z"/>
<circle style="fill:#FCC927;" cx="283.76" cy="151.22" r="47.46"/>
<path style="fill:#EFAD0A;" d="M324.318,175.855c-13.603,22.401-42.796,29.534-65.198,15.921
	c-9.701-5.889-16.533-14.687-20.054-24.598c1.224,0.923,2.508,1.796,3.852,2.608c22.401,13.603,51.595,6.471,65.198-15.931
	c7.715-12.71,8.768-27.598,4.133-40.599C331.581,127.721,337.118,154.787,324.318,175.855z"/>
<path style="fill:#FCC927;" d="M210.348,414.062l49.99-177.902c0.749-2.667,3.519-4.221,6.186-3.472l42.32,11.892
	c2.132,0.599,3.643,2.525,3.654,4.74c0.035,7.336,1.861,14.776,5.665,21.675c11.6,21.035,38.093,29.407,59.667,18.842
	c8.028-3.931,14.355-9.887,18.698-16.929c1.158-1.878,3.454-2.72,5.578-2.123l42.321,11.892c2.667,0.749,4.221,3.519,3.472,6.186
	l-49.99,177.903c-0.749,2.667-3.519,4.221-6.186,3.472l-177.902-49.99C211.153,419.498,209.598,416.729,210.348,414.062z"/>
<path style="fill:#EFAD0A;" d="M447.901,288.865l-49.989,177.897c-0.752,2.669-3.521,4.223-6.19,3.481l-12.681-3.561
	c0.401-0.512,0.712-1.114,0.903-1.776l51.354-182.782c0.301-1.083,0.241-2.187-0.131-3.17l13.262,3.722
	C447.089,283.427,448.644,286.196,447.901,288.865z"/>
<circle cx="354.19" cy="408.04" r="9.03"/>
<circle cx="294.36" cy="314.17" r="9.03"/>
<circle cx="354.87" cy="369.85" r="9.03"/>
<path style="fill:#F75267;" d="M246.799,433.17c2.575-0.687,4.209-3.201,3.824-5.839c-2.287-15.672,7.944-19.999,3.159-37.935
	c-5.219-19.564-17.864-16.191-23.084-35.755c-5.219-19.564,7.426-22.937,2.206-42.501c-5.219-19.563-17.864-16.19-23.083-35.753
	c-5.219-19.564,7.426-22.937,2.206-42.501c-5.219-19.564-17.864-16.191-23.084-35.756s7.425-22.939,2.205-42.504
	c-4.786-17.938-15.813-16.594-21.636-31.325c-0.98-2.479-3.649-3.845-6.224-3.158L56.116,148.736
	c-3.126,0.834-4.737,4.27-3.419,7.224c5.947,13.322,16.437,12.608,21.072,29.982c5.22,19.565-7.425,22.939-2.205,42.504
	c5.219,19.564,17.864,16.191,23.084,35.756c5.219,19.564-7.426,22.937-2.206,42.501c5.219,19.563,17.864,16.19,23.083,35.753
	c5.219,19.564-7.426,22.937-2.206,42.501c5.219,19.564,17.864,16.191,23.084,35.755c4.634,17.372-4.817,21.978-3.338,36.489
	c0.328,3.218,3.437,5.396,6.563,4.562L246.799,433.17z"/>
<g>
	<path style="fill:#ED2E4E;" d="M131.973,249.137c5.855,21.945-8.333,25.73-2.477,47.682c5.855,21.945,20.042,18.16,25.898,40.112
		c5.855,21.945-8.333,25.73-2.477,47.682c5.856,21.952,20.044,18.167,25.898,40.112c3.432,12.866-0.022,19.49-2.288,27.192
		l-20.44,5.453c2.266-7.702,5.72-14.326,2.288-27.192c-5.855-21.945-20.042-18.16-25.898-40.112
		c-5.856-21.951,8.331-25.736,2.477-47.682c-5.856-21.951-20.044-18.167-25.898-40.112c-5.856-21.951,8.331-25.736,2.477-47.682
		c-5.856-21.952-20.044-18.167-25.9-40.118c-5.856-21.952,8.331-25.737,2.477-47.682c-3.432-12.866-9.729-16.896-15.53-22.445
		l20.44-5.453c5.801,5.55,12.098,9.579,15.53,22.445c5.855,21.945-8.333,25.73-2.477,47.682
		C111.929,230.97,126.117,227.185,131.973,249.137z"/>
	<path style="fill:#ED2E4E;" d="M212.028,232.886c5.219,19.562-7.426,22.935-2.206,42.503c5.219,19.562,17.864,16.188,23.082,35.75
		c5.22,19.568-7.424,22.941-2.206,42.503c5.219,19.562,17.864,16.188,23.084,35.756c4.785,17.937-5.445,22.264-3.16,37.936
		c0.384,2.634-1.248,5.148-3.827,5.836l-20.44,5.453c2.58-0.688,4.211-3.203,3.827-5.836c-2.285-15.671,7.945-19.999,3.16-37.936
		c-5.22-19.568-17.865-16.194-23.084-35.756s7.426-22.935,2.206-42.503c-5.219-19.562-17.864-16.188-23.082-35.75
		c-5.22-19.568,7.424-22.941,2.206-42.503c-5.219-19.562-17.864-16.188-23.084-35.756c-5.219-19.562,7.426-22.935,2.206-42.503
		c-4.785-17.937-15.811-16.594-21.638-31.327c-0.979-2.475-3.646-3.843-6.226-3.154l20.44-5.453c2.58-0.688,5.247,0.679,6.226,3.154
		c5.827,14.733,16.853,13.39,21.638,31.327c5.22,19.568-7.424,22.941-2.206,42.503C194.165,216.698,206.81,213.324,212.028,232.886z
		"/>
</g>
<path style="fill:#F9E8D4;" d="M93.443,138.779l40.881-10.906c5.801,5.55,12.098,9.579,15.53,22.445
	c5.855,21.945-8.333,25.73-2.477,47.682c5.856,21.951,20.044,18.166,25.9,40.118c5.855,21.945-8.333,25.73-2.477,47.682
	c5.855,21.945,20.042,18.16,25.898,40.112c5.855,21.945-8.333,25.73-2.477,47.682c5.856,21.952,20.044,18.167,25.898,40.112
	c3.432,12.866-0.022,19.49-2.288,27.192l-40.881,10.906c2.266-7.702,5.72-14.326,2.288-27.192
	c-5.855-21.945-20.042-18.16-25.898-40.112c-5.856-21.951,8.331-25.736,2.477-47.682c-5.856-21.952-20.044-18.167-25.898-40.112
	c-5.856-21.951,8.331-25.736,2.477-47.682c-5.856-21.951-20.044-18.167-25.9-40.118s8.331-25.736,2.477-47.682
	C105.541,148.358,99.244,144.329,93.443,138.779z"/>
<path style="fill:#E8D0BA;" d="M173.277,238.118c5.855,21.945-8.333,25.73-2.477,47.682c5.855,21.945,20.042,18.16,25.898,40.112
	c5.855,21.945-8.333,25.73-2.477,47.682c5.856,21.952,20.044,18.167,25.898,40.112c3.432,12.866-0.022,19.49-2.288,27.192
	l-20.44,5.453c2.266-7.702,5.72-14.326,2.288-27.192c-5.855-21.945-20.042-18.16-25.898-40.112
	c-5.856-21.951,8.331-25.736,2.477-47.682c-5.856-21.951-20.044-18.167-25.898-40.112c-5.856-21.951,8.331-25.736,2.477-47.682
	c-5.856-21.952-20.044-18.167-25.9-40.118c-5.856-21.952,8.331-25.737,2.477-47.682c-3.432-12.866-9.729-16.896-15.53-22.445
	l20.44-5.453c5.801,5.55,12.098,9.579,15.53,22.445c5.855,21.945-8.333,25.73-2.477,47.682
	C153.233,219.951,167.421,216.166,173.277,238.118z"/>
<path d="M312.301,104.223c-25.915-15.738-59.799-7.462-75.537,18.45c-15.739,25.913-7.462,59.798,18.45,75.536
	c8.897,5.405,18.731,7.977,28.452,7.977c18.588,0,36.75-9.413,47.085-26.427c7.624-12.552,9.904-27.322,6.419-41.589
	C333.685,123.903,324.853,111.847,312.301,104.223z M317.89,171.948c-5.537,9.117-14.294,15.532-24.657,18.063
	c-10.36,2.53-21.09,0.875-30.207-4.662s-15.532-14.294-18.063-24.657c-2.531-10.362-0.875-21.09,4.662-30.207
	c7.506-12.359,20.697-19.194,34.198-19.194c7.06,0,14.204,1.868,20.666,5.793c9.117,5.537,15.532,14.295,18.063,24.657
	C325.083,152.103,323.427,162.831,317.89,171.948z"/>
<path d="M444.533,53.614c-42.387-26.284-98.589-40.76-158.255-40.76c-10.465,0-20.82,0.455-31.016,1.331
	c-0.418-0.108-0.844-0.191-1.282-0.226c-9.258-0.735-18.767-1.107-28.26-1.107c-63.848,0-124.924,17.091-167.566,46.891
	c-3.406,2.38-4.238,7.07-1.858,10.477c2.38,3.407,7.071,4.238,10.477,1.857c28.279-19.761,65.355-33.588,106.05-40.046
	c-7.48,1.187-15.969,6.322-22.766,9.574c-8.486,4.061-16.77,8.621-24.667,13.679c-0.596,0.382-1.191,0.764-1.779,1.149
	c-4.52,2.96-9.066,6.202-13.351,9.559c-3.856,3.021-7.59,6.198-11.171,9.54c-6.547,6.112-12.591,12.781-17.869,20.023
	c-4.902,6.728-9.143,13.949-12.469,21.585c-1.638,3.76-3.055,7.618-4.223,11.55c-0.328,1.103-1.984,10.543-2.524,10.687
	c-0.001,0-7.828,2.088-7.828,2.088c-3.613,0.964-6.608,3.451-8.219,6.826c-1.617,3.388-1.665,7.301-0.132,10.735
	c3.244,7.265,7.548,11.167,11.348,14.61c4.072,3.69,7.288,6.605,9.326,14.244s0.7,11.768-0.991,16.996
	c-1.958,6.052-4.396,13.581-1.215,25.508c3.182,11.928,9.046,17.242,13.759,21.514c4.072,3.69,7.288,6.605,9.326,14.243
	c2.037,7.638,0.7,11.766-0.991,16.994c-1.959,6.051-4.397,13.58-1.215,25.508c1.89,7.085,4.729,11.827,7.708,15.413V484.1H47.372
	V230.63c0-4.485-1.685-8.744-4.743-11.991c-18.044-19.167-27.581-40.935-27.581-62.951c0-18.5,6.475-36.383,19.245-53.153
	c2.518-3.306,1.878-8.027-1.427-10.544c-3.306-2.52-8.028-1.878-10.544,1.427C7.51,112.867,0,133.817,0,155.687
	c0,25.921,10.952,51.257,31.673,73.267c0.419,0.446,0.651,1.041,0.651,1.676v255.978c0,6.915,5.625,12.54,12.54,12.54h55.54
	c0.026,0,0.051-0.004,0.077-0.004h366.653c6.915,0,12.54-5.625,12.54-12.54V230.626c0-0.635,0.231-1.23,0.651-1.676
	C501.047,206.937,512,181.603,512,155.686C512,116.843,488.04,80.593,444.533,53.614z M99.711,304.764
	c-2.038-7.638-0.701-11.767,0.991-16.995c1.958-6.051,4.397-13.58,1.215-25.507c-3.182-11.928-9.046-17.242-13.759-21.514
	c-4.072-3.69-7.288-6.605-9.326-14.243c-2.037-7.638-0.7-11.767,0.991-16.995c1.958-6.052,4.396-13.581,1.214-25.51
	c-3.181-11.927-9.046-17.242-13.759-21.514c-2.58-2.338-4.724-4.281-6.48-7.214l30.586-8.16c4.482,4.071,8.032,7.486,10.318,16.05
	c2.354,8.826,0.818,13.572-1.128,19.58c-2.161,6.674-4.85,14.98-1.349,28.102c3.5,13.12,9.968,18.982,15.166,23.694
	c4.68,4.242,8.377,7.593,10.733,16.424c2.354,8.826,0.818,13.572-1.128,19.579c-2.161,6.674-4.85,14.98-1.349,28.102
	c3.499,13.116,9.967,18.978,15.165,23.688c4.681,4.242,8.377,7.593,10.734,16.424c2.354,8.826,0.818,13.572-1.128,19.579
	c-2.161,6.674-4.85,14.98-1.35,28.101c3.5,13.123,9.97,18.985,15.168,23.696c4.679,4.241,8.375,7.59,10.73,16.417
	c2.285,8.564,0.906,13.29-0.953,19.05l-30.586,8.16c0.062-3.416,0.952-6.17,2.025-9.481c1.958-6.051,4.396-13.58,1.214-25.507
	c-3.181-11.926-9.045-17.241-13.758-21.512c-4.072-3.69-7.288-6.605-9.326-14.243c-2.037-7.637-0.7-11.766,0.992-16.993
	c1.958-6.052,4.397-13.581,1.215-25.508c-3.182-11.927-9.046-17.241-13.76-21.512C104.964,315.314,101.748,312.4,99.711,304.764z
	 M140.107,199.938c3.5,13.121,9.969,18.984,15.167,23.696c4.68,4.242,8.377,7.593,10.733,16.423
	c2.354,8.826,0.818,13.572-1.128,19.58c-2.161,6.674-4.85,14.98-1.349,28.102c3.498,13.116,9.967,18.977,15.163,23.688
	c4.681,4.241,8.377,7.592,10.734,16.423c2.354,8.826,0.818,13.572-1.128,19.58c-2.161,6.674-4.85,14.98-1.349,28.102
	c3.5,13.121,9.969,18.983,15.168,23.695c4.679,4.24,8.375,7.59,10.729,16.416c2.286,8.566,0.907,13.288-0.952,19.049l-24.216,6.461
	c0.805-4.97,0.843-10.928-1.174-18.483c-3.498-13.116-9.967-18.977-15.165-23.688c-4.68-4.241-8.377-7.592-10.733-16.423
	s-0.819-13.577,1.127-19.587c2.161-6.673,4.849-14.977,1.35-28.094c-3.5-13.122-9.97-18.984-15.168-23.696
	c-4.679-4.24-8.375-7.59-10.73-16.417c-2.356-8.832-0.819-13.577,1.127-19.587c2.161-6.673,4.849-14.977,1.35-28.094
	c-3.5-13.121-9.969-18.983-15.166-23.695c-4.68-4.242-8.377-7.593-10.734-16.423c-2.356-8.832-0.819-13.578,1.127-19.588
	c2.161-6.673,4.849-14.977,1.35-28.094c-2.015-7.556-5.017-12.706-8.192-16.615l24.218-6.461c4.483,4.072,8.031,7.484,10.317,16.05
	c2.354,8.826,0.818,13.572-1.127,19.579C139.296,178.51,136.607,186.817,140.107,199.938z M395.581,215.576
	c2.742,6.187,6.343,11.585,9.825,16.805c4.462,6.69,8.679,13.01,10.964,20.652c1.427,4.768,2.226,9.688,2.442,14.632l-14.673-4.123
	c-5.357-1.504-11.123,0.724-14.016,5.418c-3.745,6.074-9.141,10.957-15.604,14.121c-17.845,8.738-40.17,1.686-49.769-15.718
	c-3.064-5.558-4.699-11.809-4.73-18.076c-0.025-5.529-3.784-10.442-9.142-11.95l-42.32-11.892
	c-6.656-1.869-13.593,2.023-15.465,8.68l-17.844,63.501c-2.814-4.463-6.027-7.391-8.835-9.935c-4.072-3.69-7.287-6.604-9.325-14.241
	c-2.038-7.638-0.701-11.767,0.991-16.995c1.959-6.051,4.397-13.58,1.215-25.507s-9.046-17.242-13.759-21.513
	c-4.072-3.69-7.288-6.605-9.326-14.243c-2.038-7.638-0.7-11.767,0.991-16.996c1.958-6.05,4.396-13.581,1.214-25.509
	c-3.182-11.927-9.046-17.242-13.759-21.514c-3.434-3.113-6.146-5.571-8.15-10.637c-0.775-1.96-1.989-3.625-3.485-4.931
	c2.667-3.619,5.506-7.084,8.559-10.323c18.405-19.519,44.128-32.778,72.429-37.334c6.993-1.125,14.101-1.681,21.207-1.681
	c16.792,0,33.569,3.107,48.739,9.149c23.283,9.276,42.644,26.263,54.516,47.835c7.848,14.259,9.995,30.455,12.269,47.603
	l0.392,2.946c0.542,4.054,0.528,8.623,0.513,13.46C391.622,196.756,391.592,206.576,395.581,215.576z M174.554,142.323
	c4.072,3.69,7.287,6.605,9.326,14.244c2.037,7.638,0.7,11.767-0.991,16.996c-1.958,6.05-4.396,13.581-1.214,25.509
	c3.182,11.927,9.047,17.242,13.759,21.513c4.072,3.69,7.288,6.605,9.325,14.242c2.038,7.638,0.701,11.766-0.991,16.994
	c-1.958,6.052-4.397,13.581-1.214,25.509c3.181,11.926,9.045,17.24,13.758,21.511c4.072,3.689,7.287,6.604,9.325,14.242
	c2.037,7.637,0.7,11.766-0.991,16.993c-1.959,6.051-4.397,13.58-1.215,25.508c3.182,11.927,9.046,17.241,13.759,21.513
	c4.072,3.689,7.288,6.604,9.325,14.242c2.037,7.637,0.7,11.765-0.992,16.993c-1.495,4.617-3.327,10.275-2.584,18.085l-14.379,3.836
	c0.807-4.971,0.85-10.926-1.167-18.485c-3.499-13.117-9.967-18.978-15.165-23.688c-4.681-4.242-8.378-7.593-10.734-16.423
	c-2.356-8.832-0.819-13.578,1.127-19.588c2.161-6.673,4.849-14.977,1.35-28.094c-3.5-13.122-9.969-18.984-15.167-23.695
	c-4.679-4.24-8.375-7.59-10.73-16.417c-2.356-8.832-0.819-13.578,1.127-19.588c2.161-6.673,4.849-14.977,1.35-28.094
	c-3.5-13.12-9.969-18.983-15.167-23.694c-4.681-4.242-8.377-7.593-10.733-16.424c-2.356-8.832-0.819-13.577,1.127-19.587
	c2.161-6.673,4.849-14.977,1.35-28.094c-2.017-7.561-5.021-12.705-8.199-16.615l14.38-3.836
	C166.551,135.069,170.958,139.064,174.554,142.323z M107.929,359.292v-16.036c0.111,0.37,0.221,0.744,0.326,1.14
	C110.013,350.986,109.257,354.966,107.929,359.292z M469.367,218.636c-3.057,3.248-4.741,7.506-4.741,11.989v253.47H107.929v-91.579
	c3.304,8.104,7.983,12.36,11.879,15.892c4.072,3.69,7.287,6.604,9.325,14.242c2.037,7.637,0.7,11.765-0.992,16.993
	c-1.578,4.877-3.368,10.405-2.562,18.318c0.381,3.741,2.371,7.11,5.462,9.243c2.152,1.487,4.677,2.259,7.235,2.259
	c1.1,0,2.206-0.143,3.292-0.432c0,0,107.172-28.591,107.173-28.592c1.287-0.344,2.473-0.884,3.547-1.567l137.4,38.609
	c1.127,0.316,2.273,0.473,3.412,0.473c2.121,0,4.218-0.544,6.118-1.611c2.92-1.639,5.029-4.318,5.935-7.543l15.348-54.617
	c1.124-4.001-1.208-8.155-5.208-9.28c-4.002-1.121-8.155,1.209-9.279,5.208l-14.669,52.203l-133.428-37.493
	c-0.408-4.599,0.625-7.854,1.921-11.859c1.959-6.051,4.397-13.58,1.215-25.507s-9.046-17.241-13.759-21.513
	c-4.072-3.69-7.288-6.604-9.325-14.241c-0.481-1.801-0.768-3.403-0.913-4.874l29.848-106.22l38.118,10.712
	c0.347,8.113,2.597,16.131,6.554,23.308c6.548,11.873,17.349,20.685,30.415,24.812c13.068,4.127,26.972,3.116,39.149-2.847
	c8.417-4.122,15.544-10.342,20.717-18.063l38.12,10.712l-21.355,75.998c-1.124,4.001,1.208,8.155,5.208,9.28
	c4.001,1.124,8.155-1.208,9.28-5.208l22.033-78.413c1.87-6.657-2.023-13.594-8.68-15.465l-12.603-3.541
	c0.162-7.812-0.819-15.645-3.071-23.173c-2.933-9.803-7.982-17.371-12.864-24.69c-3.274-4.908-6.366-9.544-8.586-14.551
	c-2.688-6.066-2.665-13.89-2.64-22.173c0.015-5.128,0.031-10.43-0.646-15.499l-0.389-2.93c-2.356-17.77-4.793-36.145-14.004-52.88
	C378.11,91.377,356.046,72,329.53,61.436c-24.08-9.591-51.748-12.555-77.906-8.344c-31.558,5.079-60.319,19.947-80.988,41.866
	c-5.596,5.935-10.63,12.466-15.062,19.457l-77.131,20.577c6.197-22.599,22.439-44.003,47.265-61.766
	c0.01-0.007,0.019-0.014,0.028-0.02c37.288-26.594,83.036-39.52,128.223-43.8c0.02-0.002,0.039-0.008,0.059-0.01
	c10.579-0.987,21.354-1.494,32.26-1.494c56.901,0,110.287,13.673,150.324,38.501c38.917,24.134,60.35,55.841,60.35,89.283
	C496.952,177.698,487.414,199.466,469.367,218.636z"/>
<g>
</g>
<g>
</g>
<g>
</g>
<g>
</g>
<g>
</g>
<g>
</g>
<g>
</g>
<g>
</g>
<g>
</g>
<g>
</g>
<g>
</g>
<g>
</g>
<g>
</g>
<g>
</g>
<g>
</g>
</svg>
