<?xml version="1.0" encoding="iso-8859-1"?>
<!-- Generator: Adobe Illustrator 19.0.0, SVG Export Plug-In . SVG Version: 6.00 Build 0)  -->
<svg version="1.1" id="Layer_1" xmlns="http://www.w3.org/2000/svg" xmlns:xlink="http://www.w3.org/1999/xlink" x="0px" y="0px"
	 viewBox="0 0 512 512" style="enable-background:new 0 0 512 512;" xml:space="preserve">
<path style="fill:#FBB03B;" d="M7.299,7.299v73.591c5.214-1.05,10.947-1.607,16.428-1.607c44.189,0,80.225,35.822,80.225,80.013
	c0,44.189-36.141,80.013-80.331,80.013c-5.481,0-11.108-0.557-16.321-1.607v98.428c3.128-0.525,5.685-0.806,8.427-0.806
	c22.095,0,40.219,17.912,40.219,40.006c0,22.094-18.23,40.006-40.325,40.006c-2.74,0-5.192-0.282-8.32-0.806v89.128h121.338
	c-0.291-2.086-0.469-5.447-0.469-8.156c0-39.771,32.24-72.089,72.012-72.089s72.012,32.356,72.012,72.126
	c0,2.708-0.178,6.031-0.469,8.117h96.484c0-26.069,21.494-48.007,48.007-48.007s48.007,21.938,48.007,48.007h40.479V7.299H7.299z
	 M144.17,359.327c-17.676,0-32.005-14.33-32.005-32.005c0-17.676,14.329-32.005,32.005-32.005s32.005,14.329,32.005,32.005
	C176.176,344.998,161.846,359.327,144.17,359.327z M160.173,71.282c-8.837,0-16.002-7.165-16.002-16.002
	c0-8.839,7.165-16.002,16.002-16.002c8.837,0,16.002,7.164,16.002,16.002C176.176,64.117,169.011,71.282,160.173,71.282z
	 M392.21,55.279c26.513,0,48.007,21.494,48.007,48.007s-21.494,48.007-48.007,48.007c-26.513,0-48.007-21.494-48.007-48.007
	S365.695,55.279,392.21,55.279z M240.185,247.31c-17.676,0-32.005-14.33-32.005-32.005c0-17.676,14.329-32.005,32.005-32.005
	s32.005,14.329,32.005,32.005C272.19,232.98,257.861,247.31,240.185,247.31z M272.19,151.294c-8.837,0-16.002-7.165-16.002-16.002
	c0-8.839,7.165-16.002,16.002-16.002s16.002,7.164,16.002,16.002C288.193,144.13,281.029,151.294,272.19,151.294z M352.203,367.328
	c-22.095,0-40.006-17.912-40.006-40.006c0-22.094,17.912-40.006,40.006-40.006c22.094,0,40.006,17.912,40.006,40.006
	C392.209,349.417,374.298,367.328,352.203,367.328z M400.211,247.31c-8.837,0-16.002-7.165-16.002-16.002
	c0-8.839,7.165-16.002,16.002-16.002s16.002,7.164,16.002,16.002C416.213,240.145,409.048,247.31,400.211,247.31z M440.217,375.329
	c-8.837,0-16.002-7.165-16.002-16.002c0-8.839,7.165-16.002,16.002-16.002s16.002,7.164,16.002,16.002
	C456.219,368.165,449.054,375.329,440.217,375.329z"/>
<g>
	<path style="fill:#F7931E;" d="M128.637,503.984c0,0-7.636-76.717,71.542-80.013v-8.001h-24.004
		c-48.609,0-88.014,39.405-88.014,88.014l0,0L128.637,503.984L128.637,503.984z"/>
	<path style="fill:#F7931E;" d="M352.203,504.57l0.311,1.102c-0.171-31.491,25.309-57.11,56.801-57.11h6.898l-11.718,7.03
		c-18.113,10.868-31.166,28.485-36.289,48.978l0,0H352.203z"/>
	<path style="fill:#F7931E;" d="M112.166,327.566c0-17.885,15.815-34.548,32.005-39.762c-14.493,0-19.793,0-24.004,0
		c-22.095,0-40.006,17.668-40.006,39.762c0,22.095,17.912,39.884,40.006,39.884c4.211,0,16.379-0.149,24.004,0.061
		C127.98,362.39,112.166,345.451,112.166,327.566z"/>
	<path style="fill:#F7931E;" d="M344.202,375.329c2.732,0,5.394-0.282,8.001-0.72c-22.697-3.817-40.006-23.506-40.006-47.288
		c0-23.781,17.31-43.471,40.006-47.288c-2.607-0.439-5.269-0.72-8.001-0.72c-26.513,0-48.007,21.494-48.007,48.007
		S317.688,375.329,344.202,375.329z"/>
	<path style="fill:#F7931E;" d="M344.074,103.287c0-26.513,21.938-48.007,48.007-48.007v-8.356h-15.874
		c-30.933,0-56.009,25.377-56.009,56.31s25.077,56.31,56.009,56.31h15.874v-8.249C366.012,151.294,344.074,129.801,344.074,103.287z
		"/>
	<path style="fill:#F7931E;" d="M224.183,255.479c-22.095,0-40.006-18.051-40.006-40.147s17.912-40.147,40.006-40.147h15.654v8.114
		c0,0-32.022,0.859-32.005,32.005c0.017,31.146,32.005,32.006,32.005,32.006v8.169H224.183z"/>
	<path style="fill:#F7931E;" d="M392.21,231.307c0-8.863,4.857-16.516,12.002-20.675c-3.543-2.062-7.607-3.33-12.002-3.33
		c-13.257,0-24.004,10.747-24.004,24.004s10.747,24.004,24.004,24.004c4.394,0,8.459-1.267,12.002-3.33
		C397.067,247.824,392.21,240.17,392.21,231.307z"/>
	<path style="fill:#F7931E;" d="M432.216,359.327c0-8.862,4.857-16.516,12.002-20.675c-3.543-2.062-7.607-3.33-12.002-3.33
		c-13.257,0-24.004,10.747-24.004,24.004s10.747,24.004,24.004,24.004c4.395,0,8.459-1.267,12.002-3.33
		C437.073,375.843,432.216,368.19,432.216,359.327z"/>
	<path style="fill:#F7931E;" d="M264.189,135.292c0-8.863,4.857-16.516,12.002-20.675c-3.543-2.062-7.607-3.33-12.002-3.33
		c-13.257,0-24.004,10.747-24.004,24.004s10.747,24.004,24.004,24.004c4.394,0,8.459-1.267,12.002-3.33
		C269.046,151.809,264.189,144.155,264.189,135.292z"/>
	<path style="fill:#F7931E;" d="M144.17,55.279c0-8.863,12.858-16.516,20.003-20.675c-3.543-2.062-7.607-3.33-12.002-3.33
		c-13.257,0-24.004,10.747-24.004,24.004s10.747,24.004,24.004,24.004c4.394,0,8.459-1.267,12.002-3.33
		C157.029,71.796,144.17,64.142,144.17,55.279z"/>
</g>
<path d="M512,512h-55.599v-7.821c0-22.534-17.653-40.187-40.187-40.187s-40.186,17.652-40.186,40.187V512H263.335l0.585-8.365
	c0.075-1.08,0.143-1.979,0.202-2.765c0.165-2.184,0.247-3.279,0.247-5.002c0-35.566-28.795-64.502-64.191-64.502
	s-64.191,28.889-64.191,64.397c0,1.769,0.087,2.929,0.259,5.241c0.057,0.759,0.121,1.618,0.192,2.63l0.585,8.365H0V405.287
	l9.115,1.53c2.701,0.454,4.588,0.699,6.83,0.699c17.815,0,32.308-14.438,32.308-32.185c0-17.748-14.476-32.186-32.267-32.186
	c-2.024,0-3.758,0.176-6.871,0.699L0,345.373V228.458l9.115,1.53c5.927,0.995,9.848,1.499,14.831,1.499
	c39.874,0,72.316-32.385,72.316-72.192S63.84,87.104,23.988,87.104c-4.99,0-9.077,0.527-14.873,1.5L0,90.133V0h512V512z
	 M471.522,496.358h24.837V15.642H15.642v56.247c2.721-0.278,5.402-0.426,8.346-0.426c48.476,0,87.916,39.402,87.916,87.834
	s-39.457,87.834-87.958,87.834c-2.956,0-5.601-0.144-8.305-0.421v80.795c0.114,0,0.229-0.001,0.344-0.001
	c26.418,0,47.909,21.455,47.909,47.828c0,26.372-21.51,47.827-47.95,47.827c-0.102,0-0.202,0-0.303-0.001v73.204H120.35
	c-0.002-0.194-0.003-0.391-0.003-0.595c0-44.134,35.813-80.039,79.832-80.039s79.832,35.953,79.832,80.143
	c0,0.168-0.001,0.332-0.002,0.491h80.896c3.696-27.474,26.662-48.008,55.307-48.008C444.859,448.35,467.826,468.885,471.522,496.358
	z M440.217,383.151c-13.136,0-23.823-10.687-23.823-23.823c0-13.136,10.687-23.823,23.823-23.823
	c13.137,0,23.823,10.687,23.823,23.823C464.04,372.464,453.354,383.151,440.217,383.151z M440.217,351.145
	c-4.511,0-8.182,3.671-8.182,8.182c0,4.511,3.671,8.182,8.182,8.182s8.182-3.671,8.182-8.182
	C448.398,354.816,444.728,351.145,440.217,351.145z M352.203,375.149c-26.372,0-47.827-21.455-47.827-47.827
	c0-26.373,21.455-47.828,47.827-47.828c26.373,0,47.828,21.455,47.828,47.828C400.031,353.694,378.576,375.149,352.203,375.149z
	 M352.203,295.136c-17.748,0-32.185,14.438-32.185,32.186c0,17.747,14.438,32.185,32.185,32.185s32.186-14.438,32.186-32.185
	C384.389,309.574,369.95,295.136,352.203,295.136z M144.17,367.148c-21.961,0-39.825-17.866-39.825-39.825
	s17.866-39.826,39.825-39.826s39.825,17.866,39.825,39.826S166.13,367.148,144.17,367.148z M144.17,303.138
	c-13.335,0-24.184,10.849-24.184,24.184s10.849,24.184,24.184,24.184s24.184-10.849,24.184-24.184S157.505,303.138,144.17,303.138z
	 M400.211,255.13c-13.137,0-23.824-10.687-23.824-23.823c0-13.137,10.687-23.823,23.824-23.823s23.823,10.687,23.823,23.823
	C424.034,244.443,413.348,255.13,400.211,255.13z M400.211,223.126c-4.512,0-8.183,3.671-8.183,8.182s3.671,8.182,8.183,8.182
	c4.511,0,8.182-3.671,8.182-8.182C408.392,226.795,404.722,223.126,400.211,223.126z M240.185,255.13
	c-21.961,0-39.825-17.866-39.825-39.825s17.866-39.825,39.825-39.825s39.825,17.866,39.825,39.825S262.146,255.13,240.185,255.13z
	 M240.185,191.12c-13.335,0-24.184,10.849-24.184,24.184c0,13.335,10.849,24.184,24.184,24.184s24.184-10.849,24.184-24.184
	C264.369,201.969,253.52,191.12,240.185,191.12z M392.21,159.115c-30.784,0-55.829-25.044-55.829-55.828
	s25.045-55.829,55.829-55.829s55.828,25.044,55.828,55.829C448.038,134.071,422.994,159.115,392.21,159.115z M392.21,63.1
	c-22.16,0-40.187,18.028-40.187,40.187s18.027,40.186,40.187,40.186c22.159,0,40.186-18.027,40.186-40.186S414.369,63.1,392.21,63.1
	z M272.19,159.115c-13.136,0-23.823-10.687-23.823-23.823s10.687-23.823,23.823-23.823c13.137,0,23.824,10.687,23.824,23.823
	S285.327,159.115,272.19,159.115z M272.19,127.111c-4.511,0-8.182,3.671-8.182,8.182c0,4.511,3.671,8.182,8.182,8.182
	c4.512,0,8.183-3.671,8.183-8.182C280.373,130.781,276.703,127.111,272.19,127.111z M160.174,79.102
	c-13.137,0-23.824-10.687-23.824-23.823c0-13.137,10.687-23.823,23.824-23.823s23.823,10.687,23.823,23.823
	C183.996,68.415,173.309,79.102,160.174,79.102z M160.174,47.098c-4.512,0-8.183,3.671-8.183,8.182s3.671,8.182,8.183,8.182
	c4.511,0,8.182-3.671,8.182-8.182C168.354,50.768,164.685,47.098,160.174,47.098z"/>
<g>
</g>
<g>
</g>
<g>
</g>
<g>
</g>
<g>
</g>
<g>
</g>
<g>
</g>
<g>
</g>
<g>
</g>
<g>
</g>
<g>
</g>
<g>
</g>
<g>
</g>
<g>
</g>
<g>
</g>
</svg>
