<?xml version="1.0" encoding="iso-8859-1"?>
<!-- Generator: Adobe Illustrator 21.0.0, SVG Export Plug-In . SVG Version: 6.00 Build 0)  -->
<svg xmlns="http://www.w3.org/2000/svg" xmlns:xlink="http://www.w3.org/1999/xlink" version="1.1" id="Capa_1" x="0px" y="0px" viewBox="0 0 512 512" style="enable-background:new 0 0 512 512;" xml:space="preserve" width="512" height="512">
<g>
	<path style="fill:#EEEEEE;" d="M137.786,325.833h-30v-276c0-2.209,1.791-4,4-4h22c2.209,0,4,1.791,4,4V325.833z"/>
	<path style="fill:#E0E0E0;" d="M223.437,311h-30V35c0-2.209,1.791-4,4-4h22c2.209,0,4,1.791,4,4V311z"/>
	<path style="fill:#EEEEEE;" d="M316.134,325.833h-30v-276c0-2.209,1.791-4,4-4h22c2.209,0,4,1.791,4,4V325.833z"/>
	<path style="fill:#E0E0E0;" d="M404.214,337.34h-30v-276c0-2.209,1.791-4,4-4h22c2.209,0,4,1.791,4,4V337.34z"/>
	<path style="fill:#F57C7C;" d="M127.941,262.462c88.253,2.979,176.506,5.958,264.759,8.938   c27.341,0.923,56.744,2.558,78.196,19.314c29.929,23.378,32.992,66.301,33.567,103.969c0.361,23.628-1.648,44.35-19.557,65.525   c-10.911,12.901-31.954,20.175-48.975,20.622c-52.124,1.368-103.946-6.035-156.07-4.667c-56.996,1.496-113.993,2.992-170.989,4.488   c-30.839,0.81-66.084-0.202-86.159-23.323c-18.823-21.678-16.282-53.76-12.681-82.089c3.218-25.317,4.193-82.581,22.979-101.247   C52.181,254.946,103.315,262.462,127.941,262.462z"/>
	<path style="fill:#EF6161;" d="M504.463,394.684c-0.575-37.668-3.638-80.592-33.567-103.969   c-16.897-13.198-38.726-17.013-60.594-18.49c11.109,2.895,21.558,7.462,30.594,14.841c29.929,24.44,32.992,69.315,33.567,108.695   c0.361,24.702-1.648,46.366-19.557,68.503c-5.978,7.39-14.999,13.009-24.732,16.66c1.919-0.028,3.838-0.043,5.758-0.093   c17.02-0.447,38.063-7.721,48.975-20.622C502.815,439.034,504.824,418.312,504.463,394.684z"/>
	<path style="fill:#FAB2B2;" d="M279.86,476.16c-29.45,0.78-58.9,1.55-88.35,2.32c-5.42-8.13-9.63-17.06-12.37-26.44   c-4.52-15.48-5.18-31.94-10.42-47.18c-5.24-15.25-16.92-30.02-32.94-31.82c1.365,13.491-1.146,35.47,0.22,48.96   c2.226,21.988,8.329,35.487,10.56,57.47c0.01,0.06,0.01,0.13,0.02,0.19c-12.57,0.33-25.14,0.66-37.71,0.99   c-9.6,0.25-19.64,0.33-29.5-0.38c-6.58-71.42,1.21-144.15,22.94-212.5c0.66-2.08,1.34-4.16,2.05-6.23   c8.97,0.41,17.17,0.92,23.58,0.92c19.83,0.67,39.67,1.34,59.5,2.01c0.32,4.44,0.53,8.84,0.77,13.06   c2.53,44.34,18.91,86.99,41.19,125.4C245.984,431.54,273.494,468.281,279.86,476.16z"/>
	<path style="fill:#FAB2B2;" d="M484.17,461.05c-11.09,12.38-31.59,19.34-48.24,19.78c-1.66,0.04-3.31,0.08-4.97,0.1   c-4.7-12.58-5.58-26.82-7.4-40.35c-5.48-40.69-21.43-79.93-45.88-112.91c-14.53,0.28-23.06,17.54-22.12,32.04   s7.75,28.09,8.99,42.57c1.23,14.48-6.43,31.93-20.91,33.11c-11.37,0.93-20.73-8.45-27.82-17.41   c-34.66-43.81-57.95-96.44-67.5-151.46c47.64,1.61,95.28,3.22,142.91,4.83c38.51,58.75,69.7,122.3,92.6,188.71   C483.94,460.39,484.06,460.72,484.17,461.05z"/>
	<path style="fill:#F57C7C;" d="M430.863,480.655c0.034,0.091,0.063,0.184,0.097,0.275c1.66-0.02,3.31-0.06,4.97-0.1   c16.65-0.44,37.15-7.4,48.24-19.78c-0.11-0.33-0.23-0.66-0.34-0.99c-3.68-10.671-7.596-21.258-11.7-31.773   c-2.53,12.222-7.559,24.031-17.223,35.977C449.07,471.478,440.331,477,430.863,480.655z"/>
	<path d="M511.959,394.57c-0.585-38.338-3.697-81.403-33.387-107.238c-3.124-2.717-7.862-2.39-10.582,0.734   c-2.719,3.125-2.39,7.862,0.734,10.582c25.031,21.78,27.699,61.051,28.235,96.15c0.306,20.011-1.484,35.52-10.437,50.393   c-20.995-57.961-48.246-113.602-81.18-165.75c13.388,0.731,26.253,2.125,37.971,5.68c3.964,1.204,8.152-1.036,9.355-5   c1.202-3.963-1.036-8.151-5-9.354c-11.477-3.481-23.546-5.087-35.969-5.96V61.34c0-6.341-5.159-11.5-11.501-11.5h-22.001   c-6.342,0-11.501,5.159-11.501,11.5v201.676l-43.083-1.456V49.83c0-6.341-5.159-11.5-11.501-11.5h-22.001   c-6.342,0-11.501,5.159-11.501,11.5v210.209c-3.555-0.12,15.047,0.506-47.693-1.604V35c0-6.341-5.159-11.5-11.501-11.5h-22.001   c-6.342,0-11.501,5.159-11.501,11.5v221.915l-40.653-1.373V49.83c0-6.341-5.159-11.5-11.501-11.5h-22.001   c-6.342,0-11.501,5.159-11.501,11.5V64c0,4.143,3.358,7.5,7.501,7.5c4.142,0,7.501-3.357,7.501-7.5V53.33h15.001v201.705   c-6.564-0.16-6.561-0.072-15.001-0.474V95.667c0-4.143-3.358-7.5-7.501-7.5c-4.142,0-7.501,3.357-7.501,7.5v158.185   c-26.042-1.055-57.047-0.602-72.568,14.821c-17.108,16.998-20.751,58.154-23.411,88.204c-0.602,6.803-1.122,12.678-1.724,17.418   c-3.825,30.091-6.178,64.185,14.459,87.951c22.037,25.378,58.541,26.78,92.025,25.902c65.491-1.718,154.365-4.052,171.001-4.488   c51.406-1.351,103.871,6.047,156.08,4.667c17.726-0.465,41.454-7.842,54.508-23.275C510.939,441.04,512.302,417.067,511.959,394.57   z M436.351,473.313c-2.968-10.485-3.831-22.304-5.367-33.733c-5.662-42.041-22.016-82.283-47.291-116.376   c-5.221-7.043-19.272-0.598-25.295,5.952c-7.116,7.739-11.076,19.634-10.337,31.04c1.009,15.553,7.843,29.191,9.002,42.719   c0.855,10.058-4.115,24.19-14.049,25.002c-6.272,0.524-13.046-4.124-21.329-14.589c-31.871-40.283-53.99-88.163-64.285-138.989   c20.437,0.69,115.55,3.9,129.667,4.377c36.569,56.351,66.317,116.993,88.454,180.298c-2.903,2.505-6.586,4.963-10.88,7.118   C456.252,470.278,446.137,472.949,436.351,473.313z M381.697,64.84h15.001v199.197c-3.014-0.112-11.638-0.399-15.001-0.514V64.84z    M293.611,53.33h15.001v207.723l-15.001-0.507V53.33z M215.916,38.5v219.429l-15.001-0.506V38.5H215.916z M28.341,452.413   c-16.578-19.092-14.478-48.125-10.906-76.227c0.639-5.022,1.17-11.03,1.786-17.986c2.317-26.182,5.819-65.749,19.041-78.886   c10.278-10.212,34.564-11.25,55.874-10.658c-14.68,47.175-22.864,96.317-24.329,146.124c-0.122,4.141,3.136,7.596,7.276,7.718   c4.166,0.078,7.596-3.137,7.718-7.276c1.474-50.11,9.943-99.285,24.859-145.916c5.396,0.258,70.587,2.429,70.692,2.433   c2.288,40.895,12.096,82.481,42.535,134.953c12.484,21.536,30.719,47.133,42.065,62.36c-7.047,0.186-14.094,0.371-21.141,0.556   l-22.633,0.594c-8.548,0.224-17.096,0.448-25.644,0.671c-3.994-6.612-7.09-13.638-9.222-20.935   c-4.404-15.081-5.007-31.463-10.527-47.516c-8.546-24.872-25.852-35.336-39.198-36.835c-4.747-0.531-8.781,3.451-8.3,8.208   c0.632,6.247,0.349,15.008,0.075,23.48c-0.709,21.964-0.716,28.35,5.587,55.192c1.54,6.556,3.016,12.843,4.112,19.914   l-29.419,0.772c-6.786,0.178-14.527,0.298-22.391-0.014c-0.698-8.76-1.183-17.601-1.444-26.363   c-0.123-4.14-3.565-7.398-7.721-7.273c-4.14,0.124-7.397,3.58-7.273,7.721c0.245,8.205,0.68,16.476,1.298,24.691   C54.201,469.707,38.736,464.383,28.341,452.413z M153.169,471.986c-1.219-8.487-2.94-15.814-4.615-22.948   c-5.927-25.24-5.869-30.472-5.198-51.279c0.155-4.779,0.312-9.646,0.314-14.246c6.662,3.795,13.636,11.293,17.929,23.785   c5.014,14.581,5.611,30.741,10.314,46.845c1.723,5.899,3.982,11.642,6.75,17.174L153.169,471.986z M283.419,468.582   c-8.816-11.391-32.748-43.874-47.554-69.414c-28.441-49.028-38.389-89.097-40.46-126.922l46.603,1.573   c10.443,54.429,33.852,105.764,67.913,148.816c7.351,9.288,18.918,21.491,34.313,20.231c18.924-1.544,29.36-22.568,27.775-41.227   c-1.313-15.332-8.112-29.039-8.979-42.415c-0.575-8.864,3.7-20.481,11.303-23.382c22.241,31.255,36.662,67.714,41.783,105.737   c1.394,10.366,2.248,21.31,4.78,31.913c-20.94-0.069-42.041-1.292-62.579-2.484C333.835,469.588,308.554,468.113,283.419,468.582z"/>
</g>















</svg>
