<svg height="512pt" viewBox="-53 0 511 512" width="512pt" xmlns="http://www.w3.org/2000/svg"><path d="m405.832031 224c0-36.90625-20.691406-69.761719-53.332031-85.761719-.214844-41.386719-27.519531-78.078125-66.988281-90.664062-17.277344-29.441407-48.425781-47.574219-82.34375-47.574219-33.921875 0-65.066407 18.132812-82.347657 47.574219-39.46875 12.585937-66.773437 49.066406-66.988281 90.664062-32.640625 16.214844-53.332031 49.070313-53.332031 85.761719 0 24.960938 10.027344 48.851562 27.519531 66.558594-4.054687 9.601562-6.1875 19.414062-6.1875 29.441406 0 33.492188 22.1875 62.292969 53.761719 71.464844 2.984375 31.148437 25.171875 56.75 55.464844 64.640625 8.535156 32.855469 37.546875 55.894531 72.109375 55.894531 34.558593 0 63.570312-23.039062 72.105469-55.894531 31.785156-8.105469 54.398437-35.839844 55.894531-68.90625 25.8125-12.160157 42.664062-38.398438 42.664062-67.199219 0-7.464844-1.066406-14.933594-3.410156-22.1875 22.398437-18.132812 35.410156-45.226562 35.410156-73.8125zm0 0" fill="#4caf50"/><path d="m203.167969 469.332031c-5.976563 0-10.667969-4.691406-10.667969-10.664062v-405.335938c0-5.972656 4.691406-10.664062 10.667969-10.664062 5.972656 0 10.664062 4.691406 10.664062 10.664062v405.335938c0 5.972656-4.691406 10.664062-10.664062 10.664062zm0 0"/><path d="m203.167969 426.667969c-2.773438 0-5.546875-1.066407-7.46875-3.203125l-32-32c-4.265625-4.265625-4.265625-10.878906 0-15.144532 4.265625-4.265624 10.878906-4.265624 15.148437 0l24.320313 24.53125 24.53125-24.53125c4.265625-4.265624 10.878906-4.265624 15.148437 0 4.265625 4.265626 4.265625 10.878907 0 15.144532l-32 32c-2.132812 2.136718-4.90625 3.203125-7.679687 3.203125zm0 0"/><path d="m203.167969 362.667969c-2.773438 0-5.546875-1.066407-7.46875-3.203125l-64-64c-4.265625-4.265625-4.265625-10.878906 0-15.144532 4.265625-4.265624 10.878906-4.265624 15.148437 0l56.320313 56.53125 56.53125-56.53125c4.265625-4.265624 10.878906-4.265624 15.148437 0 4.265625 4.265626 4.265625 10.878907 0 15.144532l-64 64c-2.132812 2.136718-4.90625 3.203125-7.679687 3.203125zm0 0"/><path d="m203.167969 277.332031c-2.773438 0-5.546875-1.066406-7.46875-3.199219l-53.332031-53.332031c-4.265626-4.265625-4.265626-10.878906 0-15.148437 4.265624-4.265625 10.878906-4.265625 15.144531 0l45.65625 45.867187 45.867187-45.867187c4.265625-4.265625 10.878906-4.265625 15.144532 0 4.265624 4.269531 4.265624 10.882812 0 15.148437l-53.332032 53.332031c-2.132812 2.132813-4.90625 3.199219-7.679687 3.199219zm0 0"/><path d="m203.167969 192c-2.773438 0-5.546875-1.066406-7.46875-3.199219l-42.664063-42.667969c-4.269531-4.265624-4.269531-10.878906 0-15.144531 4.265625-4.269531 10.878906-4.269531 15.144532 0l34.988281 35.199219 35.199219-35.199219c4.265624-4.269531 10.878906-4.269531 15.144531 0 4.269531 4.265625 4.269531 10.878907 0 15.144531l-42.664063 42.667969c-2.132812 2.132813-4.90625 3.199219-7.679687 3.199219zm0 0"/><path d="m203.167969 106.667969c-2.773438 0-5.546875-1.066407-7.46875-3.203125l-21.332031-21.332032c-4.265626-4.265624-4.265626-10.878906 0-15.144531 4.265624-4.269531 10.878906-4.269531 15.144531 0l13.65625 13.863281 13.867187-13.863281c4.265625-4.269531 10.878906-4.269531 15.144532 0 4.265624 4.265625 4.265624 10.878907 0 15.144531l-21.332032 21.332032c-2.132812 2.136718-4.90625 3.203125-7.679687 3.203125zm0 0"/><path d="m203.167969 512c-34.5625 0-63.574219-23.039062-72.109375-55.894531-30.503906-7.679688-52.480469-33.492188-55.464844-64.640625-31.574219-9.171875-53.761719-37.972656-53.761719-71.464844 0-10.027344 2.132813-19.839844 6.1875-29.441406-17.492187-17.707032-27.519531-41.597656-27.519531-66.558594 0-36.90625 20.691406-69.761719 53.332031-85.761719.214844-41.386719 27.519531-78.078125 66.988281-90.664062 17.28125-29.441407 48.425782-47.574219 82.347657-47.574219 33.917969 0 65.066406 18.132812 82.34375 47.574219 39.46875 12.585937 66.773437 49.066406 66.988281 90.664062 32.640625 16.214844 53.332031 49.070313 53.332031 85.761719 0 28.585938-13.011719 55.679688-35.410156 73.8125 2.34375 7.253906 3.410156 14.722656 3.410156 22.1875 0 28.800781-16.851562 55.039062-42.664062 67.199219-1.496094 33.066406-24.109375 60.800781-55.894531 68.90625-8.535157 32.855469-37.546876 55.894531-72.105469 55.894531zm0-490.667969c-27.519531 0-52.695313 15.359375-65.707031 40.109375-1.496094 2.773438-3.839844 4.691406-6.828126 5.332032-32.640624 8.746093-55.464843 38.398437-55.464843 71.894531 0 .851562.210937 1.492187.210937 2.34375l.429688 2.988281c.425781 4.691406-2.347656 8.960938-6.617188 10.667969-28.796875 11.519531-47.359375 38.613281-47.359375 69.332031 0 21.546875 9.601563 42.027344 26.242188 56.105469 3.839843 3.414062 4.90625 8.960937 2.347656 13.441406-4.695313 8.53125-7.253906 17.28125-7.253906 26.453125 0 26.027344 18.773437 48 44.585937 52.480469 5.121094.851562 8.746094 5.332031 8.746094 10.453125l-10.667969.425781 10.667969 1.707031c0 25.386719 19.199219 47.359375 45.226562 51.414063 4.695313.640625 8.320313 4.265625 8.960938 8.960937 4.050781 26.238282 26.027344 45.226563 52.480469 45.226563s48.425781-18.988281 52.480469-45.226563c.636718-4.695312 4.265624-8.320312 8.957031-8.960937 26.242187-4.054688 45.226562-26.027344 45.226562-52.480469-.210937-1.492188-.210937-2.347656-.425781-3.199219-.214844-4.695312 2.558594-8.960937 7.039062-10.667969 21.546876-7.464843 36.054688-27.519531 36.054688-50.132812 0-7.464844-1.492188-14.71875-4.691406-21.546875-2.136719-4.691406-.429688-10.238281 3.839844-13.226563 20.691406-14.078124 32.851562-36.90625 32.851562-61.226562 0-30.71875-18.558594-57.8125-47.148438-69.332031-4.265624-1.707031-7.039062-6.1875-6.613281-10.667969l.429688-2.988281c-.214844-.851563 0-1.492188 0-2.34375 0-33.496094-22.828125-63.148438-55.46875-71.894531-2.773438-.851563-5.332031-2.773438-6.613281-5.332032-13.226563-24.75-38.398438-40.109375-65.917969-40.109375zm-117.335938 362.027344"/></svg>