<svg height="512pt" viewBox="0 -103 512 512" width="512pt" xmlns="http://www.w3.org/2000/svg"><path d="m14.644531 222.675781 172.890625-207.59375c.730469-.875 1.675782-1.546875 2.75-1.917969 18.199219-6.277343 22.761719-7.410156 47.730469-3.09375l-3.320313 229.414063h-212.21875c-8.660156 0-13.386718-10.140625-7.832031-16.808594zm0 0" fill="#e8a774"/><path d="m56.179688 222.675781 174.003906-208.933593c4.082031-4.898438 11.585937-4.898438 15.667968 0l174.003907 208.933593c5.554687 6.667969.828125 16.808594-7.832031 16.808594h-348.011719c-8.660157 0-13.386719-10.140625-7.832031-16.808594zm0 0" fill="#ffdbc4"/><path d="m132.3125 149.96875c-6.957031-7.074219-19.042969-5.042969-23.273438 4.046875-.253906.554687-.734374.984375-1.332031 1.09375-3.433593.617187-6.589843 2.441406-8.847656 5.394531-.367187.480469-.953125.753906-1.558594.726563-4.578125-.191407-9.167969 1.777343-12.132812 5.714843-4.023438 5.34375-3.757813 12.570313.199219 17.585938.617187.78125.484374 1.898438-.222657 2.597656-7.371093 7.277344-6.449219 19.488282 1.953125 25.597656.578125.421876.863282 1.140626.75 1.84375-.957031 5.980469 1.332032 12.273438 6.503906 16.167969 9.820313 7.398438 23.554688 2.066407 26.488282-9.164062.265625-1.007813 1.226562-1.703125 2.25-1.496094 9.574218 1.914063 18.316406-6.285156 17.042968-15.949219-.144531-1.097656.652344-2.109375 1.753907-2.199218 10.265625-.835938 16.332031-12.1875 11.429687-21.183594-.492187-.902344-.285156-2.050782.574219-2.613282 1.574219-1.03125 3-2.335937 4.195313-3.921874 11.804687-15.671876-8.136719-34.917969-23.175782-24.019532-.808594.582032-1.898437.484375-2.597656-.222656zm0 0" fill="#4bab3d"/><path d="m179.453125 90.328125c-6.429687-7.554687-18.628906-6.402344-23.503906 2.355469-.296875.535156-.804688.929687-1.410157.992187-3.46875.367188-6.746093 1.960938-9.214843 4.742188-.398438.453125-1.007813.683593-1.605469.613281-4.550781-.527344-9.273438 1.109375-12.515625 4.820312-4.402344 5.039063-4.660156 12.265626-1.074219 17.554688.558594.824219.347656 1.929688-.410156 2.574219-7.878906 6.726562-7.839844 18.972656.09375 25.671875.546875.460937.777344 1.199218.617188 1.894531-1.386719 5.890625.441406 12.335937 5.316406 16.59375 9.261718 8.089844 23.34375 3.765625 27.082031-7.222656.335937-.988281 1.347656-1.609375 2.351563-1.332031 9.414062 2.605468 18.726562-4.941407 18.152343-14.675782-.0625-1.101562.804688-2.050781 1.910157-2.0625 10.296874-.09375 17.171874-10.976562 12.933593-20.304687-.425781-.9375-.140625-2.0625.761719-2.5625 1.640625-.914063 3.15625-2.113281 4.464844-3.609375 12.910156-14.777344-5.585938-35.414063-21.375-25.632813-.847656.523438-1.929688.351563-2.574219-.410156zm0 0" fill="#51b842"/><path d="m233.046875 36.527344c-6.136719-7.796875-18.371094-7.113282-23.578125 1.453125-.316406.523437-.835938.898437-1.445312.9375-3.480469.234375-6.820313 1.703125-9.390626 4.386719-.417968.433593-1.03125.640624-1.628906.546874-4.527344-.699218-9.308594.757813-12.6875 4.339844-4.59375 4.867188-5.128906 12.078125-1.746094 17.5.523438.84375.273438 1.941406-.507812 2.558594-8.132812 6.417969-8.566406 18.652344-.890625 25.65625.527344.480469.730469 1.226562.542969 1.914062-1.613282 5.835938-.03125 12.34375 4.679687 16.789063 8.941407 8.4375 23.179688 4.652344 27.339844-6.183594.371094-.972656 1.40625-1.554687 2.398437-1.242187 9.308594 2.964844 18.902344-4.21875 18.703126-13.964844-.023438-1.105469.878906-2.023438 1.984374-1.988281 10.296876.300781 17.582032-10.3125 13.703126-19.792969-.386719-.953125-.058594-2.066406.859374-2.535156 1.675782-.847656 3.238282-1.988282 4.601563-3.4375 13.464844-14.269532-4.226563-35.597656-20.378906-26.429688-.867188.492188-1.945313.273438-2.558594-.507812zm0 0" fill="#58c748"/><path d="m92.144531 222.675781 172.890625-207.59375c.730469-.875 1.675782-1.546875 2.75-1.917969 18.199219-6.277343 22.761719-7.410156 47.730469-3.09375l-3.320313 229.414063h-212.21875c-8.660156 0-13.386718-10.140625-7.832031-16.808594zm0 0" fill="#e8a774"/><path d="m133.679688 222.675781 174.003906-208.933593c4.082031-4.898438 11.585937-4.898438 15.667968 0l174.003907 208.933593c5.554687 6.667969.828125 16.808594-7.832031 16.808594h-348.011719c-8.660157 0-13.386719-10.140625-7.832031-16.808594zm0 0" fill="#ffdbc4"/><path d="m489.5 269.484375h-467c-8.285156 0-15-6.714844-15-15v-7c0-4.417969 3.582031-8 8-8h481c4.417969 0 8 3.582031 8 8v7c0 8.285156-6.714844 15-15 15zm0 0" fill="#f0f0f0"/><path d="m496.5 239.484375h-30c4.417969 0 8 3.582031 8 8v7c0 8.285156-6.714844 15-15 15h30c8.285156 0 15-6.714844 15-15v-7c0-4.417969-3.582031-8-8-8zm0 0" fill="#e3e3e3"/><path d="m443.871094 299.484375h-375.742188c-9.460937 0-17.128906-7.667969-17.128906-17.125v-12.875h410v12.875c0 9.457031-7.667969 17.125-17.128906 17.125zm0 0" fill="#e3e3e3"/><path d="m431 269.484375v12.875c0 9.457031-7.667969 17.125-17.128906 17.125h30c9.460937 0 17.128906-7.667969 17.128906-17.125v-12.875zm0 0" fill="#d1cfcd"/><path d="m388.539062 103.730469c2.660157 3.195312 7.390626 3.609375 10.5625.964843 3.183594-2.648437 3.613282-7.378906.964844-10.5625l-11.554687-13.878906c-2.652344-3.183594-7.382813-3.613281-10.566407-.960937-3.179687 2.648437-3.613281 7.378906-.960937 10.5625zm0 0"/><path d="m506.144531 235.371094c2.203125-5.957032 1.097657-12.535156-3.027343-17.488282l-82.605469-99.199218c-2.652344-3.183594-7.382813-3.613282-10.566407-.964844-3.179687 2.652344-3.613281 7.382812-.960937 10.566406l82.609375 99.199219c1.507812 1.8125.214844 4.507813-2.070312 4.507813h-348.011719c-2.285157 0-3.582031-2.695313-2.070313-4.507813l174.007813-208.957031c1.078125-1.292969 3.054687-1.300782 4.140625 0l38.925781 46.746094c2.648437 3.183593 7.382813 3.617187 10.5625.964843 3.183594-2.652343 3.613281-7.382812.960937-10.566406l-38.925781-46.742187c-3.210937-3.859376-7.855469-6.148438-12.839843-6.359376-26.179688-4.488281-32.246094-2.957031-50.914063 3.484376-2.375.8125-4.484375 2.277343-6.089844 4.214843l-3.269531 3.925781-4.386719-5.265624c-3.207031-3.851563-7.847656-6.144532-12.828125-6.359376-26.191406-4.488281-32.257812-2.957031-50.925781 3.484376-2.375.8125-4.484375 2.277343-6.089844 4.214843l-172.894531 207.613281c-4.121094 4.957032-5.226562 11.53125-3.019531 17.484376-3.566407 2.84375-5.855469 7.222656-5.855469 12.128906v7c0 12.40625 10.09375 22.5 22.5 22.5h21v5.375c0 13.582031 11.046875 24.628906 24.628906 24.628906h375.742188c13.582031 0 24.628906-11.046875 24.628906-24.628906v-5.375h21c12.40625 0 22.5-10.09375 22.5-22.5v-7c0-4.90625-2.289062-9.285156-5.855469-12.125zm-235.558593-215.25c11.183593-3.859375 16.382812-5.613282 26.191406-5.015625l-168.863282 202.777343c-3.355468 4.03125-4.714843 9.136719-3.917968 14.109376h-24.015625c-2.226563 0-3.632813-2.640626-2.078125-4.511719 20.605468-24.738281 153.492187-184.3125 172.683594-207.359375zm-208.644532 207.359375 13.78125-16.546875c1.171875 2.113281 2.660156 4.050781 4.421875 5.738281-.089843 3.695313.660157 7.359375 2.191407 10.71875-.160157 1.523437-.117188 3.070313.128906 4.601563h-18.453125c-2.308594 0-3.574219-2.703126-2.070313-4.511719zm29.316406-47.589844c-1.941406-2.464844-1.984374-5.929687-.09375-8.4375 1.355469-1.804687 3.527344-2.816406 5.886719-2.722656 3.027344.121093 5.910157-1.261719 7.765625-3.664063 1.054688-1.378906 2.519532-2.269531 4.128906-2.5625 2.980469-.496094 5.546876-2.472656 6.894532-5.320312 1.386718-2.976563 4.058594-3.707032 5.238281-3.882813.035156-.003906.066406-.011719.101563-.015625.464843-.0625.933593-.078125 1.398437-.050781-.523437 5.738281.992187 11.433594 4.234375 16.097656l-33.042969 39.675781c-.601562-.886718-1.359375-1.679687-2.253906-2.339843-2.226563-1.621094-3.621094-4.128907-3.828125-6.878907-.207031-2.738281.785156-5.40625 2.71875-7.316406 3.441406-3.394531 3.816406-8.792968.851562-12.582031zm14.929688-32.132813c.066406-.011718.128906-.023437.191406-.035156-.0625.011719-.125.023438-.191406.035156zm30.152344-30.5625c-1.757813-2.59375-1.546875-6.054687.503906-8.402343 1.496094-1.710938 3.742188-2.578125 6.011719-2.3125 3.070312.359375 6.109375-.820313 8.09375-3.101563 1.4375-1.628906 3.179687-2.121094 4.324219-2.246094 2.992187-.292968 5.683593-2.074218 7.234374-4.816406 1.667969-3.003906 4.800782-3.730468 6.972657-3.441406.640625.085938 1.246093.25 1.8125.496094.726562 1.289062 1.570312 2.519531 2.527343 3.667968-.625 4.609376.078126 9.273438 1.992188 13.449219l-38.277344 45.964844c-.113281-1.054687-.050781-2.136719.203125-3.210937.796875-3.449219-.371093-7.007813-3.078125-9.320313-2.105468-1.773437-3.3125-4.375-3.320312-7.132813-.007813-2.746093 1.175781-5.332031 3.253906-7.105468 3.679688-3.144532 4.433594-8.507813 1.746094-12.488282zm52.59375-55.476562c-1.65625-2.664062-1.316406-6.105469.847656-8.390625 1.546875-1.648437 3.820312-2.421875 6.109375-2.066406 3.011719.453125 6.070313-.589844 8.152344-2.777344 1.519531-1.582031 3.28125-2.015625 4.460937-2.09375 3-.195313 5.75-1.875 7.375-4.519531.480469-.792969 1.101563-1.460938 1.820313-1.984375.117187-.074219.230469-.15625.34375-.238281.96875-.613282 2.097656-.980469 3.308593-1.054688 2.292969-.144531 4.414063.796875 5.792969 2.542969 1.058594 1.355469 2.4375 2.351562 3.957031 2.953125l-41.859374 50.269531c-.222657-2.277344-1.269532-4.417969-3.015626-6-2.03125-1.855469-3.140624-4.5-3.042968-7.257813.097656-2.746093 1.382812-5.289062 3.492187-6.957031 3.855469-3.011719 4.816407-8.367187 2.257813-12.425781zm56.109375-34.367188c-3.09375-.171874-6.203125.277344-9.1875 1.335938-1.675781-1.402344-3.546875-2.542969-5.550781-3.386719l5.636718-6.769531c1.082032-1.296875 3.058594-1.304688 4.144532 0l6.152343 7.382812zm-51.957031-7.230468c11.183593-3.859375 16.382812-5.613282 26.1875-5.015625l-10.785157 12.945312c-1.421875 1.082031-2.71875 2.339844-3.84375 3.757813-3.414062.691406-6.605469 2.1875-9.324219 4.371094-6.175781-.148438-12.171874 2.308593-16.445312 6.847656-5.742188 6.066406-7.4375 14.757812-4.707031 22.40625-3.039063 3.484375-5.027344 7.769531-5.71875 12.371094-6.992188.007812-13.496094 3.308593-17.574219 8.90625-3.375.820312-6.496094 2.433593-9.132812 4.722656-3.644532.050781-7.191407 1.011718-10.339844 2.757812zm-172.683594 207.359375 100.898437-121.15625c-1.648437 4.902343-1.527343 10.289062.425781 15.160156-3.476562 4.300781-5.402343 9.699219-5.390624 15.34375.003906.714844.035156 1.429687.101562 2.132813-5.367188 1.425781-9.953125 4.800781-12.882812 9.46875-3.316407 1.066406-6.324219 2.90625-8.777344 5.371093-6.160156.53125-11.847656 3.640625-15.59375 8.625-5.035156 6.675781-5.75 15.515625-2.195313 22.792969-.605469.871094-1.152343 1.78125-1.632812 2.714844l-24.933594 29.945312c-3.363281 4.035156-4.722656 9.140625-3.925781 14.113282h-24.015625c-2.289063 0-3.582031-2.699219-2.078125-4.511719zm476.597656 27.015625c0 4.136718-3.363281 7.5-7.5 7.5h-393.421875c-4.144531 0-7.5 3.359375-7.5 7.5 0 4.144531 3.355469 7.503906 7.5 7.503906h357.421875v5.371094c0 5.308594-4.316406 9.628906-9.628906 9.628906h-375.742188c-5.3125 0-9.628906-4.320312-9.628906-9.628906v-5.371094h5.5c4.144531 0 7.5-3.359375 7.5-7.503906 0-4.140625-3.355469-7.5-7.5-7.5h-41.5c-4.136719 0-7.5-3.363282-7.5-7.5v-7c0-.277344.226562-.5.5-.5h481c.273438 0 .5.222656.5.5zm0 0"/></svg>