<svg height="504pt" viewBox="0 -66 504.88091 504" width="504pt" xmlns="http://www.w3.org/2000/svg"><path d="m44.355469 118.855469c-.023438 4.398437-3.550781 8.769531-7.855469 9.695312l-1.648438.359375c-4.304687.929688-10.0625-1.117187-12.816406-4.550781l-20.472656-25.664063c-2.75-3.441406-1.773438-7.855468 2.167969-9.832031l33.699219-16.839843c3.933593-1.96875 7.140624.023437 7.117187 4.425781zm0 0" fill="#e9573f"/><path d="m453.882812 118.925781c-.574218 4.363281 2.464844 8.699219 6.769532 9.625l1.648437.359375c4.304688.929688 10.375-.839844 13.503907-3.933594l27.101562-26.898437c3.128906-3.09375 2.464844-7.238281-1.476562-9.207031l-33.699219-16.839844c-3.933594-1.96875-7.628907-.007812-8.207031 4.351562zm0 0" fill="#e9573f"/><path d="m504.582031 172.4375c0 2.082031-.160156 4.160156-.320312 6.160156-7.441407 67.050782-69.679688 193.839844-251.679688 193.839844-91.042969 0-152.082031-31.6875-191.28125-71.765625-39.28125-40.082031-56.71875-88.558594-60.402343-122.082031-.167969-2-.316407-4.078125-.316407-6.160156 0-30.964844 25.039063-56 56-56 14.398438 0 27.597657 5.441406 37.519531 14.394531 9.757813 8.816406 16.320313 20.96875 18.078126 34.640625 2.160156 15.839844 19.441406 94.964844 140.402343 94.964844 120.957031 0 138.238281-79.125 140.398438-94.964844h.078125c3.449218-27.59375 26.960937-49.035156 55.523437-49.035156 30.957031.007812 56 25.042968 56 56.007812zm0 0" fill="#f96e52"/><path d="m252.582031 348.4375c-91.042969 0-152.082031-31.6875-191.28125-71.765625-36.832031-37.59375-54.472656-82.558594-59.542969-115.65625-.769531 3.6875-1.167968 7.503906-1.167968 11.421875 0 2.082031.160156 4.160156.316406 6.160156 3.683594 33.515625 21.121094 82 60.402344 122.082032 39.199218 40.078124 100.238281 71.769531 191.28125 71.769531 182 0 244.238281-126.800781 251.679687-193.84375.167969-2 .320313-4.078125.320313-6.15625 0-3.921875-.410156-7.753907-1.167969-11.441407-10.578125 68.367188-74.480469 187.429688-250.839844 187.429688zm0 0" fill="#f06347"/><g fill="#e6e9ed"><path d="m252.589844 152.4375c-1.105469 0-2.195313-.453125-2.984375-1.335938-1.480469-1.644531-1.328125-4.167968.3125-5.644531.132812-.128906 13.636719-12.441406 14.605469-30.503906.648437-12.074219-4.375-24.128906-14.917969-35.832031-12.050781-13.394532-17.753907-27.433594-16.953125-41.730469 1.191406-21.421875 16.617187-35.359375 17.273437-35.941406 1.636719-1.464844 4.160157-1.3125 5.628907.328125 1.480468 1.644531 1.328124 4.167968-.308594 5.644531-.136719.128906-13.640625 12.441406-14.609375 30.503906-.648438 12.074219 4.375 24.128907 14.917969 35.832031 12.050781 13.394532 17.753906 27.433594 16.953124 41.730469-1.191406 21.421875-16.617187 35.359375-17.273437 35.941407-.757813.671874-1.703125 1.007812-2.644531 1.007812zm0 0"/><path d="m328.589844 152.4375c-1.105469 0-2.195313-.453125-2.984375-1.335938-1.480469-1.644531-1.328125-4.167968.3125-5.644531.132812-.128906 13.636719-12.441406 14.605469-30.503906.648437-12.074219-4.375-24.128906-14.917969-35.832031-12.050781-13.394532-17.753907-27.433594-16.953125-41.730469 1.191406-21.421875 16.617187-35.359375 17.273437-35.941406 1.636719-1.464844 4.160157-1.3125 5.628907.328125 1.480468 1.644531 1.328124 4.167968-.308594 5.644531-.136719.128906-13.640625 12.441406-14.609375 30.503906-.648438 12.074219 4.375 24.128907 14.917969 35.832031 12.050781 13.394532 17.753906 27.433594 16.953124 41.730469-1.191406 21.421875-16.617187 35.359375-17.273437 35.941407-.757813.671874-1.703125 1.007812-2.644531 1.007812zm0 0"/><path d="m176.589844 152.4375c-1.105469 0-2.195313-.453125-2.984375-1.335938-1.480469-1.644531-1.328125-4.167968.3125-5.644531.132812-.128906 13.636719-12.441406 14.605469-30.503906.648437-12.074219-4.375-24.128906-14.917969-35.832031-12.050781-13.394532-17.753907-27.433594-16.953125-41.730469 1.191406-21.421875 16.617187-35.359375 17.273437-35.941406 1.636719-1.464844 4.160157-1.3125 5.628907.328125 1.480468 1.644531 1.328124 4.167968-.308594 5.644531-.136719.128906-13.640625 12.441406-14.609375 30.503906-.648438 12.074219 4.375 24.128907 14.917969 35.832031 12.050781 13.394532 17.753906 27.433594 16.953124 41.730469-1.191406 21.421875-16.617187 35.359375-17.273437 35.941407-.757813.671874-1.703125 1.007812-2.644531 1.007812zm0 0"/></g></svg>