<svg height="512pt" viewBox="0 0 512 512.01618" width="512pt" xmlns="http://www.w3.org/2000/svg"><path d="m303.414062 335.464844-20.921874 176.550781h-264.828126c-9.738281-.027344-17.6289058-7.914063-17.6562495-17.65625v-52.964844c-.00390625-50.851562 36.1210935-94.53125 86.0703125-104.078125zm0 0" fill="#2c3e50"/><g fill="#bdc3c7"><path d="m132.421875 336.921875 98.410156-.804687-54.273437 66.375-44.136719-63.804688"/><path d="m176.558594 388.429688-44.136719 6.375-2.941406 36.535156 47.078125 80.675781 52.957031-114.609375zm0 0"/><path d="m450.214844 326.636719c-4.875 0-8.828125-3.953125-8.828125-8.828125v-8.828125c-.015625-14.617188-11.863281-26.464844-26.480469-26.480469h-52.96875c-14.617188.015625-26.464844 11.863281-26.480469 26.480469v8.828125c0 4.875-3.953125 8.828125-8.828125 8.828125s-8.828125-3.953125-8.828125-8.828125v-8.828125c.027344-24.363281 19.773438-44.109375 44.136719-44.136719h52.96875c24.363281.027344 44.109375 19.773438 44.136719 44.136719v8.828125c0 4.875-3.953125 8.828125-8.828125 8.828125zm0 0"/></g><path d="m203.042969 288.941406v67.089844c-7.957031 11.484375-16.8125 22.316406-26.484375 32.398438-9.667969-10.082032-18.523438-20.914063-26.480469-32.398438v-67.089844zm0 0" fill="#fdd7ad"/><path d="m203.042969 288.941406v16.421875c-17.511719 3.175781-35.453125 3.175781-52.964844 0v-16.421875zm0 0" fill="#f09372"/><path d="m326.539062 167.742188c.089844-1.503907.089844-20.660157.089844-22.070313-1.242187-81.652344-68.417968-146.851563-150.070312-145.65625-81.652344-1.195313-148.824219 64.003906-150.066406 145.65625 0 1.410156 0 20.566406.085937 22.070313zm0 0" fill="#7f5b53"/><path d="m308.355469 158.914062h18.273437c9.722656.070313 17.585938 7.933594 17.65625 17.652344-.03125 9.742188-7.917968 17.628906-17.65625 17.65625h-300.136718c-9.738282-.027344-17.628907-7.914062-17.65625-17.65625.070312-9.71875 7.933593-17.582031 17.65625-17.652344zm0 0" fill="#f09372"/><path d="m88.285156 335.464844c-21.425781 17.328125-34.300781 43.082031-35.3125 70.621094 0 0 35.3125-19.089844 35.3125 8.828124 0 8.828126-8.828125 8.828126-8.828125 61.792969 0 0 52.964844-35.3125 97.101563 35.308594 0 0-8.828125-61.792969-35.308594-97.101563zm0 0" fill="#3f5c6c"/><path d="m264.835938 335.464844c21.421874 17.328125 34.300781 43.082031 35.308593 70.621094 0 0-35.308593-19.089844-35.308593 8.828124 0 8.828126 8.828124 8.828126 8.828124 61.792969 0 0-52.964843-35.3125-97.105468 35.308594 0 0 8.828125-61.792969 35.3125-97.101563zm0 0" fill="#3f5c6c"/><path d="m512.007812 335.464844v26.480468c.007813 7.027344-2.777343 13.769532-7.746093 18.738282s-11.710938 7.753906-18.738281 7.746094h-194.203126c-7.027343.007812-13.769531-2.777344-18.738281-7.746094s-7.753906-11.710938-7.746093-18.738282v-26.480468c.027343-9.738282 7.914062-17.628906 17.65625-17.65625h211.859374c9.742188.027344 17.628907 7.917968 17.65625 17.65625zm0 0" fill="#af8066"/><path d="m512.007812 361.945312v132.414063c-.027343 9.742187-7.917968 17.628906-17.65625 17.65625h-211.859374c-9.738282-.027344-17.628907-7.914063-17.65625-17.65625v-132.414063c-.007813 7.027344 2.777343 13.769532 7.746093 18.738282s11.710938 7.753906 18.738281 7.746094h194.203126c7.027343.007812 13.769531-2.777344 18.738281-7.746094s7.753906-11.710938 7.746093-18.738282zm0 0" fill="#7f5b53"/><path d="m412.320312 426.324219-17.65625 17.65625c-3.449218 3.449219-9.035156 3.449219-12.484374 0l-17.65625-17.65625c-1.652344-1.652344-2.585938-3.898438-2.585938-6.242188v-31.652343h52.96875v31.652343c0 2.34375-.933594 4.589844-2.585938 6.242188zm0 0" fill="#bdc3c7"/><path d="m49 137.902344v-.085938c13.59375-31.25 56.144531-108.316406 127.558594-58.351562 71.417968-49.964844 113.964844 27.101562 127.558594 58.351562 1.148437 3.753906 2.121093 7.679688 2.914062 11.601563 2.074219 11.007812 2.488281 22.261719 1.234375 33.390625-6.882813 61.019531-63.203125 108.519531-131.707031 108.519531-68.5 0-124.820313-47.5-131.707032-108.519531-1.253906-11.128906-.835937-22.382813 1.238282-33.390625.792968-3.921875 1.765625-7.847657 2.910156-11.601563zm0 0" fill="#fdd7ad"/><path d="m176.558594 388.429688c-12.902344 7.203124-24.78125 16.109374-35.308594 26.484374-26.484375-17.65625-52.964844-79.449218-52.964844-79.449218 14.203125-5.082032 29.070313-8.054688 44.136719-8.828125 5.183594 10.203125 11.082031 20.027343 17.65625 29.394531 7.957031 11.484375 16.8125 22.316406 26.480469 32.398438zm0 0" fill="#ecf0f1"/><path d="m264.835938 335.464844s-26.484376 61.792968-52.964844 79.449218c-10.53125-10.375-22.40625-19.28125-35.3125-26.484374 9.671875-10.082032 18.527344-20.914063 26.484375-32.398438 6.574219-9.367188 12.472656-19.191406 17.65625-29.394531 15.0625.773437 29.933593 3.746093 44.136719 8.828125zm0 0" fill="#ecf0f1"/></svg>