<?xml version="1.0" encoding="utf-8"?>
<!-- Generator: Adobe Illustrator 19.2.0, SVG Export Plug-In . SVG Version: 6.00 Build 0)  -->
<svg version="1.0" id="Layer_1" xmlns="http://www.w3.org/2000/svg" xmlns:xlink="http://www.w3.org/1999/xlink" x="0px" y="0px"
	 width="1400px" height="980px" viewBox="0 0 1400 980" enable-background="new 0 0 1400 980" xml:space="preserve">
<rect fill="#FFFAED" width="1400" height="980"/>
<g>
	<g>
		<path fill="#FFE8D4" d="M209,302.3v5.4c0.2,0,0.5,0,0.7,0h22.5c-0.3,0-0.7-0.1-1-0.2C223.4,306.8,215.9,305,209,302.3z"/>
		<path fill="#FFE8D4" d="M246.6,306.3c-2.8,0.5-5.5,0.9-8.4,1.1c-0.3,0.1-0.6,0.2-1,0.2h18.8c0.3,0,0.6,0,0.9,0v-3.8
			C253.6,304.9,250.2,305.8,246.6,306.3z"/>
		<path fill="#FFE8D4" d="M234.8,307.6l-0.2,0c-0.6,0-1.2,0-1.8,0h4.1c-0.6,0-1.2,0-1.8,0L234.8,307.6z"/>
		<path fill="#FFE8D4" d="M154.6,192.1c0,6.7,4.7,12.3,10.9,13.4v-26.8C159.3,179.8,154.6,185.4,154.6,192.1z"/>
		<path fill="#FFE8D4" d="M319.7,194.4c0-7.5-5.9-13.6-13.1-13.6c-0.1,0-0.1,0-0.2,0l0,27.2c0.1,0,0.1,0,0.2,0
			C313.8,208,319.7,201.9,319.7,194.4z"/>
		<path fill="#FFE8D4" d="M184.1,164.3h44.7v13h13.4v-13h44.7v12.3l14.8-2.1v-47.2l0-0.5c0-0.2,0-0.3,0-0.5
			c0-19.7-29.5-35.8-65.8-35.8c-36.3,0-65.8,16-65.8,35.8c0,0.2,0,0.3,0,0.5l0,0.3l0,46.5l13.9,2V164.3z M249,113.4
			c-0.4-0.1-0.8-0.1-1.2-0.2c-0.4-0.1-0.8-0.1-1.3-0.1c-0.8-0.1-1.7-0.2-2.6-0.3c-0.9-0.1-1.7-0.2-2.6-0.2c-1.8,0-3.6-0.3-5.4-0.2
			c-0.9,0-1.8,0-2.7,0c-0.9,0.1-1.8,0.1-2.7,0.2c-1.8,0.1-3.5,0.3-5.2,0.5c-0.9,0.1-1.7,0.3-2.5,0.4c-0.8,0.1-1.6,0.2-2.4,0.4
			c-1.5,0.3-3,0.5-4.4,0.9c-1.4,0.3-2.6,0.6-3.7,0.9c-1.1,0.3-2.1,0.5-2.8,0.8c-0.8,0.2-1.4,0.4-1.8,0.6c-0.4,0.1-0.7,0.2-0.7,0.2
			s0.7-0.7,2.1-1.6c0.7-0.5,1.6-1,2.6-1.6c1-0.6,2.2-1.2,3.5-1.8c1.3-0.6,2.8-1.1,4.3-1.7c0.8-0.3,1.6-0.5,2.4-0.7
			c0.8-0.2,1.7-0.5,2.6-0.7c1.8-0.4,3.6-0.8,5.5-0.9c1-0.1,1.9-0.2,2.9-0.3c1,0,1.9,0,2.9-0.1c1.9-0.1,3.9,0.2,5.8,0.3
			c0.5,0,1,0.1,1.4,0.1c0.5,0.1,0.9,0.2,1.4,0.3c0.9,0.2,1.8,0.4,2.7,0.5c0.9,0.2,1.8,0.4,2.6,0.7c0.8,0.3,1.6,0.5,2.4,0.8
			c1.6,0.5,3,1.2,4.3,1.7c1.3,0.6,2.5,1.1,3.5,1.8c1,0.6,1.9,1.2,2.6,1.6c1.4,0.9,2.2,1.5,2.2,1.5s-0.9-0.2-2.5-0.6
			c-0.8-0.2-1.8-0.5-2.8-0.8c-0.5-0.2-1.1-0.3-1.8-0.4c-0.6-0.1-1.3-0.3-1.9-0.4c-1.4-0.3-2.8-0.7-4.4-0.9
			C250.6,113.7,249.8,113.5,249,113.4z M287.5,157.3c0,0,0.3,3.5-6.2-2.8c0,0-7.1-8.6-26.2-5.2c-4.1,0.7-3.2-2.7-0.4-4.4
			c2.8-1.7,16.6-6.8,30,7.2C287.1,154.7,287.5,157.3,287.5,157.3z M198.8,107.7c1.9-1.3,4.8-3.1,8.4-4.8c1.8-0.8,3.8-1.7,6-2.5
			c2.2-0.8,4.5-1.5,7-2.1c1.2-0.3,2.5-0.6,3.8-0.8c1.3-0.3,2.6-0.4,3.9-0.6c1.3-0.2,2.7-0.3,4-0.4c1.3,0,2.7-0.2,4.1-0.1
			c1.4,0,2.7,0,4.1,0.1l2,0.1c0.7,0.1,1.3,0.2,2,0.2c1.3,0.1,2.6,0.4,3.9,0.6c1.3,0.2,2.5,0.5,3.8,0.8c1.2,0.3,2.4,0.6,3.6,1
			c1.2,0.3,2.3,0.7,3.4,1.1c2.2,0.7,4.2,1.7,6,2.5c1.8,0.9,3.4,1.7,4.8,2.6c1.4,0.9,2.6,1.6,3.5,2.3c1.9,1.4,2.9,2.2,2.9,2.2
			s-1.3-0.5-3.4-1.4c-1-0.5-2.4-0.9-3.9-1.5c-0.7-0.3-1.5-0.6-2.4-0.8c-0.8-0.3-1.7-0.6-2.6-0.9c-1.9-0.5-3.9-1.2-6-1.7
			c-1.1-0.3-2.2-0.6-3.3-0.8c-1.1-0.2-2.3-0.5-3.5-0.7c-2.4-0.4-4.8-0.7-7.3-0.9c-0.6-0.1-1.3-0.1-1.9-0.2l-1.9-0.1
			c-1.3-0.1-2.5-0.1-3.8-0.1c-2.6,0-5.1,0.1-7.6,0.3c-2.5,0.2-5,0.5-7.3,1c-2.4,0.4-4.7,0.9-6.8,1.4c-2.2,0.5-4.2,1.1-6,1.7
			c-1.8,0.6-3.6,1.1-5.1,1.7c-1.5,0.6-2.8,1-3.9,1.5c-2.1,0.9-3.3,1.4-3.3,1.4S196.9,109.1,198.8,107.7z M185.9,153.5
			c12.2-15.1,26.4-11.2,29.3-9.8c2.9,1.5,4.1,4.8,0,4.4c-19.3-1.7-25.6,7.4-25.6,7.4c-6,6.8-6,3.3-6,3.3S183.7,156.1,185.9,153.5z"
			/>
		<path fill="#FFE8D4" d="M248.1,186.8h32.9v-17.2h-32.9V186.8z M264.5,173c2.9,0,5.2,2.3,5.2,5.2c0,2.9-2.3,5.2-5.2,5.2
			c-2.9,0-5.2-2.3-5.2-5.2C259.3,175.3,261.6,173,264.5,173z"/>
		<path fill="#FFE8D4" d="M190,186.8h32.9v-17.2H190V186.8z M206.7,173c2.9,0,5.2,2.3,5.2,5.2c0,2.9-2.3,5.2-5.2,5.2
			c-2.9,0-5.2-2.3-5.2-5.2C201.5,175.3,203.8,173,206.7,173z"/>
		<path fill="#FFE8D4" d="M301.7,179.8l-14.8,2.1v10.1h-44.7v-9.5h-13.4v9.5h-44.7V181l-13.9-2l0,36c1.8-1.9,4.2-3.5,7.1-3.8
			c5.1-0.5,10.2,3,15.3,10.5c0.5,0.7,1.2,1.7,2.1,2.9c6.7,9.2,27,37.1,42.1,37.5c10.3-3.1,24.2-16.1,41.2-38.7
			c0.5-0.7,0.9-1.2,1.3-1.7c5.1-7.5,10.3-11,15.3-10.5c2.9,0.3,5.3,1.9,7.1,3.8V179.8z M261.5,227.1c-0.1,0.2-5.4,18.3-25.6,18.3
			c-20.2,0-26.2-18-26.2-18.2c-0.4-1.2,0.3-2.5,1.5-2.9c1.2-0.4,2.5,0.3,2.9,1.5c0.2,0.6,5.1,15,21.8,15c16.7,0,21-14.3,21.1-14.9
			c0.4-1.2,1.6-1.9,2.9-1.6C261.2,224.6,261.9,225.9,261.5,227.1z"/>
		<path fill="#ECE9E1" d="M232.5,302.8c0.3,0,0.5,0.1,0.7,0.2c0.4,0,0.8,0,1.2,0l0.3,0c0,0,0.1,0,0.1,0c0,0,0.1,0,0.1,0l0.3,0
			c0.4,0,0.8,0,1.2,0c0.2-0.1,0.5-0.1,0.7-0.2c36.3-2.3,64.7-30.1,64.7-63.2v-16.2c-0.7-1.6-3.5-7.1-7.6-7.6c-3.2-0.3-7,2.6-11,8.5
			c0,0-0.1,0.1-0.1,0.1c-0.3,0.4-0.8,1-1.3,1.7c-6.6,8.8-26.8,35.6-43.9,40.5c-0.2,0.1-0.4,0.1-0.6,0.1c-17.5,0-38.4-28.6-46.2-39.4
			c-0.9-1.2-1.6-2.2-2.1-2.8c0,0-0.1-0.1-0.1-0.1c-4-5.9-7.8-8.8-11-8.5c-4.1,0.4-6.9,6-7.6,7.6v16.2
			C170.1,273.3,196.9,300.5,232.5,302.8z"/>
		<path fill="#A13D3F" d="M176.5,341c-39.7,17.4-66.6,51.9-71,91.1h71V341z"/>
		<path fill="#A13D3F" d="M291.1,341.8v90.4h69.3C356.2,393.6,329.9,359.4,291.1,341.8z"/>
		<path fill="#BDC9E2" d="M203.1,315c-1.7,1.7-2.8,4.1-2.8,6.7v6.7c0.8-0.2,1.7-0.4,2.5-0.5L203.1,315z"/>
		<path fill="#BDC9E2" d="M265.5,321.7c0-1.7-0.5-3.4-1.3-4.8L264,328c0.5,0.1,1,0.2,1.5,0.3V321.7z"/>
		<path fill="#BDC9E2" d="M213.1,312.3h-3.4c-0.7,0-1.3,0.1-1.9,0.2l-0.3,14.4c1.8-0.3,3.5-0.6,5.3-0.8L213.1,312.3z"/>
		<path fill="#BDC9E2" d="M251.8,312.3h-4.5l-0.3,13.1c1.5,0.1,3,0.3,4.4,0.5L251.8,312.3z"/>
		<path fill="#BDC9E2" d="M259.6,313c-1-0.4-2-0.6-3.1-0.7l-0.3,14.2c1.1,0.2,2.1,0.3,3.2,0.5L259.6,313z"/>
		<path fill="#BDC9E2" d="M222.8,312.3h-5.1l-0.3,13.2c1.7-0.2,3.4-0.3,5.1-0.4L222.8,312.3z"/>
		<path fill="#BDC9E2" d="M233.5,324.7l0.2-12.4h-6.3l-0.3,12.6c1.9-0.1,3.8-0.1,5.7-0.1C233.2,324.7,233.3,324.7,233.5,324.7z"/>
		<path fill="#BDC9E2" d="M242.7,312.3h-4.3l-0.3,12.5c1.4,0,2.9,0.1,4.3,0.2L242.7,312.3z"/>
		<path fill="#BDC9E2" d="M286.5,339.8c-12.6-5.2-26.2-8.5-40.1-9.8c-0.4,0.4-1,0.7-1.6,0.7c0,0,0,0,0,0c-0.8,0-1.4-0.4-1.8-1
			c-1.7-0.1-3.4-0.2-5.1-0.3c-0.4,0.7-1.2,1.2-2,1.2c0,0,0,0,0,0c-0.9,0-1.7-0.5-2-1.3c-0.2,0-0.5,0-0.7,0c-2.1,0-4.1,0-6.1,0.1
			c-0.4,0.7-1.1,1.2-2,1.2c0,0,0,0,0,0c-0.8,0-1.4-0.4-1.8-1c-2.2,0.2-4.5,0.4-6.7,0.6c-0.3,0.2-0.7,0.3-1.2,0.3c0,0,0,0,0,0
			c-0.2,0-0.4,0-0.6-0.1c-11.5,1.5-22.7,4.4-33.3,8.6v93h105.4V339.8z"/>
		<path fill="#4A2510" d="M203.1,107.1c1.5-0.5,3.2-1.1,5.1-1.7c1.9-0.6,3.9-1.1,6-1.7c2.2-0.5,4.4-1,6.8-1.4c2.4-0.4,4.8-0.7,7.3-1
			c2.5-0.2,5.1-0.4,7.6-0.3c1.3,0,2.6,0,3.8,0.1l1.9,0.1c0.6,0.1,1.3,0.1,1.9,0.2c2.5,0.2,5,0.5,7.3,0.9c1.2,0.2,2.3,0.4,3.5,0.7
			c1.1,0.2,2.2,0.5,3.3,0.8c2.2,0.5,4.2,1.2,6,1.7c0.9,0.3,1.8,0.6,2.6,0.9c0.9,0.3,1.7,0.5,2.4,0.8c1.5,0.6,2.8,1,3.9,1.5
			c2.1,0.9,3.4,1.4,3.4,1.4s-1-0.8-2.9-2.2c-0.9-0.7-2.2-1.4-3.5-2.3c-1.4-0.9-3-1.7-4.8-2.6c-1.8-0.8-3.8-1.8-6-2.5
			c-1.1-0.4-2.2-0.8-3.4-1.1c-1.2-0.4-2.4-0.7-3.6-1c-1.2-0.3-2.5-0.6-3.8-0.8c-1.3-0.2-2.6-0.5-3.9-0.6c-0.7-0.1-1.3-0.2-2-0.2
			l-2-0.1c-1.3-0.1-2.7-0.1-4.1-0.1c-1.4,0-2.7,0.1-4.1,0.1c-1.3,0.1-2.7,0.2-4,0.4c-1.3,0.2-2.6,0.3-3.9,0.6
			c-1.3,0.2-2.5,0.5-3.8,0.8c-2.5,0.6-4.8,1.3-7,2.1c-2.2,0.7-4.2,1.6-6,2.5c-3.6,1.7-6.5,3.5-8.4,4.8c-1.9,1.3-2.9,2.3-2.9,2.3
			s1.2-0.6,3.3-1.4C200.3,108.1,201.6,107.6,203.1,107.1z"/>
		<path fill="#4A2510" d="M257.7,115.1c0.6,0.1,1.2,0.2,1.8,0.4c1.1,0.3,2,0.6,2.8,0.8c1.6,0.4,2.5,0.6,2.5,0.6s-0.8-0.6-2.2-1.5
			c-0.7-0.5-1.5-1-2.6-1.6c-1-0.7-2.2-1.1-3.5-1.8c-1.3-0.6-2.7-1.3-4.3-1.7c-0.8-0.2-1.6-0.5-2.4-0.8c-0.8-0.3-1.7-0.5-2.6-0.7
			c-0.9-0.2-1.8-0.3-2.7-0.5c-0.5-0.1-0.9-0.2-1.4-0.3c-0.5-0.1-0.9-0.1-1.4-0.1c-1.9-0.2-3.8-0.4-5.8-0.3c-1,0-1.9,0-2.9,0.1
			c-1,0.1-1.9,0.2-2.9,0.3c-1.9,0.1-3.8,0.6-5.5,0.9c-0.9,0.2-1.7,0.4-2.6,0.7c-0.8,0.3-1.7,0.4-2.4,0.7c-1.6,0.6-3,1.1-4.3,1.7
			c-1.3,0.6-2.5,1.2-3.5,1.8c-1,0.6-1.9,1.1-2.6,1.6c-1.4,0.9-2.1,1.6-2.1,1.6s0.2-0.1,0.7-0.2c0.4-0.1,1.1-0.3,1.8-0.6
			c0.8-0.2,1.8-0.5,2.8-0.8c1.1-0.3,2.3-0.6,3.7-0.9c1.3-0.3,2.8-0.6,4.4-0.9c0.8-0.2,1.6-0.2,2.4-0.4c0.8-0.1,1.6-0.3,2.5-0.4
			c1.7-0.2,3.4-0.4,5.2-0.5c0.9-0.1,1.8-0.1,2.7-0.2c0.9,0,1.8,0,2.7,0c1.8-0.1,3.6,0.1,5.4,0.2c0.9,0,1.8,0.1,2.6,0.2
			c0.9,0.1,1.7,0.2,2.6,0.3c0.4,0,0.8,0.1,1.3,0.1c0.4,0.1,0.8,0.1,1.2,0.2c0.8,0.1,1.6,0.3,2.4,0.4c1.6,0.2,3,0.6,4.4,0.9
			C256.4,114.9,257.1,115,257.7,115.1z"/>
		<circle fill="#4A2510" cx="206.7" cy="178.2" r="5.2"/>
		<circle fill="#4A2510" cx="264.5" cy="178.2" r="5.2"/>
		<path fill="#4A2510" d="M189.6,155.5c0,0,6.3-9.1,25.6-7.4c4.1,0.4,2.9-2.9,0-4.4c-2.9-1.5-17.1-5.4-29.3,9.8
			c-2.2,2.7-2.3,5.4-2.3,5.4S183.6,162.4,189.6,155.5z"/>
		<path fill="#4A2510" d="M254.7,144.9c-2.8,1.7-3.7,5.1,0.4,4.4c19.1-3.3,26.2,5.2,26.2,5.2c6.5,6.3,6.2,2.8,6.2,2.8
			s-0.4-2.7-2.8-5.2C271.2,138.1,257.5,143.2,254.7,144.9z"/>
		<path fill="#4A2510" d="M235.9,245.4c20.3,0,25.6-18.1,25.6-18.3c0.3-1.2-0.4-2.5-1.6-2.9c-1.2-0.3-2.5,0.4-2.9,1.6
			c-0.2,0.6-4.5,14.9-21.1,14.9c-16.7,0-21.6-14.4-21.8-15c-0.4-1.2-1.7-1.9-2.9-1.5c-1.2,0.4-1.9,1.7-1.5,2.9
			C209.8,227.4,215.7,245.4,235.9,245.4z"/>
		<path fill="#4A2510" d="M364.9,429.9c-0.1-1.1-0.3-2.2-0.5-3.4c0-0.1,0-0.1,0-0.2c-0.2-1.4-0.5-2.9-0.8-4.3
			c-0.1-0.6-0.3-1.2-0.4-1.8c-0.2-0.8-0.4-1.6-0.6-2.3c-0.2-0.8-0.4-1.5-0.6-2.3c-0.1-0.3-0.2-0.7-0.3-1c-0.6-2-1.2-4.1-1.9-6.1
			c0,0,0-0.1,0-0.1c-5.9-17.2-16.2-33-30.2-46.3c-0.2-0.2-0.4-0.4-0.7-0.6c-0.8-0.8-1.6-1.5-2.4-2.2c-0.2-0.2-0.4-0.4-0.7-0.6
			c-0.9-0.8-1.7-1.5-2.6-2.3c-6.9-5.8-14.5-10.8-22.5-15.1c-0.1-0.1-0.2-0.1-0.3-0.2c-1.1-0.6-2.1-1.1-3.2-1.6
			c-0.2-0.1-0.3-0.2-0.5-0.2c-1-0.5-2-1-3-1.5c-0.2-0.1-0.4-0.2-0.7-0.3c-1-0.4-1.9-0.9-2.9-1.3c-0.1-0.1-0.3-0.1-0.4-0.2
			c0,0,0,0-0.1,0c-6.3-2.7-12.8-4.9-19.5-6.6v-7.8c0-5.8-3.5-10.8-8.5-12.9v-6.5c7.4-2.9,14.2-7.1,20.2-12.2
			c0.5-0.4,0.9-0.8,1.4-1.2c0,0,0,0,0,0c14.2-12.4,23.1-30,23.1-49.2v-16.7c0,0,0,0,0,0l0-10.2c0.1,0,0.1,0,0.2,0
			c9.8,0,17.8-8.2,17.8-18.3c0-10.1-8-18.3-17.8-18.3c-0.1,0-0.1,0-0.2,0l0-48.9l0-0.3c0-0.3,0-0.5,0-0.8c0-11-7.5-21.3-21.1-29
			c-13.2-7.4-30.7-11.4-49.3-11.4s-36.1,4.1-49.3,11.4c-13.6,7.6-21.1,17.9-21.1,29c0,0.3,0,0.5,0,0.8l0,0.2V174
			c-8.7,1.2-15.5,8.8-15.5,18.1c0,9.3,6.8,16.9,15.5,18.1v12.7v13.7v2.9c0,26.6,15.5,49.5,38.9,60.6v8.4c-5.1,2.1-8.7,7.1-8.7,13
			v7.8c-6.1,1.6-12,3.6-17.7,5.9c0,0,0,0,0,0c-0.1,0.1-0.3,0.1-0.4,0.2c-1.1,0.5-2.2,0.9-3.3,1.4c-0.2,0.1-0.4,0.2-0.5,0.2
			c-1.2,0.5-2.4,1.1-3.6,1.7c-0.2,0.1-0.4,0.2-0.7,0.3c-1,0.5-1.9,0.9-2.8,1.4c-0.3,0.2-0.7,0.3-1,0.5c-1.1,0.6-2.1,1.1-3.2,1.7
			c-0.4,0.2-0.8,0.5-1.2,0.7c-0.6,0.4-1.3,0.8-1.9,1.1c-0.5,0.3-1.1,0.7-1.6,1c-0.4,0.3-0.9,0.5-1.3,0.8c-1.3,0.8-2.5,1.6-3.7,2.4
			c-0.1,0.1-0.3,0.2-0.4,0.3c-0.8,0.5-1.5,1.1-2.3,1.6c-0.1,0.1-0.2,0.2-0.3,0.2c-5.6,4-10.8,8.4-15.5,13.2
			c-0.2,0.2-0.3,0.3-0.5,0.5c-0.9,0.9-1.8,1.9-2.7,2.8c-0.4,0.4-0.7,0.8-1.1,1.2c-0.4,0.4-0.7,0.8-1.1,1.2c-0.5,0.6-1,1.1-1.4,1.7
			c-0.3,0.3-0.5,0.6-0.8,1c-0.8,0.9-1.5,1.9-2.3,2.8c0,0,0,0,0,0c-0.8,1-1.6,2.1-2.3,3.1c-0.1,0.1-0.1,0.2-0.2,0.2
			c-8.8,12.1-15,25.5-18.4,39.6c0,0,0,0.1,0,0.1c-0.3,1.2-0.5,2.4-0.8,3.5c0,0.2-0.1,0.3-0.1,0.5c-0.2,1.2-0.5,2.5-0.7,3.7
			c0,0.1,0,0.2,0,0.3c-0.2,1.1-0.3,2.2-0.5,3.3c0,0.3-0.1,0.6-0.1,0.9c-0.1,1.2-0.3,2.4-0.4,3.6c-0.1,0.6,0.2,1.3,0.6,1.8
			c0.4,0.5,1.1,0.8,1.7,0.8h75.9h110H363c0.7,0,1.3-0.3,1.7-0.8c0.4-0.5,0.7-1.1,0.6-1.8c-0.1-1.2-0.2-2.4-0.4-3.6
			C364.9,430.4,364.9,430.1,364.9,429.9z M176.5,432.1h-71c4.4-39.2,31.2-73.7,71-91.1V432.1z M265.5,328.3c-0.5-0.1-1-0.2-1.5-0.3
			l0.2-11.1c0.8,1.4,1.3,3,1.3,4.8V328.3z M233,324.7c-1.9,0-3.8,0-5.7,0.1l0.3-12.6h6.3l-0.2,12.4
			C233.3,324.7,233.2,324.7,233,324.7z M207.8,312.5c0.6-0.1,1.3-0.2,1.9-0.2h3.4l-0.3,13.8c-1.8,0.2-3.5,0.5-5.3,0.8L207.8,312.5z
			 M217.7,312.3h5.1l-0.3,12.8c-1.7,0.1-3.4,0.3-5.1,0.4L217.7,312.3z M232.7,307.6c0.6,0,1.2,0,1.8,0l0.2,0l0.2,0
			c0.6,0,1.2,0,1.8,0H232.7z M238.4,312.3h4.3l-0.3,12.7c-1.4-0.1-2.9-0.2-4.3-0.2L238.4,312.3z M247.4,312.3h4.5l-0.3,13.6
			c-1.5-0.2-3-0.3-4.4-0.5L247.4,312.3z M256.5,312.3c1.1,0,2.2,0.3,3.1,0.7l-0.3,14.1c-1-0.2-2.1-0.4-3.2-0.5L256.5,312.3z
			 M257,303.9v3.8c-0.3,0-0.6,0-0.9,0h-18.8c0.3,0,0.7-0.1,1-0.2c2.9-0.2,5.7-0.6,8.4-1.1C250.2,305.8,253.6,304.9,257,303.9z
			 M306.6,180.8c7.2,0,13.1,6.1,13.1,13.6s-5.9,13.6-13.1,13.6c-0.1,0-0.1,0-0.2,0l0-27.2C306.4,180.8,306.5,180.8,306.6,180.8z
			 M235.9,90.4c36.3,0,65.8,16,65.8,35.8c0,0.2,0,0.3,0,0.5l0,0.5v47.2l-14.8,2.1v-12.3h-44.7v13h-13.4v-13h-44.7v11.3l-13.9-2
			l0-46.5l0-0.3c0-0.2,0-0.3,0-0.5C170.1,106.5,199.6,90.4,235.9,90.4z M280.9,169.6v17.2h-32.9v-17.2H280.9z M222.9,169.6v17.2H190
			v-17.2H222.9z M154.6,192.1c0-6.7,4.7-12.3,10.9-13.4v26.8C159.3,204.4,154.6,198.8,154.6,192.1z M170.1,179l13.9,2v11.1h44.7
			v-9.5h13.4v9.5h44.7V182l14.8-2.1v35.2c-1.8-1.9-4.2-3.5-7.1-3.8c-5.1-0.5-10.2,3-15.3,10.5c-0.3,0.4-0.8,1-1.3,1.7
			c-17,22.6-30.9,35.6-41.2,38.7c-15.1-0.4-35.4-28.3-42.1-37.5c-0.9-1.2-1.6-2.2-2.1-2.9c-5.1-7.5-10.3-11-15.3-10.5
			c-2.9,0.3-5.3,1.9-7.1,3.8L170.1,179z M170.1,239.6v-16.2c0.7-1.6,3.5-7.1,7.6-7.6c3.2-0.3,7,2.6,11,8.5c0,0,0.1,0.1,0.1,0.1
			c0.5,0.7,1.2,1.6,2.1,2.8c7.9,10.8,28.7,39.4,46.2,39.4c0.2,0,0.4,0,0.6-0.1c17.1-4.9,37.3-31.7,43.9-40.5
			c0.5-0.7,0.9-1.2,1.3-1.7c0,0,0.1-0.1,0.1-0.1c4-5.9,7.8-8.8,11-8.5c4.1,0.4,6.9,6,7.6,7.6v16.2c0,33.1-28.4,60.9-64.7,63.2
			c-0.2,0-0.5,0.1-0.7,0.2c-0.4,0-0.8,0-1.2,0l-0.3,0c0,0-0.1,0-0.1,0c0,0-0.1,0-0.1,0l-0.3,0c-0.4,0-0.8,0-1.2,0
			c-0.2-0.1-0.5-0.1-0.7-0.2C196.9,300.5,170.1,273.3,170.1,239.6z M209,302.3c6.9,2.7,14.4,4.5,22.3,5.1c0.3,0.1,0.6,0.2,1,0.2
			h-22.5c-0.2,0-0.5,0-0.7,0V302.3z M200.3,321.7c0-2.6,1.1-5,2.8-6.7l-0.3,12.8c-0.8,0.2-1.7,0.4-2.5,0.5V321.7z M181.1,339.1
			c10.6-4.2,21.8-7.1,33.3-8.6c0.2,0.1,0.4,0.1,0.6,0.1c0,0,0,0,0,0c0.4,0,0.8-0.1,1.2-0.3c2.2-0.3,4.5-0.5,6.7-0.6
			c0.4,0.6,1.1,0.9,1.8,1c0,0,0,0,0,0c0.9,0,1.6-0.5,2-1.2c2-0.1,4.1-0.1,6.1-0.1c0.2,0,0.5,0,0.7,0c0.4,0.7,1.1,1.3,2,1.3
			c0,0,0,0,0,0c0.9,0,1.6-0.5,2-1.2c1.7,0.1,3.4,0.1,5.1,0.3c0.4,0.6,1.1,0.9,1.8,1c0,0,0,0,0,0c0.6,0,1.2-0.3,1.6-0.7
			c14,1.3,27.5,4.6,40.1,9.8v92.4H181.1V339.1z M291.1,432.1v-90.4c38.8,17.6,65,51.8,69.3,90.4H291.1z"/>
	</g>
	<g>
		<path fill="none" d="M514.5,303.1c-6.3-2.8-12.1-6.6-17.2-11c-0.1,1.4-0.4,2.8-0.9,4.1c2,2,8.6,7.9,18.1,13V303.1z"/>
		<path fill="none" d="M571.8,309.4c6.2-3.3,12.2-7.8,18.1-13.3c-0.4-1.2-0.7-2.4-0.8-3.7c-5.2,4.4-11,8.1-17.3,10.9V309.4z"/>
		<path fill="#D4D4D4" d="M472.9,211.3c-9.3-0.6-16.7-8.5-16.7-18.2c0-9.7,7.4-17.7,16.7-18.2V174l0-44.8c0-0.3,0-0.5,0-0.8
			c0-11,7.5-21.3,21.1-29c13.2-7.4,30.7-11.4,49.3-11.4s36.1,4.1,49.3,11.4c13.6,7.6,21.1,17.9,21.1,29c0,0.3,0,0.5,0,0.8l0,0.3
			v47.8c9.3,0.6,16.8,8.5,16.8,18.2c0,9.7-7.4,17.7-16.8,18.2l0,25.2c0,19.1-7.7,36.4-20,49.1c-0.1,0.7-0.2,1.5-0.2,2.2
			c0,8,6.5,14.4,14.4,14.4c7.4,0,13.5-5.5,14.3-12.8c0.1-0.8,0.6-1.5,1.3-1.8c0.7-0.3,1.6-0.3,2.2,0.1c2.3,1.5,5,2.2,7.7,2.2
			c6,0,11.3-3.6,13.5-9.3c0.3-0.7,0.8-1.2,1.5-1.4c0.7-0.2,1.4-0.1,2,0.4c2.5,1.8,5.5,2.8,8.5,2.8c8,0,14.4-6.5,14.4-14.4
			c0-3-1-6-2.8-8.5c-0.4-0.5-0.5-1.2-0.4-1.8c0.1-0.6,0.5-1.2,1-1.5c4-2.7,6.4-7.2,6.4-12c0-7.7-6.1-14.1-13.8-14.4
			c-0.8,0-1.5-0.5-1.9-1.1c-0.4-0.7-0.4-1.5-0.1-2.2c1-2,1.5-4.1,1.5-6.3c0-8-6.5-14.4-14.4-14.4c-0.4,0-0.9,0-1.4,0.1
			c-1.2,0.1-2.4-0.8-2.5-2l-1.8-14l-2.6-15.4c-5.3-38.4-21.1-66.5-47.1-83.4c-20.7-13.5-42-15.8-50.2-16.2c-0.2,0-0.3,0-0.5-0.1
			c-0.3,0-0.8,0-1.3,0c-0.5,0-0.9,0-1.1,0c-0.1,0-0.3,0.1-0.4,0.1c-7.9,0.4-28.4,2.8-48.4,16.3c-25.1,16.9-40.4,44.9-45.7,83.2
			l-2.6,15.6l-1.8,13.9c-0.2,1.2-1.3,2.1-2.5,2c-0.5,0-1-0.1-1.4-0.1c-8,0-14.4,6.5-14.4,14.4c0,2.2,0.5,4.3,1.5,6.3
			c0.3,0.7,0.3,1.5-0.1,2.2c-0.4,0.7-1.1,1.1-1.9,1.1c-7.7,0.3-13.8,6.7-13.8,14.4c0,4.8,2.4,9.3,6.4,12c0.5,0.4,0.9,0.9,1,1.5
			c0.1,0.6,0,1.3-0.4,1.8c-1.8,2.5-2.8,5.4-2.8,8.5c0,8,6.5,14.4,14.4,14.4c3.1,0,6-1,8.5-2.8c0.6-0.4,1.3-0.6,2-0.4
			c0.7,0.2,1.3,0.7,1.5,1.4c2.2,5.6,7.5,9.3,13.5,9.3c2.7,0,5.4-0.8,7.7-2.2c0.7-0.4,1.5-0.5,2.2-0.1c0.7,0.3,1.2,1,1.3,1.8
			c0.8,7.3,7,12.8,14.3,12.8c8,0,14.4-6.5,14.4-14.4c0-0.9-0.1-1.8-0.3-2.7c-12.1-12.6-19.5-29.8-19.5-48.6V211.3z"/>
		<path fill="#FFE8D4" d="M543.4,309.3c-8.5,0-16.6-1.5-24.2-4.3v6.3c6.7,3,14.6,5.2,23.2,5.4c8.4,0.2,16.6-1.5,24.7-5.1v-6.5
			C559.7,307.8,551.7,309.3,543.4,309.3z"/>
		<path fill="#FFE8D4" d="M460.8,193.1c0,7.2,5.3,13,12.1,13.6v-27.1C466.2,180.1,460.8,186,460.8,193.1z"/>
		<path fill="#FFE8D4" d="M625.9,195.4c0-7.2-5.3-13-12.1-13.6l0,27.1C620.5,208.5,625.9,202.6,625.9,195.4z"/>
		<path fill="#FFE8D4" d="M523,172.8c2.9,1.5,4.1,4.8,0,4.4c-12.3-1.1-19.3,2.2-22.8,4.8h34.7c1.3,0,2.3,1,2.3,2.3v4.7h10.3v-4.7
			c0-1.3,1-2.3,2.3-2.3h39.5c-0.1-0.1-0.2-0.2-0.3-0.3c0,0-7.1-8.6-26.2-5.2c-4.1,0.7-3.2-2.7-0.4-4.4c2.8-1.7,16.6-6.8,30,7.2
			c0.9,0.9,1.5,1.9,1.9,2.7l13.4-3.8c-6.5-9.4-10.3-35.7-12-49.5c-10,16.8-31.9,29.8-65.4,38.6c-6.2,1.6-12.3,3-18,4.1
			C517.6,170.8,521.6,172.1,523,172.8z"/>
		<path fill="#FFE8D4" d="M490,182.3c0.4-0.2,0.8-0.4,1.2-0.4h3c4.9-5.9,10.1-8.7,14.8-9.9c-14.7,2.7-26.7,3.8-31.4,4.1v2.6
			L490,182.3z"/>
		<path fill="#FFE8D4" d="M595.9,188.7v21.5c0,13.3-10.8,24.2-24.2,24.2s-24.2-10.8-24.2-24.2v-14.4h-10.3v14.4
			c0,13.3-10.8,24.2-24.2,24.2s-24.2-10.8-24.2-24.2v-21.1l-11.4-3.2l0,53c0,36.3,29.5,65.8,65.8,65.8s65.8-29.5,65.8-65.8v-53.9
			L595.9,188.7z M519,251.1c1.2-0.4,2.5,0.3,2.9,1.5c0.2,0.6,5.1,15,21.8,15c7,0,12.7-2.5,16.9-7.5c3.1-3.7,4.2-7.4,4.2-7.4
			c0.3-1.2,1.6-2,2.9-1.6c1.2,0.3,2,1.6,1.6,2.9c-0.1,0.2-5.4,18.3-25.6,18.3c-20.2,0-26.2-18-26.2-18.2
			C517.1,252.8,517.7,251.5,519,251.1z"/>
		<path fill="#7F8B4B" d="M422.4,432.3h128.1v-58.6c-0.1,0-0.1,0-0.2,0c-0.6,0.1-1.3,0.1-1.9,0.2c-0.7,0.1-1.5,0.1-2.2,0.2
			c-0.3,0-0.6,0-1,0.1c-1,0-2,0.1-2.9,0.1c-0.1,0-0.2,0-0.2,0c-0.1,0-0.1,0-0.2,0c-19.4,0-37.1-8.2-52.8-24.5
			c-0.1-0.1-0.2-0.2-0.3-0.3c-1-1-1.9-2-2.8-3.1c-0.2-0.2-0.3-0.4-0.5-0.5c-0.2-0.2-0.3-0.4-0.5-0.5c-8,4.2-15.5,9.2-22.4,14.9
			C439.6,379.2,425.4,404.8,422.4,432.3z"/>
		<path fill="#7F8B4B" d="M637.2,360.2c-8-6.7-16.9-12.3-26.4-16.9c-1.3,1.2-3,2.7-5.2,4.5v84.5h71.7
			C674.3,404.8,660.1,379.2,637.2,360.2z"/>
		<path fill="#ECE9E1" d="M543.4,92.6c-36.3,0-65.8,16-65.8,35.8c0,0.2,0,0.3,0,0.5l0,0.4l0,42.2c15.8-1.3,102.5-10.1,117.5-52
			c0.4-1,1.4-1.7,2.5-1.5c1.1,0.1,1.9,1,2,2.1c2,21.6,5.7,40.9,9.5,50.6v-41.4c0,0,0-0.1,0-0.1l0-0.4c0-0.2,0-0.3,0-0.5
			C609.2,108.7,579.7,92.6,543.4,92.6z"/>
		<path fill="#FFE8D4" d="M513.1,229.8c10.8,0,19.5-8.8,19.5-19.5v-23.6h-39v23.6C493.6,221,502.3,229.8,513.1,229.8z M514.5,193.4
			c2.9,0,5.2,2.3,5.2,5.2c0,2.9-2.3,5.2-5.2,5.2c-2.9,0-5.2-2.3-5.2-5.2C509.2,195.8,511.6,193.4,514.5,193.4z"/>
		<path fill="#FFE8D4" d="M552.2,210.2c0,10.8,8.8,19.5,19.5,19.5s19.5-8.8,19.5-19.5v-23.6h-39V210.2z M572.3,193.4
			c2.9,0,5.2,2.3,5.2,5.2c0,2.9-2.3,5.2-5.2,5.2c-2.9,0-5.2-2.3-5.2-5.2C567,195.8,569.4,193.4,572.3,193.4z"/>
		<polygon fill="#4A2510" points="549.9,189 547.5,189 537.3,189 534.9,189 534.9,195.8 537.3,195.8 547.5,195.8 549.9,195.8 		"/>
		<polygon fill="#4A2510" points="488.9,189.1 492.4,190.1 494.3,183.5 490,182.3 477.6,178.8 476.4,178.5 474.6,185 477.6,185.9 		
			"/>
		<polygon fill="#4A2510" points="610.4,177.5 607.8,178.2 594.4,182 594.2,182.1 592.6,182.5 594.4,189.1 595.9,188.7 609.1,184.9 
			612.3,184.1 611.5,181.2 		"/>
		<path fill="#BDC9E2" d="M591.5,300.9c-10.7,9.7-21.8,16-33.3,18.8c-5.2,1.3-10.5,1.9-15.9,1.7c-22.6-0.6-39.8-13.6-46.6-19.7
			c-1.3,7-4.1,21.9-8.7,38.8c18.7,22.6,40.8,32.1,65.4,28.3c0.1,0,0.2,0,0.4,0c0.6,0,1.1,0.2,1.5,0.5c0.5,0.4,0.8,1.1,0.8,1.8v59.7
			H601v-84.1c0-0.7,0.3-1.4,0.9-1.8c0.5-0.4,1-0.8,1.5-1.2c2.5-2.1,4.3-3.8,5.4-4.8C606.3,333.4,597.7,313.7,591.5,300.9z"/>
		<path fill="#4A2510" d="M682.4,246.7c0-9.2-6.4-16.8-15.1-18.7c0.5-1.8,0.8-3.6,0.8-5.4c0-10.4-8.3-18.9-18.7-19.1l-1.6-12
			l-2.6-15.4c-5.4-39.8-22-68.9-49.2-86.6c-21.2-13.8-43-16.4-52-16.9c-0.2-0.1-0.4-0.1-0.6-0.1c0,0-0.8,0-2.1,0c-1.1,0-1.7,0-1.7,0
			c-0.2,0-0.4,0-0.6,0.1c-8.6,0.5-29.7,3.2-50.3,17.1c-26.2,17.7-42.2,46.8-47.7,86.4l-2.6,15.6l-1.6,11.9
			c-10.3,0.2-18.7,8.7-18.7,19.1c0,1.9,0.3,3.7,0.8,5.4c-8.7,1.8-15.1,9.5-15.1,18.7c0,5.6,2.5,10.9,6.7,14.5
			c-1.6,2.8-2.4,6-2.4,9.3c0,10.5,8.6,19.1,19.1,19.1c3.1,0,6.2-0.8,8.9-2.2c3.3,5.9,9.7,9.7,16.6,9.7c2.5,0,4.9-0.5,7.2-1.4
			c2.3,8,9.7,13.7,18.3,13.7c4.5,0,8.7-1.6,11.9-4.2c-1.5,8-4.2,21-8.1,35.4c0,0.2-0.1,0.4-0.1,0.5c0,0.2,0,0.3,0,0.5c0,0,0,0,0,0
			c-8,4.3-15.6,9.3-22.6,15.1c-24.6,20.4-39.5,48-42.1,77.8c-0.1,0.6,0.2,1.3,0.6,1.8c0.4,0.5,1.1,0.8,1.7,0.8h260.1
			c0.7,0,1.3-0.3,1.7-0.8c0.4-0.5,0.7-1.1,0.6-1.8c-2.6-29.8-17.5-57.4-42.1-77.8c-8.1-6.7-16.9-12.4-26.4-17c0-0.1,0-0.3,0-0.4
			c0,0,0,0,0,0c0-0.2-0.1-0.5-0.2-0.7c-0.1-0.2-7.3-16.8-13.9-31.1c2.5,1.2,5.3,1.9,8.2,1.9c8.6,0,16-5.7,18.3-13.7
			c2.3,0.9,4.7,1.4,7.2,1.4c6.9,0,13.3-3.8,16.6-9.7c2.7,1.5,5.8,2.2,8.9,2.2c10.5,0,19.1-8.6,19.1-19.1c0-3.3-0.8-6.4-2.4-9.3
			C679.9,257.5,682.4,252.3,682.4,246.7z M477.5,128.4c0-19.7,29.5-35.8,65.8-35.8s65.8,16,65.8,35.8c0,0.2,0,0.3,0,0.5l0,0.4
			c0,0,0,0.1,0,0.1v41.4c-3.8-9.8-7.6-29-9.5-50.6c-0.1-1.1-0.9-2-2-2.1c-1.1-0.1-2.1,0.5-2.5,1.5c-15,41.9-101.7,50.7-117.5,52
			l0-42.2l0-0.4C477.6,128.7,477.5,128.6,477.5,128.4z M476.4,178.5l1.2,0.3v-2.6c4.7-0.4,16.7-1.5,31.4-4.1
			c-4.6,1.2-9.8,4.1-14.8,9.9h-3c-0.5,0-0.9,0.1-1.2,0.4l4.2,1.2l-1.9,6.6l-3.5-1v21.1c0,13.3,10.8,24.2,24.2,24.2
			s24.2-10.8,24.2-24.2v-14.4h-2.3V189h2.3v-4.7c0-1.3-1-2.3-2.3-2.3h-34.7c3.5-2.5,10.5-5.9,22.8-4.8c4.1,0.4,2.9-2.9,0-4.4
			c-1.4-0.7-5.5-2-10.6-1.4c5.8-1.1,11.8-2.4,18-4.1c33.5-8.8,55.4-21.7,65.4-38.6c1.6,13.8,5.4,40,12,49.5l2.6-0.7l1,3.7l0.8,2.9
			l-3.1,0.9v53.9c0,36.3-29.5,65.8-65.8,65.8s-65.8-29.5-65.8-65.8l0-53l-3-0.9L476.4,178.5z M532.6,186.6v23.6
			c0,10.8-8.8,19.5-19.5,19.5s-19.5-8.8-19.5-19.5v-23.6H532.6z M625.9,195.4c0,7.2-5.3,13-12.1,13.6l0-27.1
			C620.5,182.4,625.9,188.3,625.9,195.4z M589.8,296.1c-5.9,5.5-11.9,10-18.1,13.3v-6.1c6.3-2.8,12.1-6.5,17.3-10.9
			C589.2,293.7,589.4,294.9,589.8,296.1z M519.2,305c7.5,2.8,15.7,4.3,24.2,4.3c8.3,0,16.3-1.5,23.8-4.1v6.5
			c-8.1,3.6-16.3,5.3-24.7,5.1c-8.6-0.2-16.5-2.5-23.2-5.4V305z M514.5,303.1v6c-9.5-5-16-11-18.1-13c0.4-1.3,0.7-2.7,0.9-4.1
			C502.5,296.5,508.2,300.3,514.5,303.1z M462.5,360.2c6.9-5.7,14.4-10.7,22.4-14.9c0.2,0.2,0.3,0.4,0.5,0.5
			c0.2,0.2,0.3,0.4,0.5,0.5c0.9,1.1,1.9,2.1,2.8,3.1c0.1,0.1,0.2,0.2,0.3,0.3c15.6,16.3,33.3,24.5,52.8,24.5c0.1,0,0.1,0,0.2,0
			c0.1,0,0.2,0,0.2,0c1,0,2,0,2.9-0.1c0.3,0,0.7,0,1-0.1c0.7,0,1.5-0.1,2.2-0.2c0.6-0.1,1.3-0.1,1.9-0.2c0.1,0,0.1,0,0.2,0v58.6
			H422.4C425.4,404.8,439.6,379.2,462.5,360.2z M677.3,432.3h-71.7v-84.5c2.2-1.8,3.9-3.4,5.2-4.5c9.5,4.6,18.3,10.2,26.4,16.9
			C660.1,379.2,674.3,404.8,677.3,432.3z M608.7,338.8c-1.1,1-2.9,2.7-5.4,4.8c-0.5,0.4-1,0.8-1.5,1.2c-0.5,0.4-0.9,1.1-0.9,1.8
			v84.1h-45.9v-59.7c0-0.7-0.3-1.3-0.8-1.8c-0.4-0.4-1-0.5-1.5-0.5c-0.1,0-0.2,0-0.4,0c-24.7,3.8-46.7-5.7-65.4-28.3
			c4.5-16.9,7.4-31.7,8.7-38.8c6.9,6.1,24.1,19.1,46.6,19.7c5.4,0.1,10.7-0.4,15.9-1.7c11.5-2.8,22.7-9.1,33.3-18.8
			C597.7,313.7,606.3,333.4,608.7,338.8z M671.3,258.7c-0.5,0.4-0.9,0.9-1,1.5c-0.1,0.6,0,1.3,0.4,1.8c1.8,2.5,2.8,5.4,2.8,8.5
			c0,8-6.5,14.4-14.4,14.4c-3.1,0-6-1-8.5-2.8c-0.6-0.4-1.3-0.6-2-0.4c-0.7,0.2-1.3,0.7-1.5,1.4c-2.2,5.6-7.4,9.3-13.5,9.3
			c-2.7,0-5.4-0.8-7.7-2.2c-0.7-0.4-1.5-0.5-2.2-0.1c-0.7,0.3-1.2,1-1.3,1.8c-0.8,7.3-7,12.8-14.3,12.8c-8,0-14.4-6.5-14.4-14.4
			c0-0.7,0.1-1.5,0.2-2.2c12.4-12.7,20-30,20-49.1l0-25.2c9.3-0.6,16.8-8.5,16.8-18.2c0-9.7-7.4-17.7-16.8-18.2v-47.8l0-0.3
			c0-0.3,0-0.5,0-0.8c0-11-7.5-21.3-21.1-29C579.5,92.1,561.9,88,543.4,88s-36.1,4.1-49.3,11.4c-13.6,7.6-21.1,17.9-21.1,29
			c0,0.3,0,0.5,0,0.8l0,44.8v0.9c-9.3,0.6-16.7,8.5-16.7,18.2c0,9.7,7.4,17.7,16.7,18.2v27.5c0,18.8,7.4,36,19.5,48.6
			c0.2,0.9,0.3,1.8,0.3,2.7c0,8-6.5,14.4-14.4,14.4c-7.4,0-13.5-5.5-14.3-12.8c-0.1-0.8-0.6-1.5-1.3-1.8c-0.7-0.3-1.6-0.3-2.2,0.1
			c-2.3,1.5-5,2.2-7.7,2.2c-6,0-11.3-3.6-13.5-9.3c-0.3-0.7-0.8-1.2-1.5-1.4c-0.7-0.2-1.4-0.1-2,0.4c-2.5,1.8-5.5,2.8-8.5,2.8
			c-8,0-14.4-6.5-14.4-14.4c0-3.1,1-6,2.8-8.5c0.4-0.5,0.5-1.2,0.4-1.8c-0.1-0.6-0.5-1.2-1-1.5c-4-2.7-6.4-7.2-6.4-12
			c0-7.7,6.1-14.1,13.8-14.4c0.8,0,1.5-0.5,1.9-1.1c0.4-0.7,0.4-1.5,0.1-2.2c-1-2-1.5-4.1-1.5-6.3c0-8,6.5-14.4,14.4-14.4
			c0.4,0,0.9,0,1.4,0.1c1.2,0.1,2.4-0.8,2.5-2l1.8-13.9l2.6-15.6c5.2-38.3,20.6-66.3,45.7-83.2c20-13.5,40.5-15.9,48.4-16.3
			c0.1,0,0.3,0,0.4-0.1c0.3,0,0.6,0,1.1,0c0.6,0,1,0,1.3,0c0.2,0,0.3,0.1,0.5,0.1c8.2,0.4,29.5,2.7,50.2,16.2
			c26,16.9,41.9,45,47.1,83.4l2.6,15.4l1.8,14c0.2,1.2,1.3,2.1,2.5,2c0.5,0,1-0.1,1.4-0.1c8,0,14.4,6.5,14.4,14.4
			c0,2.2-0.5,4.3-1.5,6.3c-0.3,0.7-0.3,1.5,0.1,2.2c0.4,0.7,1.1,1.1,1.9,1.1c7.7,0.3,13.8,6.7,13.8,14.4
			C677.7,251.5,675.3,256,671.3,258.7z M472.9,179.6v27.1c-6.8-0.5-12.1-6.4-12.1-13.6S466.2,180.1,472.9,179.6z"/>
		<path fill="#4A2510" d="M543.7,272.2c20.3,0,25.6-18.1,25.6-18.3c0.3-1.2-0.4-2.5-1.6-2.9c-1.2-0.3-2.5,0.4-2.9,1.6
			c0,0-1.1,3.7-4.2,7.4c-4.2,5-9.9,7.5-16.9,7.5c-16.7,0-21.6-14.4-21.8-15c-0.4-1.2-1.7-1.9-2.9-1.5c-1.2,0.4-1.9,1.7-1.5,2.9
			C517.5,254.2,523.5,272.2,543.7,272.2z"/>
		<path fill="#4A2510" d="M571.7,234.4c13.3,0,24.2-10.8,24.2-24.2v-21.5l-1.4,0.4l-1.9-6.6l1.7-0.5l0.2-0.1c-0.4-0.8-1-1.8-1.9-2.7
			c-13.4-14-27.2-8.9-30-7.2c-2.8,1.7-3.7,5.1,0.4,4.4c19.1-3.3,26.2,5.2,26.2,5.2c0.1,0.1,0.2,0.2,0.3,0.3h-39.5
			c-1.3,0-2.3,1-2.3,2.3v4.7h2.3v6.8h-2.3v14.4C547.5,223.6,558.4,234.4,571.7,234.4z M552.2,186.6h39v23.6
			c0,10.8-8.8,19.5-19.5,19.5s-19.5-8.8-19.5-19.5V186.6z"/>
		<circle fill="#4A2510" cx="514.5" cy="198.6" r="5.2"/>
		<circle fill="#4A2510" cx="572.3" cy="198.6" r="5.2"/>
	</g>
	<g>
		<path fill="#604A36" d="M947,209.8c4.7-47.6-4-83-25.6-105.1c-26.2-26.7-62.6-24.3-63-24.3c-0.1,0-0.2,0-0.3,0
			c-0.4,0-36.9-2.4-63,24.3c-21.6,22.1-30.2,57.5-25.6,105.1c0,0.1,0,0.2,0,0.2c0,14.1,2.3,88.1,4.1,144.7
			c12.7-9.8,27.5-17.5,44-22.5c0.5-0.2,1.1-0.1,1.6,0.1c2.7-2.5,6.2-4.8,10.5-6.7V308c-24.6-11-41.8-35.7-41.8-64.3v-32.7
			c-9.3-0.6-16.8-8.5-16.8-18.2c0-9.3,6.8-17,15.5-18.1l1.2-40.5l0-0.2c0-0.3,0-0.5,0-0.8c0-11,7.5-21.3,21.1-29
			c13.2-7.4,30.7-11.4,49.3-11.4h0c0,0,0,0,0,0c18.6,0,36.1,4.1,49.3,11.4c13.6,7.6,21.1,17.9,21.1,29c0,0.3,0,0.5,0,0.8l0,0.3
			l1.2,42.7c8.7,1.1,15.5,8.8,15.5,18.1c0,9.7-7.4,17.7-16.7,18.2l0,30.4c0,28.6-17.2,53.3-41.8,64.3v16.2c6.1,2.2,10.9,5,14.4,8.3
			c0.5-0.2,1.1-0.3,1.6-0.1c14.9,4.5,28.4,11.2,40.2,19.6c1.8-56.2,4-128,4-141.9C946.9,209.9,946.9,209.9,947,209.8z"/>
		<path fill="#FFE8D4" d="M882.2,325.8v-15.9c-7.5,2.7-15.6,4.2-24,4.2c-8.4,0-16.5-1.5-24-4.2v17.4c0,0.9-0.6,1.8-1.4,2.2
			c-4.7,1.9-8.4,4.2-10.9,6.7c3.7,5.1,14.4,16.2,38.3,16.6c0.5,0,1,0,1.4,0c23,0,33.3-11.3,36.8-16.5c-3.2-3.2-8.3-6.1-14.7-8.2
			C882.8,327.7,882.2,326.8,882.2,325.8z"/>
		<path fill="#FFE8D4" d="M775.7,192.7c0,7.2,5.3,13,12.1,13.6v-27.1C781,179.7,775.7,185.6,775.7,192.7z"/>
		<path fill="#FFE8D4" d="M940.7,195c0-7.2-5.3-13-12.1-13.6l0,27.1C935.4,208.1,940.7,202.2,940.7,195z"/>
		<path fill="#FFE8D4" d="M898.4,136.8c-18.4,30.9-89.3,40.2-106,42l0,64.9c0,36.3,29.5,65.8,65.8,65.8c36.3,0,65.8-29.5,65.8-65.8
			V180C910.2,173.3,900.8,157.1,898.4,136.8z M810.2,194.3c-6,6.8-6,3.3-6,3.3s0.1-2.7,2.3-5.4c12.2-15.1,26.4-11.2,29.3-9.8
			c2.9,1.5,4.1,4.8,0,4.4C816.6,185.1,810.2,194.3,810.2,194.3z M824.1,207.6c0-2.9,2.3-5.2,5.2-5.2c2.9,0,5.2,2.3,5.2,5.2
			c0,2.9-2.3,5.2-5.2,5.2C826.4,212.8,824.1,210.4,824.1,207.6z M884.1,266.5c-0.1,0.2-5.4,18.3-25.6,18.3
			c-20.2,0-26.2-18-26.2-18.2c-0.4-1.2,0.3-2.5,1.5-2.9c1.2-0.4,2.5,0.3,2.9,1.5c0.2,0.6,5.1,15,21.8,15c16.7,0,21-14.3,21.1-14.9
			c0.4-1.2,1.6-1.9,2.9-1.6C883.7,264,884.4,265.3,884.1,266.5z M887.1,212.8c-2.9,0-5.2-2.3-5.2-5.2c0-2.9,2.3-5.2,5.2-5.2
			c2.9,0,5.2,2.3,5.2,5.2C892.3,210.4,890,212.8,887.1,212.8z M901.9,191.3c0,0-7.1-8.6-26.2-5.2c-4.1,0.7-3.2-2.7-0.4-4.4
			c2.8-1.7,16.6-6.8,30,7.2c2.4,2.5,2.8,5.2,2.8,5.2S908.4,197.6,901.9,191.3z"/>
		<path fill="#826548" d="M925.1,175.4l-1.2-41.2c0-0.1,0-0.1,0-0.2l0-0.4c0-0.2,0-0.3,0-0.5c0-19.7-29.5-35.8-65.8-35.8
			c-36.3,0-65.8,16-65.8,35.8c0,0.2,0,0.3,0,0.5l0,0.4c0,0.1,0,0.1,0,0.2l-1.2,40c16.1-1.7,101-12.7,106.6-49.1c0.2-1.1,1.2-2,2.3-2
			c0.1,0,0.1,0,0.2,0c1.2,0.1,2.1,1.1,2.1,2.3C902.2,148.8,911,167.9,925.1,175.4z"/>
		<path fill="#F13B1F" d="M903.2,337.3c-3.3,5.5-15,20.6-43.1,20.1c-28.2-0.6-39.8-15-43-20.1c-28.8,9.1-52.2,26.8-67.2,49.3v46.9
			h219.4V385C954.3,363.3,931.3,346.2,903.2,337.3z"/>
		<path fill="#FFE8D4" d="M732.7,433.4h12.6v-39.2C738.4,406.6,734.2,419.7,732.7,433.4L732.7,433.4z"/>
		<path fill="#FFE8D4" d="M973.9,392.4v41h13.7C986,419.2,981.3,405.2,973.9,392.4z"/>
		<path fill="#4A2510" d="M991.8,430c-0.1-0.7-0.2-1.4-0.3-2.1c-0.1-0.8-0.3-1.5-0.4-2.3c-0.1-0.3-0.1-0.7-0.2-1
			c-0.3-1.4-0.6-2.8-0.9-4.2c-0.1-0.6-0.3-1.2-0.4-1.8c-0.2-0.9-0.5-1.8-0.7-2.7c-6.6-23.7-21.1-44.8-41.4-60.6
			c1.8-56.6,4.1-130.7,4.1-145.2c4.8-49-4.3-85.5-26.9-108.7c-27-27.6-63.3-25.9-66.5-25.7c-3.2-0.2-39.5-1.9-66.5,25.7
			c-22.6,23.1-31.7,59.7-26.9,108.7c0,14.7,2.4,91.4,4.2,148.3c-13.7,11.6-24.5,25.7-31.7,41.3c0,0,0,0,0,0.1
			c-0.4,0.9-0.8,1.9-1.2,2.8c-0.2,0.4-0.4,0.9-0.6,1.3c-0.3,0.7-0.5,1.3-0.8,2c-0.5,1.2-0.9,2.4-1.3,3.6c-0.1,0.2-0.1,0.4-0.2,0.6
			c-0.4,1.1-0.8,2.3-1.1,3.5c-0.1,0.2-0.1,0.4-0.2,0.6c-0.4,1.3-0.7,2.5-1.1,3.8c0,0.1,0,0.1,0,0.2c-0.7,2.7-1.3,5.5-1.8,8.3
			c0,0.3-0.1,0.5-0.1,0.8c-0.2,1.1-0.3,2.2-0.5,3.3c0,0.3-0.1,0.7-0.1,1c-0.2,1.3-0.3,2.7-0.4,4.1c-0.1,0.6,0.2,1.3,0.6,1.8
			c0.4,0.5,1.1,0.8,1.7,0.8h17.5h224.1h18.6c0.7,0,1.3-0.3,1.7-0.8c0.4-0.5,0.7-1.1,0.6-1.8c-0.1-1.3-0.3-2.6-0.4-3.9
			C992,431.1,991.9,430.5,991.8,430z M769.4,210c0-0.1,0-0.2,0-0.2c-4.7-47.6,3.9-82.9,25.6-105.1c26.1-26.7,62.7-24.4,63-24.3
			c0.1,0,0.2,0,0.3,0c0.4,0,36.8-2.5,63,24.3c21.6,22.1,30.3,57.5,25.6,105.1c0,0.1,0,0.2,0,0.2c0,13.9-2.2,85.7-4,141.9
			c-11.8-8.4-25.3-15.1-40.2-19.6c-0.5-0.2-1.1-0.1-1.6,0.1c-3.5-3.3-8.3-6.1-14.4-8.3V308c24.6-11,41.8-35.7,41.8-64.3l0-30.4
			c9.3-0.6,16.7-8.5,16.7-18.2c0-9.3-6.8-17-15.5-18.1l-1.2-42.7l0-0.3c0-0.3,0-0.5,0-0.8c0-11-7.5-21.3-21.1-29
			c-13.2-7.4-30.7-11.4-49.3-11.4c0,0,0,0,0,0h0c-18.6,0-36.1,4.1-49.3,11.4c-13.6,7.6-21.1,17.9-21.1,29c0,0.3,0,0.5,0,0.8l0,0.2
			l-1.2,40.5c-8.7,1.1-15.5,8.8-15.5,18.1c0,9.7,7.4,17.7,16.8,18.2v32.7c0,28.6,17.2,53.3,41.8,64.3v17.7
			c-4.3,1.9-7.8,4.2-10.5,6.7c-0.5-0.2-1.1-0.3-1.6-0.1c-16.5,5-31.3,12.7-44,22.5C771.7,298.1,769.4,224.1,769.4,210z M834.2,327.2
			v-17.4c7.5,2.7,15.6,4.2,24,4.2c8.4,0,16.5-1.5,24-4.2v15.9c0,1,0.6,1.9,1.6,2.2c6.4,2.1,11.5,5,14.7,8.2
			c-3.6,5.3-13.8,16.5-36.8,16.5c-0.5,0-0.9,0-1.4,0c-23.9-0.5-34.6-11.5-38.3-16.6c2.5-2.5,6.2-4.8,10.9-6.7
			C833.6,329,834.2,328.2,834.2,327.2z M787.8,179.2v27.1c-6.8-0.5-12.1-6.4-12.1-13.6S781,179.7,787.8,179.2z M792.4,134l0-0.4
			c0-0.2,0-0.3,0-0.5c0-19.7,29.5-35.8,65.8-35.8c36.3,0,65.8,16,65.8,35.8c0,0.2,0,0.3,0,0.5l0,0.4c0,0.1,0,0.1,0,0.2l1.2,41.2
			c-14.1-7.5-22.9-26.6-22.7-50c0-1.2-0.9-2.2-2.1-2.3c-0.1,0-0.1,0-0.2,0c-1.1,0-2.1,0.8-2.3,2c-5.6,36.4-90.6,47.4-106.6,49.1
			l1.2-40C792.4,134.1,792.4,134.1,792.4,134z M940.7,195c0,7.2-5.3,13-12.1,13.6l0-27.1C935.4,182,940.7,187.9,940.7,195z
			 M898.4,136.8c2.4,20.3,11.8,36.5,25.6,43.3v63.6c0,36.3-29.5,65.8-65.8,65.8c-36.3,0-65.8-29.5-65.8-65.8l0-64.9
			C809.1,177,880,167.6,898.4,136.8z M745.2,433.4h-12.6h0c1.5-13.7,5.7-26.9,12.6-39.2V433.4z M749.9,386.6
			c14.9-22.5,38.4-40.2,67.2-49.3c3.2,5.1,14.8,19.5,43,20.1c28.2,0.6,39.9-14.6,43.1-20.1c28.1,8.9,51.1,26,66.1,47.7v48.5H749.9
			V386.6z M973.9,433.4v-41c7.4,12.8,12.1,26.8,13.7,41H973.9z"/>
		<circle fill="#4A2510" cx="829.3" cy="207.6" r="5.2"/>
		<circle fill="#4A2510" cx="887.1" cy="207.6" r="5.2"/>
		<path fill="#4A2510" d="M810.2,194.3c0,0,6.3-9.1,25.6-7.4c4.1,0.4,2.9-2.9,0-4.4c-2.9-1.5-17.1-5.4-29.3,9.8
			c-2.2,2.7-2.3,5.4-2.3,5.4S804.2,201.1,810.2,194.3z"/>
		<path fill="#4A2510" d="M875.7,186.1c19.1-3.3,26.2,5.2,26.2,5.2c6.5,6.3,6.2,2.8,6.2,2.8s-0.4-2.7-2.8-5.2
			c-13.4-14-27.2-8.9-30-7.2C872.5,183.4,871.6,186.8,875.7,186.1z"/>
		<path fill="#4A2510" d="M833.8,263.6c-1.2,0.4-1.9,1.7-1.5,2.9c0.1,0.2,6,18.2,26.2,18.2c20.3,0,25.6-18.1,25.6-18.3
			c0.3-1.2-0.4-2.5-1.6-2.9c-1.2-0.3-2.5,0.4-2.9,1.6c-0.2,0.6-4.5,14.9-21.1,14.9c-16.7,0-21.6-14.4-21.8-15
			C836.3,263.9,835,263.3,833.8,263.6z"/>
	</g>
	<g>
		<path fill="#FFE8D4" d="M1074,191.3c0,7.2,5.3,13,12.1,13.6v-27.1C1079.4,178.2,1074,184.1,1074,191.3z"/>
		<path fill="#FFE8D4" d="M1239.1,193.6c0-7.2-5.3-13-12.1-13.6l0,27.1C1233.7,206.6,1239.1,200.7,1239.1,193.6z"/>
		<path fill="#FFE8D4" d="M1132.8,285.5c0.9-0.4,1.9-0.3,2.6,0.4c0.8,0.8,20,18.8,46.3-0.2c0.7-0.5,1.6-0.6,2.4-0.2
			c0.8,0.4,1.3,1.2,1.3,2.1c0,4.2-0.6,9-1.7,14.1c22.7-10.4,38.6-33.3,38.6-59.9v-66.2c-7.9-5.2-14.2-20.6-19.3-33.1
			c-1.5-3.6-2.8-6.9-4-9.3c-26.6,10-76.2,6-91.6,0.5c-2,13.8-14.2,36.4-16.8,41l0,67c0,28.6,18.3,52.9,43.8,62
			c-1.4-5.1-2.4-10.4-3-16C1131.4,286.9,1132,286,1132.8,285.5z M1173.6,168.3c2.8-1.7,16.6-6.8,30,7.2c2.4,2.5,2.8,5.2,2.8,5.2
			s0.3,3.5-6.2-2.8c0,0-7.1-8.6-26.2-5.2C1169.8,173.4,1170.8,170,1173.6,168.3z M1190.6,194.1c0,2.9-2.3,5.2-5.2,5.2
			c-2.9,0-5.2-2.3-5.2-5.2c0-2.9,2.3-5.2,5.2-5.2C1188.2,188.9,1190.6,191.2,1190.6,194.1z M1102.5,184.1c0,0,0.1-2.7,2.3-5.4
			c12.2-15.1,26.4-11.2,29.3-9.8c2.9,1.5,4.2,4.8,0,4.4c-19.3-1.7-25.6,7.4-25.6,7.4C1102.5,187.6,1102.5,184.1,1102.5,184.1z
			 M1132.8,194.1c0,2.9-2.3,5.2-5.2,5.2c-2.9,0-5.2-2.3-5.2-5.2c0-2.9,2.3-5.2,5.2-5.2C1130.4,188.9,1132.8,191.2,1132.8,194.1z
			 M1110.5,253.8c-0.7-0.2-1.3-0.7-1.5-1.4c-0.3-0.7-0.2-1.4,0.2-2.1c14.9-24,39.1-14.8,46.4-11.2c3-1.7,31.6-16.7,48.3,10.3
			c0.4,0.6,0.5,1.4,0.2,2.1c-0.3,0.7-0.8,1.2-1.5,1.4c-0.8,0.2-1.7,0.5-2.7,0.8c-4.5,1.4-11.1,3.5-18.4,3.5
			c-8.1,0-16.9-2.6-24.5-11.6c-7.8,9.8-17,12.6-25.4,12.6c-7.3,0-13.9-2.1-18.4-3.5C1112.2,254.3,1111.3,254,1110.5,253.8z
			 M1132.2,260c1.2-0.4,2.5,0.3,2.9,1.5c0.2,0.6,5.1,15,21.8,15c16.7,0,21-14.3,21.1-14.9c0.4-1.2,1.6-1.9,2.9-1.6
			c1.2,0.3,1.9,1.6,1.6,2.9c-0.1,0.2-5.4,18.3-25.6,18.3c-20.2,0-26.2-18-26.2-18.2C1130.3,261.7,1131,260.4,1132.2,260z"/>
		<path fill="#FFE8D4" d="M1183,325.1v-16.5h-0.9c-5,18-14.6,37.1-22.4,41.6c-0.4,0.2-0.8,0.3-1.2,0.3c-0.7,0-1.4-0.3-1.9-1
			c-5.9-8.2-15.1-22.8-20.7-41h-0.9v18c0,0.9-0.6,1.8-1.4,2.2c-4.7,1.9-8.4,4.2-10.9,6.7c3.7,5.1,14.4,16.2,38.3,16.6
			c0.8,0,1.5,0,2.2,0c0.4,0,0.7,0,1.1,0c0.6,0,1.2,0,1.7-0.1c0.3,0,0.5,0,0.8,0c0.7,0,1.3-0.1,1.9-0.2c0.2,0,0.3,0,0.5,0
			c0.7-0.1,1.4-0.2,2.1-0.3c0.1,0,0.1,0,0.2,0c16.7-2.5,24.7-11.4,27.7-15.9c-3.2-3.2-8.3-6.1-14.7-8.2
			C1183.6,327,1183,326.1,1183,325.1z"/>
		<path fill="#4A4C62" d="M1161,371.6c-32.2,0-58.3-11.4-63.1-26.9c-35.9,18.1-60.3,50.7-64.4,88h255c-4.1-37.3-28.5-70-64.4-88
			C1219.3,360.3,1193.2,371.6,1161,371.6z"/>
		<path fill="#FFEE8D" d="M1090.7,131.4c0,0.2,0,0.3,0,0.5l0,0.4l0,32.7c5-9.8,12.4-25.9,12.4-34.5c0-0.9,0.5-1.6,1.2-2
			c0.8-0.4,1.7-0.4,2.4,0.1c7.5,5,64.5,11.6,92.5-0.2c0.3-0.1,0.6-0.2,0.9-0.2c0.8,0,1.6,0.4,2,1.2c1.4,2.6,3.1,6.8,5.1,11.6
			c3.8,9.3,9.2,22.6,15,28.7l0-37.7c0-0.2,0-0.3,0-0.5c0-19.7-29.5-35.8-65.8-35.8C1120.3,95.6,1090.7,111.7,1090.7,131.4z"/>
		<path fill="#FFF39F" d="M1153.1,243c-6.5-3.2-25.4-10.1-38.2,7.3C1124,253.2,1140.6,258.3,1153.1,243z"/>
		<path fill="#FFF39F" d="M1160.1,242c12.5,15.3,29,10.2,38.2,7.3c-6.2-8.5-14.6-12.2-24.9-11.1
			C1167.7,238.7,1162.8,240.7,1160.1,242z"/>
		<path fill="#FFF39F" d="M1159,344.9c8.3-7.4,19.8-34.1,21.6-52.8c-19.9,12.2-36,5.5-43.7,0.7
			C1140.7,315.4,1151.7,334.3,1159,344.9z"/>
		<path fill="#A13D3F" d="M1117.9,336.6c-5.3,1.7-10.6,3.7-15.7,6.1c3.4,13.5,29.1,24.3,58.8,24.3c29.7,0,55.4-10.8,58.8-24.3
			c-5.1-2.4-10.4-4.4-15.7-6.1c-3.2,5.4-14.9,20.6-43.2,20.1c-3.5-0.1-6.8-0.4-9.8-0.8C1130,352.6,1120.7,341.1,1117.9,336.6z"/>
		<path fill="#4A2510" d="M1292.7,436.6c0.4-0.5,0.7-1.1,0.6-1.8c-4.1-47.4-39.3-88-89.7-103.3c-0.1,0-0.2,0-0.2,0
			c-0.5-0.1-0.9,0-1.4,0.1c-3.5-3.3-8.3-6.1-14.4-8.3v-17.2c0-0.4-0.1-0.7-0.3-1c23.4-11.4,39.6-35.5,39.6-63.3l0-30
			c9.3-0.6,16.8-8.5,16.8-18.2c0-9.7-7.4-17.7-16.8-18.2v-1c0,0,0,0,0,0l0-41.9l0-0.3c0-0.3,0-0.5,0-0.8c0-11-7.5-21.3-21.1-29
			c-13.2-7.4-30.7-11.4-49.3-11.4c-18.6,0-36.1,4.1-49.3,11.4c-13.6,7.6-21.1,17.9-21.1,29c0,0.3,0,0.5,0,0.8l0,40.9
			c-9.3,0.6-16.8,8.5-16.8,18.2c0,9.7,7.4,17.7,16.8,18.2v32.4c0,29.6,18.3,54.9,44.2,65.4V325c-4.3,1.9-7.8,4.2-10.5,6.7
			c-0.4-0.2-0.9-0.2-1.4-0.1c-0.1,0-0.2,0-0.2,0c-50.4,15.3-85.6,55.8-89.7,103.3c-0.1,0.6,0.2,1.3,0.6,1.8c0.4,0.5,1.1,0.8,1.7,0.8
			H1291C1291.7,437.4,1292.3,437.1,1292.7,436.6z M1239.1,193.6c0,7.2-5.3,13-12.1,13.6l0-27.1
			C1233.7,180.6,1239.1,186.4,1239.1,193.6z M1156.6,95.6c36.3,0,65.8,16,65.8,35.8c0,0.2,0,0.3,0,0.5l0,37.7
			c-5.7-6.1-11.2-19.4-15-28.7c-2-4.8-3.7-9-5.1-11.6c-0.4-0.8-1.2-1.2-2-1.2c-0.3,0-0.6,0.1-0.9,0.2c-28,11.8-85,5.2-92.5,0.2
			c-0.7-0.5-1.6-0.5-2.4-0.1c-0.8,0.4-1.2,1.2-1.2,2c0,8.6-7.4,24.7-12.4,34.5l0-32.7l0-0.4c0-0.2,0-0.3,0-0.5
			C1090.7,111.7,1120.3,95.6,1156.6,95.6z M1086.1,204.8c-6.8-0.5-12.1-6.4-12.1-13.6c0-7.2,5.3-13,12.1-13.6V204.8z M1090.8,241.9
			l0-67c2.5-4.5,14.8-27.2,16.8-41c15.3,5.5,64.9,9.4,91.6-0.5c1.1,2.4,2.5,5.6,4,9.3c5.1,12.5,11.4,27.9,19.3,33.1v66.2
			c0,26.6-15.9,49.5-38.6,59.9c1.1-5.1,1.7-9.9,1.7-14.1c0-0.9-0.5-1.7-1.3-2.1c-0.8-0.4-1.7-0.3-2.4,0.2
			c-26.3,19.1-45.5,1-46.3,0.2c-0.7-0.7-1.8-0.9-2.6-0.4c-0.9,0.4-1.4,1.4-1.3,2.3c0.6,5.5,1.7,10.9,3,16
			C1109.1,294.8,1090.8,270.4,1090.8,241.9z M1180.6,292.1c-1.7,18.7-13.3,45.4-21.6,52.8c-7.3-10.6-18.3-29.4-22.1-52.1
			C1144.5,297.6,1160.7,304.3,1180.6,292.1z M1133.6,328.6c0.9-0.4,1.4-1.2,1.4-2.2v-18h0.9c5.6,18.1,14.8,32.7,20.7,41
			c0.5,0.6,1.2,1,1.9,1c0.4,0,0.8-0.1,1.2-0.3c7.8-4.6,17.4-23.6,22.4-41.6h0.9v16.5c0,1,0.6,1.9,1.6,2.2c6.4,2.1,11.5,5,14.7,8.2
			c-3.1,4.5-11.1,13.4-27.7,15.9c-0.1,0-0.1,0-0.2,0c-0.7,0.1-1.4,0.2-2.1,0.3c-0.2,0-0.3,0-0.5,0c-0.6,0.1-1.3,0.1-1.9,0.2
			c-0.3,0-0.5,0-0.8,0c-0.6,0-1.2,0.1-1.7,0.1c-0.4,0-0.7,0-1.1,0c-0.7,0-1.5,0-2.2,0c-23.9-0.5-34.6-11.5-38.3-16.6
			C1125.2,332.9,1128.9,330.6,1133.6,328.6z M1151.1,355.8c3,0.5,6.3,0.7,9.8,0.8c28.2,0.6,39.9-14.7,43.2-20.1
			c5.3,1.7,10.6,3.7,15.7,6.1c-3.4,13.5-29.1,24.3-58.8,24.3c-29.7,0-55.4-10.8-58.8-24.3c5.1-2.4,10.4-4.4,15.7-6.1
			C1120.7,341.1,1130,352.6,1151.1,355.8z M1033.5,432.7c4.1-37.3,28.5-70,64.4-88c4.7,15.6,30.8,26.9,63.1,26.9
			c32.2,0,58.3-11.4,63.1-26.9c35.9,18.1,60.3,50.7,64.4,88H1033.5z"/>
		<circle fill="#4A2510" cx="1127.5" cy="194.1" r="5.2"/>
		<circle fill="#4A2510" cx="1185.3" cy="194.1" r="5.2"/>
		<path fill="#4A2510" d="M1134.1,173.4c4.2,0.4,2.9-2.9,0-4.4c-2.9-1.5-17.1-5.4-29.3,9.8c-2.2,2.7-2.3,5.4-2.3,5.4s0,3.5,6-3.3
			C1108.5,180.8,1114.8,171.6,1134.1,173.4z"/>
		<path fill="#4A2510" d="M1173.9,172.6c19.1-3.3,26.2,5.2,26.2,5.2c6.5,6.3,6.2,2.8,6.2,2.8s-0.4-2.7-2.8-5.2
			c-13.4-14-27.2-8.9-30-7.2C1170.8,170,1169.8,173.4,1173.9,172.6z"/>
		<path fill="#4A2510" d="M1156.9,281.2c20.3,0,25.6-18.1,25.6-18.3c0.3-1.2-0.4-2.5-1.6-2.9c-1.2-0.3-2.5,0.4-2.9,1.6
			c-0.2,0.6-4.5,14.9-21.1,14.9c-16.7,0-21.6-14.3-21.8-15c-0.4-1.2-1.7-1.9-2.9-1.5c-1.2,0.4-1.9,1.7-1.5,2.9
			C1130.7,263.1,1136.7,281.2,1156.9,281.2z"/>
		<path fill="#4A2510" d="M1157,245.5c7.6,9,16.5,11.6,24.5,11.6c7.3,0,13.9-2.1,18.4-3.5c1-0.3,1.9-0.6,2.7-0.8
			c0.7-0.2,1.3-0.7,1.5-1.4c0.3-0.7,0.2-1.4-0.2-2.1c-16.7-27-45.3-12-48.3-10.3c-7.3-3.5-31.5-12.8-46.4,11.2
			c-0.4,0.6-0.5,1.4-0.2,2.1c0.3,0.7,0.8,1.2,1.5,1.4c0.8,0.2,1.7,0.5,2.7,0.8c4.5,1.4,11.1,3.5,18.4,3.5
			C1140,258.1,1149.2,255.3,1157,245.5z M1173.4,238.1c10.3-1.1,18.7,2.7,24.9,11.1c-9.2,2.9-25.8,8.1-38.2-7.3
			C1162.8,240.7,1167.7,238.7,1173.4,238.1z M1114.8,250.2c12.8-17.4,31.7-10.4,38.2-7.3C1140.6,258.3,1124,253.2,1114.8,250.2z"/>
	</g>
	<g>
		<path fill="#FFE8D4" d="M261.3,802.4v-13.5c-7.5,2.4-15.6,3.7-23.9,3.7c-9.6,0-18.7-1.7-27.1-4.8v16.1c0,0.9-0.6,1.8-1.4,2.2
			c-2.9,1.2-5.4,2.5-7.6,3.9c3.5,4.8,13.5,15.3,36.2,15.8c23.4,0.5,33.4-11.3,36.4-16.1c-3-1.9-6.7-3.7-11-5
			C261.9,804.3,261.3,803.4,261.3,802.4z"/>
		<path fill="#FFE8D4" d="M307.2,712.8v-29.6c-2.9-5.3-6.8-16.8-11.6-31.1c-3.3-10-7.1-21.1-11.2-32.2c-2.2,1.8-5.2,2.9-8.6,3.2
			c-6.6,0.6-13.6-2-17-6.2l-1.1-1.3c-3.6,2.6-11.9,6.7-21-0.4c-3.6,3.3-7.6,5-11.6,4.9c-4.6-0.1-8.3-2.5-10.4-4.3l-1,1.2
			c-3.4,4.2-10.4,6.7-17,6.2c-3.5-0.3-6.4-1.4-8.6-3.2c-4,11-7.6,23.3-10.8,34.2c-4,13.3-7.1,23.9-9.8,29.1v40.1
			c0,35.7,31.3,64.7,69.8,64.7c38.5,0,69.8-29,69.8-64.7L307.2,712.8C307.2,712.8,307.2,712.8,307.2,712.8z M234.7,758.3
			c-12.1,0-22-10.8-22-24.2c0-1.3,1-2.3,2.3-2.3h39.4c1.3,0,2.3,1,2.3,2.3C256.7,747.5,246.8,758.3,234.7,758.3z M190.8,666.9
			c-5.7,6.5-5.7,3.1-5.7,3.1s0.1-2.5,2.2-5.1c11.6-14.3,25-10.6,27.7-9.2c2.8,1.4,3.9,4.5,0,4.2
			C196.9,658.3,190.8,666.9,190.8,666.9z M202.1,688.4c0-2.7,2.2-4.9,4.9-4.9c2.7,0,4.9,2.2,4.9,4.9c0,2.7-2.2,4.9-4.9,4.9
			C204.3,693.3,202.1,691.1,202.1,688.4z M261.8,693.3c-2.7,0-4.9-2.2-4.9-4.9c0-2.7,2.2-4.9,4.9-4.9c2.7,0,4.9,2.2,4.9,4.9
			C266.7,691.1,264.5,693.3,261.8,693.3z M277.6,666c0,0-6.7-8.1-24.8-4.9c-3.9,0.7-3-2.5-0.4-4.1c2.6-1.6,15.7-6.4,28.4,6.8
			c2.3,2.4,2.6,4.9,2.6,4.9S283.8,672,277.6,666z"/>
		<path fill="#F13B1F" d="M237.3,844.6c-30.4,0-55.2-10.7-59.8-25.4c-33.9,17.1-56.8,47.8-60.8,83h241.1c-4-35.2-26.9-66-60.8-83
			C292.5,833.8,267.8,844.6,237.3,844.6z"/>
		<path fill="#BDC9E2" d="M238.7,830.4c-0.5,0-1,0-1.4,0c-26.6-0.5-37.6-14-40.8-19c-5,1.6-9.9,3.5-14.7,5.7
			c3.3,12.7,27.5,22.8,55.5,22.8c28,0,52.2-10.1,55.5-22.8c-4.8-2.2-9.7-4.1-14.7-5.7C275.1,816.5,264.3,830.4,238.7,830.4z"/>
		<path fill="#604A36" d="M148.2,697.7c0-9.1,6.9-16.6,15.5-17.3c2.4-5.1,5.6-15.6,9.1-27.6c3.6-12.2,7.7-26.1,12.3-38.2
			c0.3-0.8,1.1-1.4,2-1.5c0.9-0.1,1.8,0.4,2.2,1.2c1.8,3.2,5.7,4,7.8,4.2c5.1,0.4,10.5-1.5,13-4.5l2.7-3.1c0.4-0.5,1.1-0.8,1.8-0.8
			c0.7,0,1.3,0.3,1.8,0.8c0,0,3.8,4.4,8.9,4.5c3.2,0.1,6.5-1.6,9.6-5c0.4-0.5,1-0.7,1.6-0.7c0.6,0,1.2,0.2,1.7,0.6
			c9.3,8.7,17.3,1.3,18.2,0.4c0.5-0.5,1.1-0.7,1.7-0.7c0.6,0,1.2,0.3,1.7,0.8l2.6,3c2.5,3.1,8,5,13.1,4.6c2.1-0.2,6-1,7.8-4.2
			c0.4-0.8,1.3-1.2,2.2-1.2c0.9,0.1,1.7,0.7,2,1.5c4.7,12.4,8.9,25,12.6,36.1c4.4,13.1,8.2,24.5,10.9,29.8
			c8.7,0.7,15.6,8.2,15.6,17.3c0,8.8-6.4,16.1-14.7,17.2l0,8.9c0.1,0,0.2,0.1,0.3,0.2c2.1,1.4,4.5,2.1,7,2.1
			c6.9,0,12.6-5.6,12.6-12.6c0-0.9-0.1-1.9-0.3-2.8c-0.1-0.6,0-1.3,0.4-1.8c0.4-0.5,0.9-0.9,1.6-1c6.1-0.9,10.8-6.2,10.8-12.4
			c0-3.2-1.2-6.2-3.4-8.5c-0.5-0.5-0.7-1.2-0.6-1.8c0.1-0.7,0.4-1.3,1-1.7c3.4-2.4,5.5-6.2,5.5-10.4c0-2.5-0.8-5-2.2-7.1
			c-0.4-0.6-0.5-1.4-0.3-2.1c0.3-0.7,0.9-1.2,1.6-1.4c5.6-1.4,9.5-6.4,9.5-12.2c0-5-2.9-9.5-7.5-11.5c-0.7-0.3-1.2-0.9-1.3-1.6
			c-0.2-0.7,0-1.5,0.5-2c2.1-2.3,3.2-5.3,3.2-8.3c0-5.1-3-9.6-7.7-11.6c-0.7-0.3-1.2-0.8-1.3-1.5c-0.2-0.7,0-1.4,0.4-2
			c1.7-2.2,2.6-4.8,2.6-7.6c0-3.7-1.6-7.2-4.4-9.6c-0.8-0.7-1-1.8-0.6-2.8c0.9-1.7,1.3-3.6,1.3-5.5c0-6.9-5.6-12.6-12.6-12.6
			c-0.4,0-0.9,0-1.3,0.1c-1.1,0.1-2.1-0.6-2.5-1.6c-1.6-5.3-6.5-8.9-12-8.9c-1.3,0-2.5,0.2-3.7,0.6c-0.6,0.2-1.3,0.1-1.9-0.2
			c-0.6-0.4-1-0.9-1.1-1.6c-1-6.1-6.2-10.5-12.4-10.5c-2.5,0-5,0.8-7.1,2.2c-0.5,0.4-1.2,0.5-1.8,0.3c-0.6-0.1-1.2-0.5-1.5-1.1
			c-2.3-3.9-6.4-6.3-10.9-6.3c-2.9,0-5.7,1-8,2.8c-0.6,0.5-1.3,0.6-2,0.5c-0.7-0.2-1.3-0.6-1.6-1.3c-2.1-4.4-6.5-7.1-11.3-7.1
			c-0.2,0-0.4,0-0.5,0l-0.3,0c-0.1,0-0.3,0-0.4,0c-0.6-0.1-1-0.1-1.5-0.1c-3.8,0-7.3,1.6-9.7,4.5c-0.6,0.7-1.4,1-2.3,0.8
			c-1.8-0.4-3.4-0.4-5.3-0.1c-0.8,0.2-1.7-0.1-2.2-0.8c-2.4-2.8-5.9-4.4-9.5-4.4c-0.2,0-0.5,0-0.7,0l-0.2,0c-0.1,0-0.3,0-0.4,0
			c-0.5-0.1-1-0.1-1.5-0.1c-4.9,0-9.2,2.7-11.3,6.9c-0.3,0.6-0.9,1.1-1.6,1.2c-0.7,0.2-1.4,0-2-0.5c-2.2-1.8-5.1-2.8-8-2.8
			c-4.5,0-8.6,2.3-10.9,6.1c-0.3,0.5-0.9,0.9-1.5,1.1c-0.6,0.1-1.3,0-1.8-0.3c-2.1-1.4-4.6-2.1-7.1-2.1c-6.2,0-11.4,4.3-12.4,10.2
			c-0.1,0.7-0.5,1.2-1.1,1.6c-0.6,0.4-1.3,0.4-1.9,0.3c-1.2-0.4-2.4-0.5-3.7-0.5c-5.5,0-10.5,3.6-12,8.7c-0.3,1.1-1.4,1.7-2.5,1.6
			c-0.5,0-0.9-0.1-1.3-0.1c-6.9,0-12.6,5.5-12.6,12.2c0,1.9,0.4,3.7,1.3,5.4c0.5,1,0.2,2.1-0.6,2.8c-2.8,2.3-4.4,5.7-4.4,9.3
			c0,2.7,0.9,5.2,2.6,7.4c0.4,0.6,0.6,1.3,0.4,2c-0.2,0.7-0.7,1.3-1.4,1.6c-4.7,1.9-7.7,6.3-7.7,11.3c0,3,1.1,5.9,3.2,8.1
			c0.5,0.6,0.7,1.3,0.6,2.1c-0.2,0.7-0.7,1.3-1.3,1.6c-4.5,2-7.5,6.4-7.5,11.2c0,5.6,3.9,10.5,9.5,11.8c0.7,0.2,1.4,0.7,1.6,1.4
			c0.3,0.7,0.2,1.5-0.3,2.1c-1.4,2-2.2,4.4-2.2,6.9c0,4,2,7.8,5.4,10.1c0.6,0.4,0.9,1,1,1.7c0.1,0.7-0.2,1.4-0.6,1.9
			c-2.1,2.3-3.3,5.2-3.3,8.3c0,6,4.6,11.2,10.8,12.1c0.6,0.1,1.2,0.4,1.6,1c0.4,0.5,0.5,1.2,0.3,1.8c-0.2,0.9-0.3,1.8-0.3,2.7
			c0,6.7,5.6,12.2,12.6,12.2c2.5,0,4.9-0.7,7-2.1c0.4-0.2,0.8-0.4,1.3-0.4c0.2,0,0.5,0,0.7,0.1c0.7,0.2,1.2,0.7,1.5,1.3
			c1.5,3.7,4.8,6.3,8.6,7.3l0-13.1C154.6,713.8,148.2,706.5,148.2,697.7z"/>
		<path fill="#FFE8D4" d="M321.8,697.7c0-6.2-4.3-11.4-10-12.6v25.1C317.5,709.1,321.8,703.9,321.8,697.7z"/>
		<path fill="#FFE8D4" d="M162.9,685.1c-5.7,1.1-10,6.3-10,12.6c0,6.2,4.3,11.4,10,12.6V685.1z"/>
		<path fill="#FFE8D4" d="M217.4,736.5c1,9.7,8.4,17.2,17.3,17.2c8.9,0,16.2-7.5,17.3-17.2H217.4z"/>
		<path fill="#4A2510" d="M277.7,806.4c-0.1,0-0.1,0-0.2,0c-0.1,0-0.2,0-0.3,0c-3.1-2.1-6.9-4-11.3-5.6v-13.5
			c24.9-9.7,43-31.6,45.6-57.6c0.1-0.2,0.2-0.3,0.3-0.5c2.3,1.1,4.7,1.6,7.3,1.6c9.5,0,17.2-7.7,17.2-17.2c0-0.5,0-1-0.1-1.5
			c7.2-2.1,12.5-8.8,12.5-16.5c0-3.5-1.1-6.9-3-9.7c3.5-3.2,5.5-7.8,5.5-12.6c0-2.5-0.5-4.9-1.5-7.1c6.1-2.7,10.2-8.8,10.2-15.7
			c0-5.8-3-11.2-7.7-14.4c1.7-2.7,2.6-5.9,2.6-9.1c0-6-3.1-11.5-8.1-14.6c1.3-2.5,2-5.3,2-8.1c0-4.5-1.7-8.7-4.8-11.9
			c0.7-1.9,1.1-3.9,1.1-6c0-9.5-7.7-17.2-17.2-17.2c-2.7-6.3-8.8-10.5-15.9-10.5c-0.9,0-1.8,0.1-2.6,0.2c-2.2-7.1-8.8-12-16.4-12
			c-2.7,0-5.3,0.6-7.7,1.8c-3.2-4.1-8.3-6.6-13.6-6.6c-3.1,0-6.1,0.8-8.7,2.4c-3.2-4.6-8.4-7.4-14.1-7.4c-0.3,0-0.6,0-0.9,0l-0.1,0
			c-0.6-0.1-1.2-0.1-1.8-0.1c-4.7,0-9.1,1.9-12.4,5.1c-1.5-0.2-3-0.3-4.5-0.1c-3.2-3.2-7.6-5-12.1-5c-0.3,0-0.7,0-1,0
			c-6.5-0.7-12.4,2.2-15.9,7.2c-2.6-1.5-5.6-2.3-8.7-2.3c-5.3,0-10.3,2.4-13.6,6.5c-2.4-1.2-5-1.8-7.7-1.8
			c-7.6,0-14.1,4.8-16.4,11.7c-0.9-0.1-1.8-0.2-2.7-0.2c-7,0-13.2,4.1-15.8,10.2c0,0,0,0,0,0c-9.5,0-17.2,7.6-17.2,16.9
			c0,2,0.4,3.9,1.1,5.8c-3.1,3.1-4.8,7.3-4.8,11.7c0,2.8,0.7,5.5,2,7.9c-5,3-8.1,8.4-8.1,14.3c0,3.2,0.9,6.2,2.6,8.9
			c-4.8,3.1-7.7,8.4-7.7,14.1c0,6.8,4.1,12.7,10.2,15.4c-1,2.2-1.5,4.5-1.5,6.9c0,4.7,2,9.2,5.5,12.4c-2,2.8-3,6.1-3,9.5
			c0,7.6,5.2,14.2,12.5,16.2c0,0.5-0.1,1-0.1,1.4c0,9.3,7.7,16.9,17.2,16.9c2.5,0,5-0.5,7.3-1.6c2.7,4.4,7.3,7.4,12.5,8.1
			c3.5,23.5,19.7,43.3,41.9,53.1v16.4c-2.7,1.2-5.2,2.6-7.3,4c0,0,0,0,0,0c-0.2-0.1-0.4-0.1-0.6-0.1c0,0-0.1,0-0.1,0
			c-0.2,0-0.4,0-0.6,0.1c-1.6,0.5-3.2,1-4.8,1.5c0,0,0,0,0,0c-1.2,0.4-2.4,0.8-3.6,1.3c-43.3,16.2-73,52.7-76.7,95
			c-0.1,0.6,0.2,1.3,0.6,1.8c0.4,0.5,1.1,0.8,1.7,0.8h246.2c0.7,0,1.3-0.3,1.7-0.8c0.4-0.5,0.7-1.1,0.6-1.8
			C358.9,859.3,325.5,820.9,277.7,806.4z M154.3,720.7c-0.3-0.6-0.8-1.1-1.5-1.3c-0.2-0.1-0.5-0.1-0.7-0.1c-0.4,0-0.9,0.1-1.3,0.4
			c-2.1,1.4-4.5,2.1-7,2.1c-6.9,0-12.6-5.5-12.6-12.2c0-0.9,0.1-1.8,0.3-2.7c0.1-0.6,0-1.3-0.3-1.8c-0.4-0.5-0.9-0.9-1.6-1
			c-6.1-0.9-10.8-6.1-10.8-12.1c0-3.1,1.2-6,3.3-8.3c0.5-0.5,0.7-1.2,0.6-1.9c-0.1-0.7-0.4-1.3-1-1.7c-3.4-2.3-5.4-6.1-5.4-10.1
			c0-2.5,0.8-4.8,2.2-6.9c0.4-0.6,0.5-1.4,0.3-2.1c-0.3-0.7-0.9-1.3-1.6-1.4c-5.6-1.4-9.5-6.2-9.5-11.8c0-4.8,2.9-9.2,7.5-11.2
			c0.7-0.3,1.2-0.9,1.3-1.6c0.2-0.7,0-1.5-0.6-2.1c-2-2.2-3.2-5.1-3.2-8.1c0-4.9,3-9.4,7.7-11.3c0.7-0.3,1.2-0.9,1.4-1.6
			c0.2-0.7,0-1.5-0.4-2c-1.7-2.1-2.6-4.7-2.6-7.4c0-3.6,1.6-7,4.4-9.3c0.8-0.7,1.1-1.9,0.6-2.8c-0.9-1.7-1.3-3.5-1.3-5.4
			c0-6.7,5.6-12.2,12.6-12.2c0.4,0,0.9,0,1.3,0.1c1.1,0.1,2.1-0.6,2.5-1.6c1.6-5.1,6.5-8.7,12-8.7c1.3,0,2.5,0.2,3.7,0.5
			c0.6,0.2,1.3,0.1,1.9-0.3c0.6-0.4,1-0.9,1.1-1.6c1-5.9,6.2-10.2,12.4-10.2c2.6,0,5,0.7,7.1,2.1c0.5,0.4,1.2,0.5,1.8,0.3
			c0.6-0.1,1.2-0.5,1.5-1.1c2.2-3.8,6.4-6.1,10.9-6.1c2.9,0,5.7,1,8,2.8c0.5,0.4,1.3,0.6,2,0.5c0.7-0.2,1.3-0.6,1.6-1.2
			c2.1-4.3,6.5-6.9,11.3-6.9c0.5,0,1,0,1.5,0.1c0.1,0,0.3,0,0.4,0l0.2,0c0.2,0,0.5,0,0.7,0c3.6,0,7.1,1.6,9.5,4.4
			c0.5,0.6,1.4,0.9,2.2,0.8c1.8-0.4,3.5-0.3,5.3,0.1c0.8,0.2,1.7-0.1,2.3-0.8c2.4-2.9,6-4.5,9.7-4.5c0.5,0,0.9,0,1.5,0.1
			c0.1,0,0.3,0,0.4,0l0.3,0c0.2,0,0.4,0,0.5,0c4.9,0,9.2,2.7,11.3,7.1c0.3,0.6,0.9,1.1,1.6,1.3c0.7,0.2,1.4,0,2-0.5
			c2.3-1.9,5-2.8,8-2.8c4.5,0,8.6,2.4,10.9,6.3c0.3,0.6,0.9,1,1.5,1.1c0.6,0.1,1.3,0,1.8-0.3c2.1-1.4,4.5-2.2,7.1-2.2
			c6.2,0,11.4,4.4,12.4,10.5c0.1,0.7,0.5,1.2,1.1,1.6c0.6,0.4,1.3,0.4,1.9,0.2c1.2-0.4,2.4-0.6,3.7-0.6c5.6,0,10.4,3.6,12,8.9
			c0.3,1.1,1.3,1.8,2.5,1.6c0.5-0.1,0.9-0.1,1.3-0.1c6.9,0,12.6,5.6,12.6,12.6c0,1.9-0.4,3.8-1.3,5.5c-0.5,1-0.2,2.1,0.6,2.8
			c2.8,2.4,4.4,5.9,4.4,9.6c0,2.8-0.9,5.4-2.6,7.6c-0.4,0.6-0.6,1.3-0.4,2c0.2,0.7,0.7,1.3,1.3,1.5c4.7,2,7.7,6.5,7.7,11.6
			c0,3.1-1.1,6-3.2,8.3c-0.5,0.6-0.7,1.3-0.5,2c0.2,0.7,0.7,1.3,1.3,1.6c4.6,2,7.5,6.5,7.5,11.5c0,5.8-3.9,10.8-9.5,12.2
			c-0.7,0.2-1.3,0.7-1.6,1.4c-0.3,0.7-0.2,1.5,0.3,2.1c1.4,2.1,2.2,4.5,2.2,7.1c0,4.1-2,8-5.5,10.4c-0.6,0.4-0.9,1-1,1.7
			c-0.1,0.7,0.1,1.3,0.6,1.8c2.2,2.3,3.4,5.4,3.4,8.5c0,6.2-4.6,11.6-10.8,12.4c-0.6,0.1-1.2,0.4-1.6,1c-0.4,0.5-0.5,1.2-0.4,1.8
			c0.2,1,0.3,1.9,0.3,2.8c0,6.9-5.6,12.6-12.6,12.6c-2.5,0-4.9-0.7-7-2.1c-0.1-0.1-0.2-0.1-0.3-0.2l0-8.9
			c8.3-1.1,14.7-8.4,14.7-17.2c0-9.1-6.9-16.6-15.6-17.3c-2.7-5.2-6.5-16.7-10.9-29.8c-3.7-11.1-7.9-23.6-12.6-36.1
			c-0.3-0.8-1.1-1.4-2-1.5c-0.9-0.1-1.8,0.4-2.2,1.2c-1.8,3.2-5.7,4-7.8,4.2c-5.1,0.4-10.5-1.5-13.1-4.6l-2.6-3
			c-0.4-0.5-1-0.8-1.7-0.8c-0.6,0-1.3,0.2-1.7,0.7c-0.9,0.9-8.9,8.3-18.2-0.4c-0.5-0.4-1-0.6-1.7-0.6c-0.6,0-1.2,0.3-1.6,0.7
			c-3.1,3.4-6.4,5-9.6,5c-5.1-0.1-8.9-4.5-8.9-4.5c-0.4-0.5-1.1-0.8-1.8-0.8c-0.7,0-1.3,0.3-1.8,0.8l-2.7,3.1c-2.5,3-8,4.9-13,4.5
			c-2.1-0.2-6-1-7.8-4.2c-0.4-0.8-1.3-1.2-2.2-1.2c-0.9,0.1-1.7,0.7-2,1.5c-4.6,12.1-8.7,26-12.3,38.2c-3.6,12-6.7,22.5-9.1,27.6
			c-8.7,0.7-15.5,8.2-15.5,17.3c0,8.8,6.4,16.1,14.7,17.2l0,13.1C159,727.1,155.8,724.4,154.3,720.7z M311.8,710.2v-25.1
			c5.7,1.1,10,6.3,10,12.6S317.5,709.1,311.8,710.2z M162.9,685.1v25.1c-5.7-1.1-10-6.3-10-12.6
			C152.8,691.4,157.2,686.2,162.9,685.1z M167.5,723.2v-40.1c2.7-5.2,5.9-15.8,9.8-29.1c3.2-10.9,6.9-23.1,10.8-34.2
			c2.2,1.8,5.1,2.9,8.6,3.2c6.6,0.6,13.6-2,17-6.2l1-1.2c2.1,1.8,5.8,4.2,10.4,4.3c4,0.1,7.9-1.5,11.6-4.9c9,7.1,17.3,3,21,0.4
			l1.1,1.3c3.4,4.2,10.4,6.8,17,6.2c3.5-0.3,6.4-1.4,8.6-3.2c4.1,11.1,7.8,22.3,11.2,32.2c4.8,14.4,8.6,25.9,11.6,31.1v29.6
			c0,0,0,0,0,0l0,10.5c0,35.7-31.3,64.7-69.8,64.7C198.8,787.9,167.5,758.9,167.5,723.2z M208.7,806.1c0.9-0.4,1.4-1.2,1.4-2.2
			v-16.1c8.4,3.1,17.6,4.8,27.1,4.8c8.4,0,16.4-1.3,23.9-3.7v13.5c0,1,0.6,1.9,1.6,2.2c4.3,1.4,8,3.1,11,5
			c-3.1,4.8-13,16.6-36.4,16.1c-22.7-0.5-32.8-10.9-36.2-15.8C203.3,808.6,205.9,807.3,208.7,806.1z M196.5,811.4
			c3.2,5,14.2,18.5,40.8,19c0.5,0,1,0,1.4,0c25.6,0,36.4-13.9,39.5-19c5,1.6,9.9,3.5,14.7,5.7c-3.3,12.7-27.5,22.8-55.5,22.8
			c-28,0-52.2-10.1-55.5-22.8C186.6,814.9,191.5,813,196.5,811.4z M116.8,902.2c4-35.2,26.9-66,60.8-83
			c4.6,14.7,29.3,25.4,59.8,25.4c30.4,0,55.1-10.7,59.8-25.4c33.9,17.1,56.8,47.8,60.8,83H116.8z"/>
		<circle fill="#4A2510" cx="207" cy="688.4" r="4.9"/>
		<circle fill="#4A2510" cx="261.8" cy="688.4" r="4.9"/>
		<path fill="#4A2510" d="M215.1,659.9c3.9,0.3,2.8-2.8,0-4.2c-2.8-1.4-16.2-5.1-27.7,9.2c-2.1,2.5-2.2,5.1-2.2,5.1s0,3.4,5.7-3.1
			C190.8,666.9,196.9,658.3,215.1,659.9z"/>
		<path fill="#4A2510" d="M252.8,661.1c18.1-3.2,24.8,4.9,24.8,4.9c6.2,6,5.9,2.6,5.9,2.6s-0.3-2.5-2.6-4.9
			c-12.7-13.3-25.8-8.5-28.4-6.8C249.8,658.6,248.9,661.8,252.8,661.1z"/>
		<path fill="#4A2510" d="M256.7,734.1c0-1.3-1-2.3-2.3-2.3H215c-1.3,0-2.3,1-2.3,2.3c0,13.3,9.9,24.2,22,24.2
			C246.8,758.3,256.7,747.5,256.7,734.1z M234.7,753.7c-8.9,0-16.2-7.5-17.3-17.2H252C250.9,746.1,243.6,753.7,234.7,753.7z"/>
	</g>
	<g>
		<path fill="#FFE8D4" d="M859.7,823.7c0.1,0,0.3,0,0.4,0c0,0,0,0,0,0c0.1,0,7.1,0.1,15.1-1.7c13.3-3.6,19.3-11.7,21.3-14.9
			c-3.1-2-6.9-3.8-11.3-5.3c-1-0.3-1.6-1.2-1.6-2.2V786c-7.5,2.4-15.6,3.7-23.9,3.7c-9.6,0-18.7-1.7-27.1-4.8v16.1
			c0,0.9-0.6,1.8-1.4,2.2c-3.1,1.3-5.7,2.7-8,4.2C826.1,811.9,836.1,823.3,859.7,823.7z"/>
		<path fill="#FFE8D4" d="M929.5,687.2l-19.6,5.5V704c0,12.7-10.3,23-23,23s-23-10.3-23-23v-13.7h-9.5V704c0,12.7-10.3,23-23,23
			c-12.7,0-23-10.3-23-23v-12.4l-18.6-5.3l0,34c0,35.7,31.3,64.7,69.8,64.7c38.5,0,69.8-29,69.8-64.7v-4.8c0,0,0,0,0,0V687.2z
			 M839.5,732.7h39.4c1.3,0,2.3,1,2.3,2.3c0,13.3-9.9,24.2-22,24.2c-12.1,0-22-10.8-22-24.2C837.1,733.7,838.2,732.7,839.5,732.7z"
			/>
		<path fill="#FFE8D4" d="M854.4,679.5v4.4h9.5v-4.4c0-1.3,1-2.3,2.3-2.3h41.4c1.3,0,2.3,1,2.3,2.3v6.6l15-4.2
			c-7-10.2-13.7-32.1-15-53c-10.7,19.5-33.1,34.8-65.6,44.4c-5.1,1.5-10.2,2.8-15.1,3.9h22.9C853.4,677.1,854.4,678.2,854.4,679.5z
			 M876.5,664.1c2.6-1.6,15.7-6.4,28.4,6.8c2.3,2.4,2.6,4.9,2.6,4.9s0.3,3.3-5.9-2.6c0,0-6.7-8.1-24.8-4.9
			C873,668.9,873.9,665.7,876.5,664.1z"/>
		<path fill="#FFE8D4" d="M808.4,681c-3.6,0.5-6.9,0.9-9.8,1.2l9.8,2.8V681z"/>
		<path fill="#FFE8D4" d="M934.1,713c5.7-1.1,10-6.3,10-12.6s-4.3-11.4-10-12.6V713z"/>
		<path fill="#FFE8D4" d="M775.2,700.4c0,6.2,4.3,11.4,10,12.6v-25.1C779.5,689,775.2,694.2,775.2,700.4z"/>
		<path fill="#4A4C62" d="M867.3,863.5c-1,0-2-0.7-2.2-1.7c-2-7-3.8-16.1-5.1-23.3c-1.3,7.2-3.2,16.3-5.1,23.3
			c-0.3,1-1.2,1.7-2.2,1.7c-32.7,0-57.5-30-63.8-39.9c-27.7,17.8-46,45.5-49.5,76.6h241.1c-3.5-31-21.7-58.6-49.2-76.4
			C924.4,833.9,899.8,863.5,867.3,863.5z"/>
		<path fill="#FFEE8D" d="M859.7,576.5c-38.5,0-69.9,15.8-69.9,35.2c0,0.2,0,0.3,0,0.5l0,0.4l0,65.8c7.2-0.5,29.5-2.5,53.2-9.6
			c25.4-7.6,57.7-22.7,66.9-51.7c0.3-1,1.2-1.6,2.2-1.6c0.1,0,0.3,0,0.4,0c1.1,0.2,2,1.2,1.9,2.4c-1.2,25.9,8.2,53.9,15,62.7v-67.9
			l0-0.5c0-0.2,0-0.3,0-0.5C929.5,592.3,898.2,576.5,859.7,576.5z"/>
		<path fill="#A13D3F" d="M818.6,809.6c-5.2,1.9-18.5,7.1-26,11.5c5.6,8.6,28.5,36.6,58.1,37.7c2.8-10.3,5.2-24.6,6.2-30.4
			C848.9,828,825.6,825.6,818.6,809.6z"/>
		<path fill="#A13D3F" d="M901.2,809.6c-3.5,7.8-11.4,13.5-23,16.5c-6.2,1.6-12.1,2.1-15.3,2.3c1,5.8,3.4,20.1,6.2,30.5
			c29.7-1.1,52.5-29.1,58.1-37.7C919.7,816.6,906.4,811.5,901.2,809.6z"/>
		<path fill="#FFE8D4" d="M859.2,754.5c8.9,0,16.2-7.5,17.3-17.2h-34.5C842.9,747,850.3,754.5,859.2,754.5z"/>
		<path fill="#FFE8D4" d="M813.1,704c0,10.1,8.2,18.4,18.4,18.4c10.1,0,18.4-8.2,18.4-18.4v-22.3h-36.7V704z M831.8,687.3
			c2.7,0,4.9,2.2,4.9,4.9c0,2.7-2.2,4.9-4.9,4.9c-2.7,0-4.9-2.2-4.9-4.9C826.9,689.5,829.1,687.3,831.8,687.3z"/>
		<path fill="#FFE8D4" d="M905.3,681.8h-36.7V704c0,10.1,8.2,18.4,18.4,18.4s18.4-8.2,18.4-18.4V681.8z M886.5,697.1
			c-2.7,0-4.9-2.2-4.9-4.9c0-2.7,2.2-4.9,4.9-4.9c2.7,0,4.9,2.2,4.9,4.9C891.5,694.9,889.3,697.1,886.5,697.1z"/>
		<polygon fill="#4A2510" points="866.2,690.4 866.2,683.9 863.9,683.9 854.4,683.9 852.1,683.9 852.1,690.4 854.4,690.4 
			863.9,690.4 		"/>
		<polygon fill="#4A2510" points="810.2,692.2 812,686 808.4,685 798.7,682.2 787.2,679 786.2,682.7 786.1,683.1 785.5,685.2 
			789.9,686.4 789.9,686.4 808.4,691.7 		"/>
		<polygon fill="#4A2510" points="907.4,686.8 909.1,693 909.9,692.8 929.5,687.2 930.1,687.1 933.9,686 932.1,679.8 924.9,681.8 
			909.9,686 		"/>
		<path fill="#4A2510" d="M932.3,819c-0.2-0.2-0.4-0.5-0.6-0.6c-2.7-1.8-6.6-3.8-10.6-5.7c-5.5-2.7-11.2-5.1-17.2-7.1
			c-1.2-0.5-2.2-0.8-2.7-1c-3.4-2.6-7.7-4.9-12.9-6.7v-13.5c26.9-10.5,45.9-35.2,45.9-64v-2.7c8.3-1.2,14.7-8.4,14.7-17.2
			c0-8.8-6.4-16.1-14.7-17.2l0-70.5l0-0.3c0-0.3,0-0.5,0-0.8c0-10.9-8-21.1-22.4-28.6c-14-7.2-32.5-11.2-52.1-11.2
			c-19.6,0-38.2,4-52.1,11.2c-14.4,7.5-22.4,17.6-22.4,28.6c0,0.3,0,0.5,0,0.8l0,68.4v2.4c-8.3,1.1-14.7,8.4-14.7,17.2
			c0,8.8,6.4,16.1,14.7,17.2v2.7c0,27.6,17.5,51.6,42.7,62.7v16.4c-3.2,1.4-6,3-8.4,4.8c-0.1,0-0.1,0-0.2,0
			c-9.7,2.9-18.8,6.9-27.1,11.6c-0.6,0.4-1.3,0.7-1.8,1c-0.1,0.1-0.2,0.1-0.3,0.2c-0.2,0.1-0.5,0.3-0.7,0.4
			c-31.4,18.9-52.1,49.8-55.1,84.6c-0.1,0.6,0.2,1.3,0.6,1.8c0.4,0.5,1.1,0.8,1.7,0.8h246.2c0.7,0,1.3-0.3,1.7-0.8
			c0.4-0.5,0.7-1.1,0.6-1.8C982.2,868.3,962.4,838,932.3,819z M785.2,713c-5.7-1.1-10-6.3-10-12.6c0-6.2,4.3-11.4,10-12.6V713z
			 M901.2,809.6c5.2,1.9,18.5,7.1,26,11.5c-5.6,8.6-28.5,36.6-58.1,37.7c-2.8-10.3-5.2-24.6-6.2-30.5c3.3-0.1,9.1-0.6,15.3-2.3
			C889.9,823,897.8,817.4,901.2,809.6z M944.2,700.4c0,6.2-4.3,11.4-10,12.6v-25.1C939.8,689,944.2,694.2,944.2,700.4z M859.7,576.5
			c38.5,0,69.9,15.8,69.9,35.2c0,0.2,0,0.3,0,0.5l0,0.5v67.9c-6.8-8.7-16.2-36.7-15-62.7c0.1-1.2-0.8-2.2-1.9-2.4
			c-0.1,0-0.3,0-0.4,0c-1,0-1.9,0.6-2.2,1.6c-9.2,29.1-41.5,44.2-66.9,51.7c-23.7,7-45.9,9.1-53.2,9.6l0-65.8l0-0.4
			c0-0.2,0-0.3,0-0.5C789.8,592.3,821.2,576.5,859.7,576.5z M813.1,681.8h36.7V704c0,10.1-8.2,18.4-18.4,18.4
			c-10.1,0-18.4-8.2-18.4-18.4V681.8z M789.9,720.4l0-34l0,0l-4.4-1.2l0.6-2.1l0.1-0.4l1.1-3.7l11.4,3.2c2.8-0.3,6.1-0.7,9.8-1.2v4
			l3.6,1l-1.8,6.2l-1.8-0.5V704c0,12.7,10.3,23,23,23c12.7,0,23-10.3,23-23v-13.7h-2.3v-6.5h2.3v-4.4c0-1.3-1-2.3-2.3-2.3h-22.9
			c4.9-1.1,10-2.4,15.1-3.9c32.5-9.6,54.9-24.9,65.6-44.4c1.2,21,7.9,42.8,15,53l7.2-2l1.8,6.2l-3.8,1.1l-0.6,0.2v28.3c0,0,0,0,0,0
			v4.8c0,35.7-31.3,64.7-69.8,64.7C821.2,785.1,789.9,756.1,789.9,720.4z M831.1,803.2c0.9-0.4,1.4-1.2,1.4-2.2v-16.1
			c8.4,3.1,17.6,4.8,27.1,4.8c8.4,0,16.4-1.3,23.9-3.7v13.5c0,1,0.6,1.9,1.6,2.2c4.4,1.4,8.3,3.2,11.3,5.3c-2,3.3-8,11.4-21.3,14.9
			c-8,1.8-14.9,1.8-15.1,1.7c0,0,0,0,0,0c-0.1,0-0.3,0-0.4,0c-23.6-0.5-33.6-11.8-36.6-16.3C825.3,805.9,828,804.5,831.1,803.2z
			 M857,828.3c-1,5.8-3.4,20.1-6.2,30.4c-29.7-1.1-52.5-29.1-58.1-37.7c7.4-4.4,20.8-9.6,26-11.5C825.6,825.6,848.9,828,857,828.3z
			 M739.1,900.2c3.5-31.2,21.9-58.8,49.5-76.6c6.4,9.9,31.1,39.9,63.8,39.9c1,0,2-0.7,2.2-1.7c2-7,3.8-16.1,5.1-23.3
			c1.3,7.2,3.2,16.3,5.1,23.3c0.3,1,1.2,1.7,2.2,1.7c32.5,0,57.1-29.6,63.7-39.7c27.5,17.8,45.7,45.4,49.2,76.4H739.1z"/>
		<path fill="#4A2510" d="M876.9,668.2c18.1-3.2,24.8,4.9,24.8,4.9c6.2,6,5.9,2.6,5.9,2.6s-0.3-2.5-2.6-4.9
			c-12.7-13.3-25.8-8.5-28.4-6.8C873.9,665.7,873,668.9,876.9,668.2z"/>
		<path fill="#4A2510" d="M881.2,735c0-1.3-1-2.3-2.3-2.3h-39.4c-1.3,0-2.3,1-2.3,2.3c0,13.3,9.9,24.2,22,24.2
			C871.3,759.2,881.2,748.4,881.2,735z M859.2,754.5c-8.9,0-16.2-7.5-17.3-17.2h34.5C875.4,747,868.1,754.5,859.2,754.5z"/>
		<path fill="#4A2510" d="M886.9,727c12.7,0,23-10.3,23-23v-11.3l-0.8,0.2l-1.8-6.2l2.5-0.7v-6.6c0-1.3-1-2.3-2.3-2.3h-41.4
			c-1.3,0-2.3,1-2.3,2.3v4.4h2.3v6.5h-2.3V704C863.9,716.7,874.2,727,886.9,727z M868.6,681.8h36.7V704c0,10.1-8.2,18.4-18.4,18.4
			s-18.4-8.2-18.4-18.4V681.8z"/>
		<circle fill="#4A2510" cx="831.8" cy="692.2" r="4.9"/>
		<circle fill="#4A2510" cx="886.5" cy="692.2" r="4.9"/>
	</g>
	<g>
		<path fill="#604A36" d="M664,608.4c0-16.7-13.6-30.2-30.2-30.2c-9.9,0-18.8,4.8-24.3,12.2c9,6.3,14.1,14,14.8,22.1
			c0.1,0.7,0.1,1.3,0.1,2c0,0.3,0,0.5,0,0.8l0,0.2v21.7c3,1,6.1,1.5,9.4,1.5C650.4,638.6,664,625,664,608.4z"/>
		<path fill="#604A36" d="M463,578.1c-16.7,0-30.2,13.6-30.2,30.2c0,16.7,13.6,30.2,30.2,30.2c4.4,0,8.6-1,12.4-2.6l0-20.7
			c0-0.3,0-0.5,0-0.8c0-8.2,4.5-16,13-22.6C482.9,583.6,473.6,578.1,463,578.1z"/>
		<path fill="#FFE8D4" d="M577.4,805.2c-0.7-0.2-1.3-0.5-2-0.7c-1-0.3-1.6-1.2-1.6-2.2v-13.5c-7.5,2.4-15.6,3.7-23.9,3.7
			c-9.6,0-18.7-1.7-27.1-4.8v16.1c0,0.9-0.5,1.7-1.3,2.1c8.6,0.4,20,3.8,28,17.1C557.3,809.3,568.7,805.7,577.4,805.2z"/>
		<path fill="#FFE8D4" d="M619.7,688.1C619.7,688.1,619.7,688.1,619.7,688.1l0-3.4c-1,0.1-1.9,0.1-2.8,0.1
			c-28.2,0-52.9-20.6-63.6-52c-10.6,31.4-35.4,52-63.6,52c-3.2,0-6.5-0.3-9.7-0.9v39.2c0,35.7,31.3,64.7,69.8,64.7
			c38.5,0,69.8-29,69.8-64.7v-4.8c0,0,0,0,0,0V688.1z M550.3,762.9c-12.1,0-22-10.8-22-24.2c0-1.3,1-2.3,2.3-2.3H570
			c1.3,0,2.3,1,2.3,2.3C572.3,752.1,562.5,762.9,550.3,762.9z M507.2,701.9h-4.1c0.3-10.7,7.4-19.2,16.2-19.2
			c8.8,0,15.9,8.6,16.2,19.2h-4.1c-0.3-7.9-5.5-14.2-12-14.2C512.8,687.7,507.5,694,507.2,701.9z M590.5,701.1
			c-0.3-7.9-5.5-14.2-12-14.2c-6.5,0-11.8,6.3-12,14.2h-4.1c0.3-10.7,7.4-19.2,16.2-19.2c8.8,0,15.9,8.6,16.2,19.2H590.5z"/>
		<path fill="#FFE8D4" d="M634.3,703.2c0-6.2-4.3-11.4-10-12.6v25.1C630,714.6,634.3,709.4,634.3,703.2z"/>
		<path fill="#FFE8D4" d="M465.4,703.2c0,6.2,4.3,11.4,10,12.6v-25.1C469.7,691.8,465.4,697,465.4,703.2z"/>
		<path fill="#826548" d="M480,614.4c0,0.2,0,0.3,0,0.5l0,0.3c0,0,0,0.1,0,0.1v63.9c3.2,0.6,6.5,0.9,9.7,0.9
			c28.2,0,52.9-22.5,61.3-56.1c0.3-1,1.2-1.8,2.3-1.8c1.1,0,2,0.7,2.3,1.8c8.4,33.6,33.1,56.1,61.3,56.1c0.9,0,1.8,0,2.8-0.1v-64.7
			c0,0,0-0.1,0-0.1l0-0.3c0-0.2,0-0.3,0-0.5c0-18.4-29.7-34.1-66.2-35.1c-0.1,0-0.1,0-0.2,0l-0.3,0c-1.1,0-2.1,0-3.2,0
			C511.3,579.3,480,595,480,614.4z"/>
		<path fill="#BD0126" d="M549.8,831.1C549.8,831.1,549.8,831.1,549.8,831.1c-26.6-0.5-37.7-14-40.8-19
			c-44.1,14.1-75.1,49.3-79.7,90.8h241.1c-4.7-41.4-35.6-76.7-79.7-90.8C587.6,817.3,576.4,831.7,549.8,831.1
			C549.9,831.1,549.9,831.1,549.8,831.1C549.9,831.1,549.8,831.1,549.8,831.1z"/>
		<path fill="#D4D4D4" d="M545.9,826.3c-9.6-16.9-25-16.6-31.8-15.4C524.9,823.7,538,825.7,545.9,826.3z"/>
		<path fill="#D4D4D4" d="M585,810.1c-1.5-0.2-3.3-0.4-5.5-0.4c-7.7,0-18.7,2.7-26.3,15.9C561.1,825,574.2,823,585,810.1z"/>
		<path fill="#FFE8D4" d="M567.6,741.1h-34.5c1,9.7,8.4,17.2,17.3,17.2C559.2,758.3,566.5,750.7,567.6,741.1z"/>
		<path fill="#4A2510" d="M591.5,807.6c-3.4-2.7-7.9-5-13.1-6.9v-13.5c26.9-10.5,45.9-35.2,45.9-64v-2.7c8.3-1.2,14.7-8.4,14.7-17.2
			c0-8.8-6.4-16.1-14.7-17.2v-3.7v-40.3c3,0.8,6.1,1.3,9.4,1.3c19.2,0,34.9-15.7,34.9-34.9c0-19.2-15.7-34.9-34.9-34.9
			c-11.6,0-21.8,5.7-28.2,14.4c-1.1-0.7-2.3-1.3-3.6-2c-13-6.8-30.1-10.7-48.3-11.2c0,0,0,0,0,0l0,0l-0.5,0c0,0-0.1,0-0.1,0
			c-1.1,0-2.1,0-3.2,0c-19.6,0-38.2,4-52.1,11.2c-2,1-3.9,2.1-5.6,3.3c-6.3-9.4-17-15.7-29.1-15.7c-19.2,0-34.9,15.7-34.9,34.9
			c0,19.2,15.6,34.9,34.9,34.9c4.3,0,8.5-0.8,12.4-2.3l0,40.1v4.8c-8.3,1.1-14.7,8.4-14.7,17.2c0,8.8,6.4,16.1,14.7,17.2v2.7
			c0,27.6,17.5,51.6,42.7,62.7v16.4c-3.2,1.4-6,3-8.4,4.8c-0.1,0-0.2,0.1-0.2,0.1c0,0,0,0,0,0c0,0,0,0,0,0l0,0h0
			c-47.8,14.5-81.1,52.9-85,97.9c-0.1,0.6,0.2,1.3,0.6,1.8c0.4,0.5,1.1,0.8,1.7,0.8H673c0.7,0,1.3-0.3,1.7-0.8
			c0.4-0.5,0.7-1.1,0.6-1.8C671.4,860.5,638.6,822.3,591.5,807.6z M475.4,715.8c-5.7-1.1-10-6.3-10-12.6c0-6.2,4.3-11.4,10-12.6
			V715.8z M514.2,810.8c6.8-1.1,22.1-1.5,31.8,15.4C538,825.7,524.9,823.7,514.2,810.8z M553.2,825.6c7.6-13.2,18.6-15.9,26.3-15.9
			c2.1,0,4,0.2,5.5,0.4C574.2,823,561.1,825,553.2,825.6z M634.3,703.2c0,6.2-4.3,11.4-10,12.6v-25.1
			C630,691.8,634.3,697,634.3,703.2z M633.7,578.1c16.7,0,30.2,13.6,30.2,30.2c0,16.7-13.6,30.2-30.2,30.2c-3.3,0-6.4-0.5-9.4-1.5
			v-21.7l0-0.2c0-0.3,0-0.5,0-0.8c0-0.7,0-1.3-0.1-2c-0.1-0.6-0.1-1.2-0.3-1.9c0,0,0-0.1,0-0.1c-1.3-7.4-6.3-14.3-14.6-20.1
			C614.9,582.9,623.8,578.1,633.7,578.1z M549.9,579.3c1,0,2.1,0,3.2,0l0.3,0c0.1,0,0.1,0,0.2,0c36.5,1,66.2,16.7,66.2,35.1
			c0,0.2,0,0.3,0,0.5l0,0.3c0,0,0,0.1,0,0.1v64.7c-1,0.1-1.9,0.1-2.8,0.1c-28.2,0-52.9-22.5-61.3-56.1c-0.3-1-1.2-1.8-2.3-1.8
			c-1.1,0-2,0.7-2.3,1.8c-8.4,33.6-33.1,56.1-61.3,56.1c-3.2,0-6.5-0.3-9.7-0.9v-63.9c0,0,0-0.1,0-0.1l0-0.3c0-0.2,0-0.3,0-0.5
			C480,595,511.3,579.3,549.9,579.3z M475.3,614.4c0,0.3,0,0.5,0,0.8l0,20.7c-3.8,1.7-8,2.6-12.4,2.6c-16.7,0-30.2-13.6-30.2-30.2
			c0-16.7,13.6-30.2,30.2-30.2c10.6,0,19.9,5.5,25.3,13.7C479.9,598.4,475.3,606.2,475.3,614.4z M480,723.1v-39.2
			c3.2,0.6,6.5,0.9,9.7,0.9c28.2,0,52.9-20.6,63.6-52c10.6,31.4,35.4,52,63.6,52c0.9,0,1.8,0,2.8-0.1v3.4c0,0,0,0,0,0v30.2
			c0,0,0,0,0,0v4.8c0,35.7-31.3,64.7-69.8,64.7C511.4,787.8,480,758.8,480,723.1z M549.9,792.5c8.4,0,16.4-1.3,23.9-3.7v13.5
			c0,1,0.6,1.9,1.6,2.2c0.7,0.2,1.4,0.5,2,0.7c-8.7,0.5-20.1,4.1-28,17.7c-8-13.2-19.4-16.7-28-17.1c0.8-0.4,1.3-1.2,1.3-2.1v-16.1
			C531.1,790.8,540.3,792.5,549.9,792.5z M429.3,902.9c4.7-41.4,35.6-76.7,79.7-90.8c3.2,5,14.2,18.5,40.8,19c0,0,0,0,0,0
			c0,0,0,0,0,0c0,0,0,0,0,0c26.6,0.5,37.7-13.8,40.9-19c44.1,14.1,75,49.3,79.7,90.8H429.3z"/>
		<path fill="#4A2510" d="M572.3,738.7c0-1.3-1-2.3-2.3-2.3h-39.4c-1.3,0-2.3,1-2.3,2.3c0,13.3,9.9,24.2,22,24.2
			C562.5,762.9,572.3,752.1,572.3,738.7z M533.1,741.1h34.5c-1,9.7-8.4,17.2-17.3,17.2C541.4,758.3,534.1,750.7,533.1,741.1z"/>
		<path fill="#4A2510" d="M535.4,701.9c-0.3-10.7-7.4-19.2-16.2-19.2c-8.8,0-15.9,8.6-16.2,19.2h4.1c0.3-7.9,5.5-14.2,12-14.2
			c6.5,0,11.8,6.3,12,14.2H535.4z"/>
		<path fill="#4A2510" d="M578.4,687c6.5,0,11.8,6.3,12,14.2h4.1c-0.3-10.7-7.4-19.2-16.2-19.2c-8.8,0-15.9,8.6-16.2,19.2h4.1
			C566.6,693.3,571.9,687,578.4,687z"/>
	</g>
	<g>
		<path fill="#FFDF8F" d="M1099.5,717.1v-2.7c-8.3-1.1-14.7-8.4-14.7-17.2c0-8.8,6.4-16.1,14.7-17.2v-27.1l0-43.6c0-0.3,0-0.5,0-0.8
			c0-1.4,0.1-2.7,0.4-4.1c1.7-9.4,9.4-17.9,22-24.5c14-7.2,32.5-11.2,52.1-11.2s38.2,4,52.1,11.2c14.4,7.5,22.4,17.6,22.4,28.6
			c0,0.3,0,0.5,0,0.8l0,0.3l0,43.4c0,0,0,0,0,0l0,27.1c8.3,1.2,14.7,8.4,14.7,17.2c0,8.8-6.4,16.1-14.7,17.2v2.7
			c0,28.8-19,53.6-45.9,64v7.6h78.8c0-8.6,0-39,0-62.4c0,0,0,0,0,0c0.6-70.1-13.6-119.9-42.2-148.1c-22.5-22.2-48.5-25-61.9-24.7
			c-15-0.3-43.7,2.8-68.1,26.8c-28.9,28.6-43.3,77.7-42.6,146c0,23.4,0,53.9,0,62.5h75.6v-9C1116.9,768.7,1099.5,744.8,1099.5,717.1
			z"/>
		<path fill="#FFE8D4" d="M1174,820.5c0.1,0,0.3,0,0.4,0c0,0,0,0,0,0c0.2,0,7.2,0.1,15.1-1.8c13.3-3.6,19.3-11.7,21.2-14.9
			c-3.1-2-6.9-3.8-11.3-5.3c-1-0.3-1.6-1.2-1.6-2.2v-13.5c-7.5,2.4-15.6,3.7-23.9,3.7c-9.6,0-18.7-1.7-27.1-4.8v16.1
			c0,0.9-0.6,1.8-1.4,2.2c-3.1,1.3-5.7,2.7-8,4.2C1140.4,808.7,1150.4,820,1174,820.5z"/>
		<path fill="#FFE8D4" d="M1243.8,682.1C1243.8,682.1,1243.8,682.1,1243.8,682.1l0-27h-34.3c-1,0-1.9-0.6-2.2-1.6l-3.3-10.2
			l-2.2,8.7c-0.3,1-1.2,1.7-2.2,1.8l-37.8,0.5c-1,0-1.9-0.6-2.2-1.5l-3.5-9.8l-2.4,10c-0.2,1-1.2,1.8-2.2,1.8l-47.3,0.2l0,62
			c0,35.7,31.3,64.7,69.8,64.7c38.5,0,69.8-29,69.8-64.7v-4.8c0,0,0,0,0,0V682.1z M1194.4,727.3c1.3,0,2.3,1,2.3,2.3
			c0,13.3-9.9,24.2-22,24.2c-12.1,0-22-10.8-22-24.2c0-1.3,1-2.3,2.3-2.3H1194.4z M1125.2,674.1c0,0,0.1-2.5,2.2-5.1
			c11.6-14.3,25-10.6,27.7-9.2c2.8,1.4,3.9,4.5,0,4.2c-18.3-1.6-24.3,7-24.3,7C1125.2,677.4,1125.2,674.1,1125.2,674.1z
			 M1133.1,689.9h-4.1c0.3-10.7,7.4-19.2,16.2-19.2s15.9,8.6,16.2,19.2h-4.1c-0.3-7.9-5.5-14.2-12-14.2S1133.4,682,1133.1,689.9z
			 M1216.4,689.2c-0.3-7.9-5.5-14.2-12-14.2c-6.5,0-11.8,6.3-12,14.2h-4.1c0.3-10.7,7.4-19.2,16.2-19.2c8.8,0,15.9,8.6,16.2,19.2
			H1216.4z M1217.6,670c0,0-6.7-8.1-24.8-4.9c-3.9,0.7-3-2.5-0.4-4.1c2.6-1.6,15.7-6.4,28.4,6.8c2.3,2.4,2.6,4.9,2.6,4.9
			S1223.8,676,1217.6,670z"/>
		<path fill="#FFE8D4" d="M1258.4,697.2c0-6.2-4.3-11.4-10-12.6v25.1C1254.1,708.6,1258.4,703.4,1258.4,697.2z"/>
		<path fill="#FFE8D4" d="M1099.5,709.8v-25.1c-5.7,1.1-10,6.3-10,12.6S1093.8,708.6,1099.5,709.8z"/>
		<path fill="#BD0126" d="M1181.5,860.2c-1,0-2-0.7-2.2-1.7c-2-7-3.8-16.1-5.1-23.3c-1.3,7.2-3.2,16.3-5.1,23.3
			c-0.3,1-1.2,1.7-2.2,1.7c-32.7,0-57.5-30-63.8-39.9c-27.7,17.8-46,45.5-49.5,76.6h241.1c-3.5-31-21.7-58.6-49.2-76.4
			C1238.7,830.6,1214,860.2,1181.5,860.2z"/>
		<path fill="#4A4C62" d="M1132.8,806.3c-5.2,1.9-18.5,7.1-26,11.5c5.6,8.6,28.5,36.6,58.1,37.7c2.8-10.3,5.2-24.6,6.2-30.4
			C1163.1,824.7,1139.9,822.3,1132.8,806.3z"/>
		<path fill="#4A4C62" d="M1215.5,806.3c-3.5,7.8-11.4,13.5-23,16.5c-6.2,1.6-12.1,2.1-15.3,2.3c1,5.8,3.4,20.1,6.2,30.5
			c29.7-1.1,52.5-29.1,58.1-37.7C1234,813.4,1220.7,808.3,1215.5,806.3z"/>
		<path fill="#FFEE8D" d="M1155.4,632.7c1-0.1,2,0.6,2.3,1.5l5.6,15.5l34.3-0.5l3.7-14.8c0.3-1,1.1-1.7,2.2-1.8c1,0,2,0.6,2.3,1.6
			l5.3,16.2h32.6l0-41.6c0-0.2,0-0.3,0-0.5c0-19.4-31.3-35.2-69.9-35.2s-69.9,15.8-69.9,35.2c0,0.2,0,0.3,0,0.5l0,0.4l0,41.2
			l45.5-0.2l3.7-15.8C1153.6,633.5,1154.4,632.7,1155.4,632.7z"/>
		<path fill="#FFE8D4" d="M1174.7,749.1c8.9,0,16.2-7.5,17.3-17.2h-34.5C1158.5,741.6,1165.9,749.1,1174.7,749.1z"/>
		<path fill="#4A2510" d="M1246.5,815.8c-0.2-0.2-0.4-0.5-0.6-0.6c-2.7-1.8-6.6-3.8-10.6-5.7c-5.5-2.7-11.2-5.1-17.2-7.1
			c-1.2-0.5-2.2-0.8-2.7-1c-3.4-2.6-7.7-4.9-12.9-6.7v-1.2h81.2c0.6,0,1.2-0.2,1.6-0.7c0.4-0.4,0.7-1,0.7-1.6c0,0,0-37.2,0-64.7
			c0.6-71.4-14-122.3-43.6-151.5c-23.7-23.4-51.1-26.4-65.2-26.1c-15.7-0.3-45.8,2.9-71.3,28.2c-29.8,29.5-44.6,79.7-44,149.3
			c0,27.5,0,64.8,0,64.8c0,0.6,0.2,1.2,0.7,1.6c0.4,0.4,1,0.7,1.6,0.7h77.9v2.8c-3.2,1.4-6,3-8.4,4.8c-0.1,0-0.1,0-0.2,0
			c-9.7,2.9-18.8,6.9-27.1,11.6c-0.6,0.3-1.2,0.7-1.8,1c-0.1,0.1-0.2,0.1-0.3,0.2c-0.2,0.1-0.4,0.2-0.6,0.3
			c-31.5,18.9-52.2,49.8-55.2,84.7c-0.1,0.6,0.2,1.3,0.6,1.8c0.4,0.5,1.1,0.8,1.7,0.8h246.2c0.7,0,1.3-0.3,1.7-0.8
			c0.4-0.5,0.7-1.1,0.6-1.8C1296.4,865,1276.6,834.8,1246.5,815.8z M1215.5,806.3c5.2,1.9,18.5,7.1,26,11.5
			c-5.6,8.6-28.5,36.6-58.1,37.7c-2.8-10.3-5.2-24.6-6.2-30.5c3.3-0.1,9.1-0.6,15.3-2.3C1204.1,819.8,1212,814.1,1215.5,806.3z
			 M1066.5,788.8c0-8.6,0-39,0-62.5c-0.6-68.3,13.7-117.4,42.6-146c24.4-24.1,53-27.2,68.1-26.8c13.4-0.3,39.4,2.5,61.9,24.7
			c28.6,28.2,42.8,78.1,42.2,148.1c0,0,0,0,0,0c0,23.4,0,53.9,0,62.4h-78.8v-7.6c26.9-10.5,45.9-35.2,45.9-64v-2.7
			c8.3-1.2,14.7-8.4,14.7-17.2c0-8.8-6.4-16.1-14.7-17.2l0-27.1c0,0,0,0,0,0l0-43.4l0-0.3c0-0.3,0-0.5,0-0.8
			c0-10.9-8-21.1-22.4-28.6c-14-7.2-32.5-11.2-52.1-11.2s-38.2,4-52.1,11.2c-12.6,6.6-20.3,15.1-22,24.5c-0.2,1.3-0.4,2.7-0.4,4.1
			c0,0.3,0,0.5,0,0.8l0,43.6V680c-8.3,1.1-14.7,8.4-14.7,17.2c0,8.8,6.4,16.1,14.7,17.2v2.7c0,27.6,17.5,51.6,42.7,62.7v9H1066.5z
			 M1248.4,684.6c5.7,1.1,10,6.3,10,12.6s-4.3,11.4-10,12.6V684.6z M1243.8,608.9l0,41.6h-32.6l-5.3-16.2c-0.3-1-1.3-1.6-2.3-1.6
			c-1,0-1.9,0.8-2.2,1.8l-3.7,14.8l-34.3,0.5l-5.6-15.5c-0.4-1-1.3-1.6-2.3-1.5c-1,0.1-1.9,0.8-2.1,1.8l-3.7,15.8l-45.5,0.2l0-41.2
			l0-0.4c0-0.2,0-0.3,0-0.5c0-19.4,31.3-35.2,69.9-35.2s69.9,15.8,69.9,35.2C1243.8,608.6,1243.8,608.7,1243.8,608.9z M1151.5,654.9
			c1.1,0,2-0.7,2.2-1.8l2.4-10l3.5,9.8c0.3,0.9,1.2,1.5,2.2,1.5l37.8-0.5c1.1,0,2-0.7,2.2-1.8l2.2-8.7l3.3,10.2
			c0.3,1,1.2,1.6,2.2,1.6h34.3v26.9c0,0,0,0,0,0v30.2c0,0,0,0,0,0v4.8c0,35.7-31.3,64.7-69.8,64.7c-38.5,0-69.8-29-69.8-64.7l0-62
			L1151.5,654.9z M1099.5,684.6v25.1c-5.7-1.1-10-6.3-10-12.6S1093.8,685.8,1099.5,684.6z M1145.3,800c0.9-0.4,1.4-1.2,1.4-2.2
			v-16.1c8.4,3.1,17.6,4.8,27.1,4.8c8.4,0,16.4-1.3,23.9-3.7v13.5c0,1,0.6,1.9,1.6,2.2c4.4,1.4,8.3,3.2,11.3,5.3
			c-2,3.3-8,11.3-21.2,14.9c-8,1.8-15,1.8-15.1,1.8c0,0,0,0,0,0c-0.1,0-0.3,0-0.4,0c-23.6-0.5-33.6-11.8-36.6-16.3
			C1139.6,802.6,1142.3,801.2,1145.3,800z M1171.2,825.1c-1,5.8-3.4,20.1-6.2,30.4c-29.7-1.1-52.5-29.1-58.1-37.7
			c7.4-4.4,20.8-9.6,26-11.5C1139.9,822.3,1163.1,824.7,1171.2,825.1z M1053.4,896.9c3.5-31.2,21.9-58.8,49.5-76.6
			c6.4,9.9,31.1,39.9,63.8,39.9c1,0,2-0.7,2.2-1.7c2-7,3.8-16.1,5.1-23.3c1.3,7.2,3.2,16.3,5.1,23.3c0.3,1,1.2,1.7,2.2,1.7
			c32.5,0,57.1-29.6,63.7-39.7c27.5,17.8,45.7,45.4,49.2,76.4H1053.4z"/>
		<path fill="#4A2510" d="M1130.9,671c0,0,6-8.7,24.3-7c3.9,0.3,2.8-2.8,0-4.2c-2.8-1.4-16.2-5.1-27.7,9.2c-2.1,2.5-2.2,5.1-2.2,5.1
			S1125.2,677.4,1130.9,671z"/>
		<path fill="#4A2510" d="M1192.9,665.1c18.1-3.2,24.8,4.9,24.8,4.9c6.2,6,5.9,2.6,5.9,2.6s-0.3-2.5-2.6-4.9
			c-12.7-13.3-25.8-8.5-28.4-6.8C1189.9,662.6,1189,665.8,1192.9,665.1z"/>
		<path fill="#4A2510" d="M1152.7,729.6c0,13.3,9.9,24.2,22,24.2c12.1,0,22-10.8,22-24.2c0-1.3-1-2.3-2.3-2.3H1155
			C1153.8,727.3,1152.7,728.3,1152.7,729.6z M1192,731.9c-1,9.7-8.4,17.2-17.3,17.2c-8.9,0-16.2-7.5-17.3-17.2H1192z"/>
		<path fill="#4A2510" d="M1145.2,670.7c-8.8,0-15.9,8.6-16.2,19.2h4.1c0.3-7.9,5.5-14.2,12-14.2s11.8,6.3,12,14.2h4.1
			C1161.1,679.2,1154,670.7,1145.2,670.7z"/>
		<path fill="#4A2510" d="M1204.3,675c6.5,0,11.8,6.3,12,14.2h4.1c-0.3-10.7-7.4-19.2-16.2-19.2c-8.8,0-15.9,8.6-16.2,19.2h4.1
			C1192.5,681.3,1197.8,675,1204.3,675z"/>
	</g>
</g>
</svg>
