<?xml version="1.0" encoding="UTF-8" standalone="no"?>
<svg width="600px" height="600px" viewBox="0 0 600 600" version="1.1" xmlns="http://www.w3.org/2000/svg" xmlns:xlink="http://www.w3.org/1999/xlink">
    <!-- Generator: Sketch 40.3 (33839) - http://www.bohemiancoding.com/sketch -->
    <title>icon-elux-faq-hobs-blue</title>
    <desc>Created with Sketch.</desc>
    <defs></defs>
    <g id="Page-1" stroke="none" stroke-width="1" fill="none" fill-rule="evenodd">
        <g id="elux-blue" transform="translate(-2055.000000, -101.000000)">
            <g id="icon-elux-faq-hobs-blue" transform="translate(2055.000000, 101.000000)">
                <g id="Layer_2" fill="#1B2450">
                    <path d="M300,23.15 C452.66,23.15 576.85,147.34 576.85,300 C576.85,452.66 452.66,576.85 300,576.85 C147.34,576.85 23.15,452.66 23.15,300 C23.15,147.34 147.34,23.15 300,23.15 L300,23.15 Z M300,0 C134.31,0 0,134.31 0,300 C0,465.69 134.31,600 300,600 C465.69,600 600,465.69 600,300 C600,134.31 465.69,0 300,0 L300,0 L300,0 Z" id="Shape"></path>
                </g>
                <path d="M105,299.983968 C105,192.2988 192.2988,105 300.003426,105 C407.701567,105 494.99388,192.2988 494.99388,299.983968 C494.99388,407.740484 407.701567,495.045771 300.003426,495.045771 C192.2988,495.045771 105,407.740484 105,299.983968 L105,299.983968 Z M147.749872,299.991233 C147.749872,215.910337 215.909713,147.750496 300.003271,147.750496 C384.090497,147.750496 452.244008,215.910337 452.244008,299.991233 C452.244008,384.129103 384.090497,452.295275 300.003271,452.295275 C215.909713,452.295275 147.749872,384.129103 147.749872,299.991233 L147.749872,299.991233 Z M190.718356,299.99897 C190.718356,239.650025 239.642016,190.720386 300.002919,190.720386 C360.357843,190.720386 409.275524,239.650025 409.275524,299.99897 C409.275524,360.389767 360.357843,409.325384 300.002919,409.325384 C239.642016,409.325384 190.718356,360.389767 190.718356,299.99897 L190.718356,299.99897 Z" id="Stroke-3" stroke="#1B2450" stroke-width="22" stroke-linecap="round"></path>
            </g>
        </g>
    </g>
</svg>