<?xml version="1.0"?>
<svg width="251" height="334" xmlns="http://www.w3.org/2000/svg" xmlns:svg="http://www.w3.org/2000/svg">
 <g class="layer">
  <title>Layer 1</title>
  <g id="svg_2">
   <g id="svg_3"/>
   <g id="svg_33"/>
   <g id="svg_57"/>
   <g id="svg_73"/>
   <g id="svg_91"/>
   <g id="svg_106"/>
   <g id="svg_129">
    <path d="m239.519379,34.800024c0,-16.7 -13.6,-30.2 -30.2,-30.2c-9.9,0 -18.8,4.8 -24.3,12.2c9,6.3 14.1,14 14.8,22.1c0.1,0.7 0.1,1.3 0.1,2c0,0.3 0,0.5 0,0.8l0,0.2l0,21.7c3,1 6.1,1.5 9.4,1.5c16.6,-0.1 30.2,-13.7 30.2,-30.3z" fill="#604A36" id="svg_130"/>
    <path d="m38.519379,4.500024c-16.7,0 -30.2,13.6 -30.2,30.2c0,16.7 13.6,30.2 30.2,30.2c4.4,0 8.6,-1 12.4,-2.6l0,-20.7c0,-0.3 0,-0.5 0,-0.8c0,-8.2 4.5,-16 13,-22.6c-5.5,-8.2 -14.8,-13.7 -25.4,-13.7z" fill="#604A36" id="svg_131"/>
    <path d="m152.919379,231.600024c-0.7,-0.2 -1.3,-0.5 -2,-0.7c-1,-0.3 -1.6,-1.2 -1.6,-2.2l0,-13.5c-7.5,2.4 -15.6,3.7 -23.9,3.7c-9.6,0 -18.7,-1.7 -27.1,-4.8l0,16.1c0,0.9 -0.5,1.7 -1.3,2.1c8.6,0.4 20,3.8 28,17.1c7.8,-13.7 19.2,-17.3 27.9,-17.8z" fill="#FFE8D4" id="svg_132"/>
    <path d="m195.219379,114.500024c0,0 0,0 0,0l0,-3.4c-1,0.1 -1.9,0.1 -2.8,0.1c-28.2,0 -52.9,-20.6 -63.6,-52c-10.6,31.4 -35.4,52 -63.6,52c-3.2,0 -6.5,-0.3 -9.7,-0.9l0,39.2c0,35.7 31.3,64.7 69.8,64.7c38.5,0 69.8,-29 69.8,-64.7l0,-4.8c0,0 0,0 0,0l0,-30.2l0.1,0zm-69.4,74.8c-12.1,0 -22,-10.8 -22,-24.2c0,-1.3 1,-2.3 2.3,-2.3l39.4,0c1.3,0 2.3,1 2.3,2.3c0,13.4 -9.8,24.2 -22,24.2zm-43.1,-61l-4.1,0c0.3,-10.7 7.4,-19.2 16.2,-19.2c8.8,0 15.9,8.6 16.2,19.2l-4.1,0c-0.3,-7.9 -5.5,-14.2 -12,-14.2c-6.6,0 -11.9,6.3 -12.2,14.2zm83.3,-0.8c-0.3,-7.9 -5.5,-14.2 -12,-14.2c-6.5,0 -11.8,6.3 -12,14.2l-4.1,0c0.3,-10.7 7.4,-19.2 16.2,-19.2c8.8,0 15.9,8.6 16.2,19.2l-4.3,0z" fill="#FFE8D4" id="svg_133"/>
    <path d="m209.819379,129.600024c0,-6.2 -4.3,-11.4 -10,-12.6l0,25.1c5.7,-1.1 10,-6.3 10,-12.5z" fill="#FFE8D4" id="svg_134"/>
    <path d="m40.919379,129.600024c0,6.2 4.3,11.4 10,12.6l0,-25.1c-5.7,1.1 -10,6.3 -10,12.5z" fill="#FFE8D4" id="svg_135"/>
    <path d="m55.519379,40.800024c0,0.2 0,0.3 0,0.5l0,0.3c0,0 0,0.1 0,0.1l0,63.9c3.2,0.6 6.5,0.9 9.7,0.9c28.2,0 52.9,-22.5 61.3,-56.1c0.3,-1 1.2,-1.8 2.3,-1.8c1.1,0 2,0.7 2.3,1.8c8.4,33.6 33.1,56.1 61.3,56.1c0.9,0 1.8,0 2.8,-0.1l0,-64.7c0,0 0,-0.1 0,-0.1l0,-0.3c0,-0.2 0,-0.3 0,-0.5c0,-18.4 -29.7,-34.1 -66.2,-35.1c-0.1,0 -0.1,0 -0.2,0l-0.3,0c-1.1,0 -2.1,0 -3.2,0c-38.5,0 -69.8,15.7 -69.8,35.1z" fill="#826548" id="svg_136"/>
    <path d="m125.319379,257.500024c0,0 0,0 0,0c-26.6,-0.5 -37.7,-14 -40.8,-19c-44.1,14.1 -75.1,49.3 -79.7,90.8l241.1,0c-4.7,-41.4 -35.6,-76.7 -79.7,-90.8c-3.1,5.2 -14.3,19.6 -40.9,19c0.1,0 0.1,0 0,0c0.1,0 0,0 0,0z" fill="#BD0126" id="svg_137"/>
    <path d="m121.419379,252.700024c-9.6,-16.9 -25,-16.6 -31.8,-15.4c10.8,12.8 23.9,14.8 31.8,15.4z" fill="#D4D4D4" id="svg_138"/>
    <path d="m160.519379,236.500024c-1.5,-0.2 -3.3,-0.4 -5.5,-0.4c-7.7,0 -18.7,2.7 -26.3,15.9c7.9,-0.6 21,-2.6 31.8,-15.5z" fill="#D4D4D4" id="svg_139"/>
    <path d="m143.119379,167.500024l-34.5,0c1,9.7 8.4,17.2 17.3,17.2c8.8,0 16.1,-7.6 17.2,-17.2z" fill="#FFE8D4" id="svg_140"/>
    <path d="m167.019379,234.000024c-3.4,-2.7 -7.9,-5 -13.1,-6.9l0,-13.5c26.9,-10.5 45.9,-35.2 45.9,-64l0,-2.7c8.3,-1.2 14.7,-8.4 14.7,-17.2c0,-8.8 -6.4,-16.1 -14.7,-17.2l0,-3.7l0,-40.3c3,0.8 6.1,1.3 9.4,1.3c19.2,0 34.9,-15.7 34.9,-34.9c0,-19.2 -15.7,-34.9 -34.9,-34.9c-11.6,0 -21.8,5.7 -28.2,14.4c-1.1,-0.7 -2.3,-1.3 -3.6,-2c-13,-6.8 -30.1,-10.7 -48.3,-11.2c0,0 0,0 0,0l0,0l-0.5,0c0,0 -0.1,0 -0.1,0c-1.1,0 -2.1,0 -3.2,0c-19.6,0 -38.2,4 -52.1,11.2c-2,1 -3.9,2.1 -5.6,3.3c-6.3,-9.4 -17,-15.7 -29.1,-15.7c-19.2,0 -34.9,15.7 -34.9,34.9c0,19.2 15.6,34.9 34.9,34.9c4.3,0 8.5,-0.8 12.4,-2.3l0,40.1l0,4.8c-8.3,1.1 -14.7,8.4 -14.7,17.2c0,8.8 6.4,16.1 14.7,17.2l0,2.7c0,27.6 17.5,51.6 42.7,62.7l0,16.4c-3.2,1.4 -6,3 -8.4,4.8c-0.1,0 -0.2,0.1 -0.2,0.1c0,0 0,0 0,0c0,0 0,0 0,0l0,0l0,0c-47.8,14.5 -81.1,52.9 -85,97.9c-0.1,0.6 0.2,1.3 0.6,1.8c0.4,0.5 1.1,0.8 1.7,0.8l246.2,0c0.7,0 1.3,-0.3 1.7,-0.8c0.4,-0.5 0.7,-1.1 0.6,-1.8c-3.9,-44.5 -36.7,-82.7 -83.8,-97.4zm-116.1,-91.8c-5.7,-1.1 -10,-6.3 -10,-12.6c0,-6.2 4.3,-11.4 10,-12.6l0,25.2zm38.8,95c6.8,-1.1 22.1,-1.5 31.8,15.4c-8,-0.5 -21.1,-2.5 -31.8,-15.4zm39,14.8c7.6,-13.2 18.6,-15.9 26.3,-15.9c2.1,0 4,0.2 5.5,0.4c-10.8,12.9 -23.9,14.9 -31.8,15.5zm81.1,-122.4c0,6.2 -4.3,11.4 -10,12.6l0,-25.1c5.7,1.1 10,6.3 10,12.5zm-0.6,-125.1c16.7,0 30.2,13.6 30.2,30.2c0,16.7 -13.6,30.2 -30.2,30.2c-3.3,0 -6.4,-0.5 -9.4,-1.5l0,-21.7l0,-0.2c0,-0.3 0,-0.5 0,-0.8c0,-0.7 0,-1.3 -0.1,-2c-0.1,-0.6 -0.1,-1.2 -0.3,-1.9c0,0 0,-0.1 0,-0.1c-1.3,-7.4 -6.3,-14.3 -14.6,-20.1c5.6,-7.3 14.5,-12.1 24.4,-12.1zm-83.8,1.2c1,0 2.1,0 3.2,0l0.3,0c0.1,0 0.1,0 0.2,0c36.5,1 66.2,16.7 66.2,35.1c0,0.2 0,0.3 0,0.5l0,0.3c0,0 0,0.1 0,0.1l0,64.7c-1,0.1 -1.9,0.1 -2.8,0.1c-28.2,0 -52.9,-22.5 -61.3,-56.1c-0.3,-1 -1.2,-1.8 -2.3,-1.8c-1.1,0 -2,0.7 -2.3,1.8c-8.4,33.6 -33.1,56.1 -61.3,56.1c-3.2,0 -6.5,-0.3 -9.7,-0.9l0,-63.9c0,0 0,-0.1 0,-0.1l0,-0.3c0,-0.2 0,-0.3 0,-0.5c-0.1,-19.4 31.2,-35.1 69.8,-35.1zm-74.6,35.1c0,0.3 0,0.5 0,0.8l0,20.7c-3.8,1.7 -8,2.6 -12.4,2.6c-16.7,0 -30.2,-13.6 -30.2,-30.2c0,-16.7 13.6,-30.2 30.2,-30.2c10.6,0 19.9,5.5 25.3,13.7c-8.3,6.6 -12.9,14.4 -12.9,22.6zm4.7,108.7l0,-39.2c3.2,0.6 6.5,0.9 9.7,0.9c28.2,0 52.9,-20.6 63.6,-52c10.6,31.4 35.4,52 63.6,52c0.9,0 1.8,0 2.8,-0.1l0,3.4c0,0 0,0 0,0l0,30.2c0,0 0,0 0,0l0,4.8c0,35.7 -31.3,64.7 -69.8,64.7c-38.5,0 -69.9,-29 -69.9,-64.7zm69.9,69.4c8.4,0 16.4,-1.3 23.9,-3.7l0,13.5c0,1 0.6,1.9 1.6,2.2c0.7,0.2 1.4,0.5 2,0.7c-8.7,0.5 -20.1,4.1 -28,17.7c-8,-13.2 -19.4,-16.7 -28,-17.1c0.8,-0.4 1.3,-1.2 1.3,-2.1l0,-16.1c8.4,3.2 17.6,4.9 27.2,4.9zm-120.6,110.4c4.7,-41.4 35.6,-76.7 79.7,-90.8c3.2,5 14.2,18.5 40.8,19c0,0 0,0 0,0c0,0 0,0 0,0c0,0 0,0 0,0c26.6,0.5 37.7,-13.8 40.9,-19c44.1,14.1 75,49.3 79.7,90.8l-241.1,0z" fill="#4A2510" id="svg_141"/>
    <path d="m147.819379,165.100024c0,-1.3 -1,-2.3 -2.3,-2.3l-39.4,0c-1.3,0 -2.3,1 -2.3,2.3c0,13.3 9.9,24.2 22,24.2c12.2,0 22,-10.8 22,-24.2zm-39.2,2.4l34.5,0c-1,9.7 -8.4,17.2 -17.3,17.2c-8.9,0 -16.2,-7.6 -17.2,-17.2z" fill="#4A2510" id="svg_142"/>
    <path d="m110.919379,128.300024c-0.3,-10.7 -7.4,-19.2 -16.2,-19.2c-8.8,0 -15.9,8.6 -16.2,19.2l4.1,0c0.3,-7.9 5.5,-14.2 12,-14.2c6.5,0 11.8,6.3 12,14.2l4.3,0z" fill="#4A2510" id="svg_143"/>
    <path d="m153.919379,113.400024c6.5,0 11.8,6.3 12,14.2l4.1,0c-0.3,-10.7 -7.4,-19.2 -16.2,-19.2c-8.8,0 -15.9,8.6 -16.2,19.2l4.1,0c0.4,-7.9 5.7,-14.2 12.2,-14.2z" fill="#4A2510" id="svg_144"/>
   </g>
   <g id="svg_145"/>
  </g>
 </g>
</svg>