<?xml version="1.0"?>
<svg width="265" height="347" xmlns="http://www.w3.org/2000/svg" xmlns:svg="http://www.w3.org/2000/svg">
 <g class="layer">
  <title>Layer 1</title>
  <g id="svg_2">
   <g id="svg_3"/>
   <g id="svg_33"/>
   <g id="svg_57"/>
   <g id="svg_73">
    <path d="m45.519409,100.3c0,7.2 5.3,13 12.1,13.6l0,-27.1c-6.7,0.4 -12.1,6.3 -12.1,13.5z" fill="#FFE8D4" id="svg_74"/>
    <path d="m210.619409,102.6c0,-7.2 -5.3,-13 -12.1,-13.6l0,27.1c6.7,-0.5 12.1,-6.4 12.1,-13.5z" fill="#FFE8D4" id="svg_75"/>
    <path d="m104.319409,194.5c0.9,-0.4 1.9,-0.3 2.6,0.4c0.8,0.8 20,18.8 46.3,-0.2c0.7,-0.5 1.6,-0.6 2.4,-0.2c0.8,0.4 1.3,1.2 1.3,2.1c0,4.2 -0.6,9 -1.7,14.1c22.7,-10.4 38.6,-33.3 38.6,-59.9l0,-66.2c-7.9,-5.2 -14.2,-20.6 -19.3,-33.1c-1.5,-3.6 -2.8,-6.9 -4,-9.3c-26.6,10 -76.2,6 -91.6,0.5c-2,13.8 -14.2,36.4 -16.8,41l0,67c0,28.6 18.3,52.9 43.8,62c-1.4,-5.1 -2.4,-10.4 -3,-16c0,-0.8 0.6,-1.7 1.4,-2.2zm40.8,-117.2c2.8,-1.7 16.6,-6.8 30,7.2c2.4,2.5 2.8,5.2 2.8,5.2s0.3,3.5 -6.2,-2.8c0,0 -7.1,-8.6 -26.2,-5.2c-4.2,0.7 -3.2,-2.7 -0.4,-4.4zm17,25.8c0,2.9 -2.3,5.2 -5.2,5.2c-2.9,0 -5.2,-2.3 -5.2,-5.2c0,-2.9 2.3,-5.2 5.2,-5.2c2.8,0 5.2,2.3 5.2,5.2zm-88.1,-10c0,0 0.1,-2.7 2.3,-5.4c12.2,-15.1 26.4,-11.2 29.3,-9.8c2.9,1.5 4.2,4.8 0,4.4c-19.3,-1.7 -25.6,7.4 -25.6,7.4c-6,6.9 -6,3.4 -6,3.4zm30.3,10c0,2.9 -2.3,5.2 -5.2,5.2c-2.9,0 -5.2,-2.3 -5.2,-5.2c0,-2.9 2.3,-5.2 5.2,-5.2c2.8,0 5.2,2.3 5.2,5.2zm-22.3,59.7c-0.7,-0.2 -1.3,-0.7 -1.5,-1.4c-0.3,-0.7 -0.2,-1.4 0.2,-2.1c14.9,-24 39.1,-14.8 46.4,-11.2c3,-1.7 31.6,-16.7 48.3,10.3c0.4,0.6 0.5,1.4 0.2,2.1c-0.3,0.7 -0.8,1.2 -1.5,1.4c-0.8,0.2 -1.7,0.5 -2.7,0.8c-4.5,1.4 -11.1,3.5 -18.4,3.5c-8.1,0 -16.9,-2.6 -24.5,-11.6c-7.8,9.8 -17,12.6 -25.4,12.6c-7.3,0 -13.9,-2.1 -18.4,-3.5c-1,-0.4 -1.9,-0.7 -2.7,-0.9zm21.7,6.2c1.2,-0.4 2.5,0.3 2.9,1.5c0.2,0.6 5.1,15 21.8,15c16.7,0 21,-14.3 21.1,-14.9c0.4,-1.2 1.6,-1.9 2.9,-1.6c1.2,0.3 1.9,1.6 1.6,2.9c-0.1,0.2 -5.4,18.3 -25.6,18.3c-20.2,0 -26.2,-18 -26.2,-18.2c-0.4,-1.3 0.3,-2.6 1.5,-3z" fill="#FFE8D4" id="svg_76"/>
    <path d="m154.519409,234.1l0,-16.5l-0.9,0c-5,18 -14.6,37.1 -22.4,41.6c-0.4,0.2 -0.8,0.3 -1.2,0.3c-0.7,0 -1.4,-0.3 -1.9,-1c-5.9,-8.2 -15.1,-22.8 -20.7,-41l-0.9,0l0,18c0,0.9 -0.6,1.8 -1.4,2.2c-4.7,1.9 -8.4,4.2 -10.9,6.7c3.7,5.1 14.4,16.2 38.3,16.6c0.8,0 1.5,0 2.2,0c0.4,0 0.7,0 1.1,0c0.6,0 1.2,0 1.7,-0.1c0.3,0 0.5,0 0.8,0c0.7,0 1.3,-0.1 1.9,-0.2c0.2,0 0.3,0 0.5,0c0.7,-0.1 1.4,-0.2 2.1,-0.3c0.1,0 0.1,0 0.2,0c16.7,-2.5 24.7,-11.4 27.7,-15.9c-3.2,-3.2 -8.3,-6.1 -14.7,-8.2c-0.9,-0.3 -1.5,-1.2 -1.5,-2.2z" fill="#FFE8D4" id="svg_77"/>
    <path d="m132.519409,280.6c-32.2,0 -58.3,-11.4 -63.1,-26.9c-35.9,18.1 -60.3,50.7 -64.4,88l255,0c-4.1,-37.3 -28.5,-70 -64.4,-88c-4.8,15.6 -30.9,26.9 -63.1,26.9z" fill="#4A4C62" id="svg_78"/>
    <path d="m62.219409,40.4c0,0.2 0,0.3 0,0.5l0,0.4l0,32.7c5,-9.8 12.4,-25.9 12.4,-34.5c0,-0.9 0.5,-1.6 1.2,-2c0.8,-0.4 1.7,-0.4 2.4,0.1c7.5,5 64.5,11.6 92.5,-0.2c0.3,-0.1 0.6,-0.2 0.9,-0.2c0.8,0 1.6,0.4 2,1.2c1.4,2.6 3.1,6.8 5.1,11.6c3.8,9.3 9.2,22.6 15,28.7l0,-37.7c0,-0.2 0,-0.3 0,-0.5c0,-19.7 -29.5,-35.8 -65.8,-35.8c-36.1,-0.1 -65.7,16 -65.7,35.7z" fill="#FFEE8D" id="svg_79"/>
    <path d="m124.619409,152c-6.5,-3.2 -25.4,-10.1 -38.2,7.3c9.1,2.9 25.7,8 38.2,-7.3z" fill="#FFF39F" id="svg_80"/>
    <path d="m131.619409,151c12.5,15.3 29,10.2 38.2,7.3c-6.2,-8.5 -14.6,-12.2 -24.9,-11.1c-5.7,0.5 -10.6,2.5 -13.3,3.8z" fill="#FFF39F" id="svg_81"/>
    <path d="m130.519409,253.9c8.3,-7.4 19.8,-34.1 21.6,-52.8c-19.9,12.2 -36,5.5 -43.7,0.7c3.8,22.6 14.8,41.5 22.1,52.1z" fill="#FFF39F" id="svg_82"/>
    <path d="m89.419409,245.6c-5.3,1.7 -10.6,3.7 -15.7,6.1c3.4,13.5 29.1,24.3 58.8,24.3c29.7,0 55.4,-10.8 58.8,-24.3c-5.1,-2.4 -10.4,-4.4 -15.7,-6.1c-3.2,5.4 -14.9,20.6 -43.2,20.1c-3.5,-0.1 -6.8,-0.4 -9.8,-0.8c-21.1,-3.3 -30.4,-14.8 -33.2,-19.3z" fill="#A13D3F" id="svg_83"/>
    <path d="m264.219409,345.6c0.4,-0.5 0.7,-1.1 0.6,-1.8c-4.1,-47.4 -39.3,-88 -89.7,-103.3c-0.1,0 -0.2,0 -0.2,0c-0.5,-0.1 -0.9,0 -1.4,0.1c-3.5,-3.3 -8.3,-6.1 -14.4,-8.3l0,-17.2c0,-0.4 -0.1,-0.7 -0.3,-1c23.4,-11.4 39.6,-35.5 39.6,-63.3l0,-30c9.3,-0.6 16.8,-8.5 16.8,-18.2c0,-9.7 -7.4,-17.7 -16.8,-18.2l0,-1c0,0 0,0 0,0l0,-41.9l0,-0.3c0,-0.3 0,-0.5 0,-0.8c0,-11 -7.5,-21.3 -21.1,-29c-13.2,-7.4 -30.7,-11.4 -49.3,-11.4c-18.6,0 -36.1,4.1 -49.3,11.4c-13.6,7.6 -21.1,17.9 -21.1,29c0,0.3 0,0.5 0,0.8l0,40.9c-9.3,0.6 -16.8,8.5 -16.8,18.2c0,9.7 7.4,17.7 16.8,18.2l0,32.4c0,29.6 18.3,54.9 44.2,65.4l0,17.7c-4.3,1.9 -7.8,4.2 -10.5,6.7c-0.4,-0.2 -0.9,-0.2 -1.4,-0.1c-0.1,0 -0.2,0 -0.2,0c-50.4,15.3 -85.6,55.8 -89.7,103.3c-0.1,0.6 0.2,1.3 0.6,1.8c0.4,0.5 1.1,0.8 1.7,0.8l260.2,0c0.7,-0.1 1.3,-0.4 1.7,-0.9zm-53.6,-243c0,7.2 -5.3,13 -12.1,13.6l0,-27.1c6.7,0.5 12.1,6.3 12.1,13.5zm-82.5,-98c36.3,0 65.8,16 65.8,35.8c0,0.2 0,0.3 0,0.5l0,37.7c-5.7,-6.1 -11.2,-19.4 -15,-28.7c-2,-4.8 -3.7,-9 -5.1,-11.6c-0.4,-0.8 -1.2,-1.2 -2,-1.2c-0.3,0 -0.6,0.1 -0.9,0.2c-28,11.8 -85,5.2 -92.5,0.2c-0.7,-0.5 -1.6,-0.5 -2.4,-0.1c-0.8,0.4 -1.2,1.2 -1.2,2c0,8.6 -7.4,24.7 -12.4,34.5l0,-32.7l0,-0.4c0,-0.2 0,-0.3 0,-0.5c-0.2,-19.6 29.4,-35.7 65.7,-35.7zm-70.5,109.2c-6.8,-0.5 -12.1,-6.4 -12.1,-13.6c0,-7.2 5.3,-13 12.1,-13.6l0,27.2zm4.7,37.1l0,-67c2.5,-4.5 14.8,-27.2 16.8,-41c15.3,5.5 64.9,9.4 91.6,-0.5c1.1,2.4 2.5,5.6 4,9.3c5.1,12.5 11.4,27.9 19.3,33.1l0,66.2c0,26.6 -15.9,49.5 -38.6,59.9c1.1,-5.1 1.7,-9.9 1.7,-14.1c0,-0.9 -0.5,-1.7 -1.3,-2.1c-0.8,-0.4 -1.7,-0.3 -2.4,0.2c-26.3,19.1 -45.5,1 -46.3,0.2c-0.7,-0.7 -1.8,-0.9 -2.6,-0.4c-0.9,0.4 -1.4,1.4 -1.3,2.3c0.6,5.5 1.7,10.9 3,16c-25.6,-9.2 -43.9,-33.6 -43.9,-62.1zm89.8,50.2c-1.7,18.7 -13.3,45.4 -21.6,52.8c-7.3,-10.6 -18.3,-29.4 -22.1,-52.1c7.6,4.8 23.8,11.5 43.7,-0.7zm-47,36.5c0.9,-0.4 1.4,-1.2 1.4,-2.2l0,-18l0.9,0c5.6,18.1 14.8,32.7 20.7,41c0.5,0.6 1.2,1 1.9,1c0.4,0 0.8,-0.1 1.2,-0.3c7.8,-4.6 17.4,-23.6 22.4,-41.6l0.9,0l0,16.5c0,1 0.6,1.9 1.6,2.2c6.4,2.1 11.5,5 14.7,8.2c-3.1,4.5 -11.1,13.4 -27.7,15.9c-0.1,0 -0.1,0 -0.2,0c-0.7,0.1 -1.4,0.2 -2.1,0.3c-0.2,0 -0.3,0 -0.5,0c-0.6,0.1 -1.3,0.1 -1.9,0.2c-0.3,0 -0.5,0 -0.8,0c-0.6,0 -1.2,0.1 -1.7,0.1c-0.4,0 -0.7,0 -1.1,0c-0.7,0 -1.5,0 -2.2,0c-23.9,-0.5 -34.6,-11.5 -38.3,-16.6c2.4,-2.4 6.1,-4.7 10.8,-6.7zm17.5,27.2c3,0.5 6.3,0.7 9.8,0.8c28.2,0.6 39.9,-14.7 43.2,-20.1c5.3,1.7 10.6,3.7 15.7,6.1c-3.4,13.5 -29.1,24.3 -58.8,24.3c-29.7,0 -55.4,-10.8 -58.8,-24.3c5.1,-2.4 10.4,-4.4 15.7,-6.1c2.8,4.6 12.1,16.1 33.2,19.3zm-117.6,76.9c4.1,-37.3 28.5,-70 64.4,-88c4.7,15.6 30.8,26.9 63.1,26.9c32.2,0 58.3,-11.4 63.1,-26.9c35.9,18.1 60.3,50.7 64.4,88l-255,0z" fill="#4A2510" id="svg_84"/>
    <circle cx="99.019409" cy="103.1" fill="#4A2510" id="svg_85" r="5.2"/>
    <circle cx="156.819409" cy="103.1" fill="#4A2510" id="svg_86" r="5.2"/>
    <path d="m105.619409,82.4c4.2,0.4 2.9,-2.9 0,-4.4c-2.9,-1.5 -17.1,-5.4 -29.3,9.8c-2.2,2.7 -2.3,5.4 -2.3,5.4s0,3.5 6,-3.3c0,-0.1 6.3,-9.3 25.6,-7.5z" fill="#4A2510" id="svg_87"/>
    <path d="m145.419409,81.6c19.1,-3.3 26.2,5.2 26.2,5.2c6.5,6.3 6.2,2.8 6.2,2.8s-0.4,-2.7 -2.8,-5.2c-13.4,-14 -27.2,-8.9 -30,-7.2c-2.7,1.8 -3.7,5.2 0.4,4.4z" fill="#4A2510" id="svg_88"/>
    <path d="m128.419409,190.2c20.3,0 25.6,-18.1 25.6,-18.3c0.3,-1.2 -0.4,-2.5 -1.6,-2.9c-1.2,-0.3 -2.5,0.4 -2.9,1.6c-0.2,0.6 -4.5,14.9 -21.1,14.9c-16.7,0 -21.6,-14.3 -21.8,-15c-0.4,-1.2 -1.7,-1.9 -2.9,-1.5c-1.2,0.4 -1.9,1.7 -1.5,2.9c0,0.2 6,18.3 26.2,18.3z" fill="#4A2510" id="svg_89"/>
    <path d="m128.519409,154.5c7.6,9 16.5,11.6 24.5,11.6c7.3,0 13.9,-2.1 18.4,-3.5c1,-0.3 1.9,-0.6 2.7,-0.8c0.7,-0.2 1.3,-0.7 1.5,-1.4c0.3,-0.7 0.2,-1.4 -0.2,-2.1c-16.7,-27 -45.3,-12 -48.3,-10.3c-7.3,-3.5 -31.5,-12.8 -46.4,11.2c-0.4,0.6 -0.5,1.4 -0.2,2.1c0.3,0.7 0.8,1.2 1.5,1.4c0.8,0.2 1.7,0.5 2.7,0.8c4.5,1.4 11.1,3.5 18.4,3.5c8.4,0.1 17.6,-2.7 25.4,-12.5zm16.4,-7.4c10.3,-1.1 18.7,2.7 24.9,11.1c-9.2,2.9 -25.8,8.1 -38.2,-7.3c2.7,-1.2 7.6,-3.2 13.3,-3.8zm-58.6,12.1c12.8,-17.4 31.7,-10.4 38.2,-7.3c-12.4,15.4 -29,10.3 -38.2,7.3z" fill="#4A2510" id="svg_90"/>
   </g>
   <g id="svg_91"/>
   <g id="svg_106"/>
   <g id="svg_129"/>
   <g id="svg_145"/>
  </g>
 </g>
</svg>