<?xml version="1.0"?>
<svg width="264" height="351" xmlns="http://www.w3.org/2000/svg" xmlns:svg="http://www.w3.org/2000/svg">
 <g class="layer">
  <title>Layer 1</title>
  <g id="svg_2">
   <g id="svg_3">
    <path d="m108.119377,216.599999l0,5.4c0.2,0 0.5,0 0.7,0l22.5,0c-0.3,0 -0.7,-0.1 -1,-0.2c-7.8,-0.7 -15.3,-2.5 -22.2,-5.2z" fill="#FFE8D4" id="svg_4"/>
    <path d="m145.719377,220.599999c-2.8,0.5 -5.5,0.9 -8.4,1.1c-0.3,0.1 -0.6,0.2 -1,0.2l18.8,0c0.3,0 0.6,0 0.9,0l0,-3.8c-3.3,1.1 -6.7,2 -10.3,2.5z" fill="#FFE8D4" id="svg_5"/>
    <path d="m133.919377,221.899999l-0.2,0c-0.6,0 -1.2,0 -1.8,0l4.1,0c-0.6,0 -1.2,0 -1.8,0l-0.3,0z" fill="#FFE8D4" id="svg_6"/>
    <path d="m53.719377,106.399999c0,6.7 4.7,12.3 10.9,13.4l0,-26.8c-6.2,1.1 -10.9,6.7 -10.9,13.4z" fill="#FFE8D4" id="svg_7"/>
    <path d="m218.819377,108.699999c0,-7.5 -5.9,-13.6 -13.1,-13.6c-0.1,0 -0.1,0 -0.2,0l0,27.2c0.1,0 0.1,0 0.2,0c7.2,0 13.1,-6.1 13.1,-13.6z" fill="#FFE8D4" id="svg_8"/>
    <path d="m83.219377,78.599999l44.7,0l0,13l13.4,0l0,-13l44.7,0l0,12.3l14.8,-2.1l0,-47.2l0,-0.5c0,-0.2 0,-0.3 0,-0.5c0,-19.7 -29.5,-35.8 -65.8,-35.8c-36.3,0 -65.8,16 -65.8,35.8c0,0.2 0,0.3 0,0.5l0,0.3l0,46.5l13.9,2l0,-11.3l0.1,0zm64.9,-50.9c-0.4,-0.1 -0.8,-0.1 -1.2,-0.2c-0.4,-0.1 -0.8,-0.1 -1.3,-0.1c-0.8,-0.1 -1.7,-0.2 -2.6,-0.3c-0.9,-0.1 -1.7,-0.2 -2.6,-0.2c-1.8,0 -3.6,-0.3 -5.4,-0.2c-0.9,0 -1.8,0 -2.7,0c-0.9,0.1 -1.8,0.1 -2.7,0.2c-1.8,0.1 -3.5,0.3 -5.2,0.5c-0.9,0.1 -1.7,0.3 -2.5,0.4c-0.8,0.1 -1.6,0.2 -2.4,0.4c-1.5,0.3 -3,0.5 -4.4,0.9c-1.4,0.3 -2.6,0.6 -3.7,0.9c-1.1,0.3 -2.1,0.5 -2.8,0.8c-0.8,0.2 -1.4,0.4 -1.8,0.6c-0.4,0.1 -0.7,0.2 -0.7,0.2s0.7,-0.7 2.1,-1.6c0.7,-0.5 1.6,-1 2.6,-1.6c1,-0.6 2.2,-1.2 3.5,-1.8c1.3,-0.6 2.8,-1.1 4.3,-1.7c0.8,-0.3 1.6,-0.5 2.4,-0.7c0.8,-0.2 1.7,-0.5 2.6,-0.7c1.8,-0.4 3.6,-0.8 5.5,-0.9c1,-0.1 1.9,-0.2 2.9,-0.3c1,0 1.9,0 2.9,-0.1c1.9,-0.1 3.9,0.2 5.8,0.3c0.5,0 1,0.1 1.4,0.1c0.5,0.1 0.9,0.2 1.4,0.3c0.9,0.2 1.8,0.4 2.7,0.5c0.9,0.2 1.8,0.4 2.6,0.7c0.8,0.3 1.6,0.5 2.4,0.8c1.6,0.5 3,1.2 4.3,1.7c1.3,0.6 2.5,1.1 3.5,1.8c1,0.6 1.9,1.2 2.6,1.6c1.4,0.9 2.2,1.5 2.2,1.5s-0.9,-0.2 -2.5,-0.6c-0.8,-0.2 -1.8,-0.5 -2.8,-0.8c-0.5,-0.2 -1.1,-0.3 -1.8,-0.4c-0.6,-0.1 -1.3,-0.3 -1.9,-0.4c-1.4,-0.3 -2.8,-0.7 -4.4,-0.9c-0.7,-0.4 -1.5,-0.6 -2.3,-0.7zm38.5,43.9c0,0 0.3,3.5 -6.2,-2.8c0,0 -7.1,-8.6 -26.2,-5.2c-4.1,0.7 -3.2,-2.7 -0.4,-4.4c2.8,-1.7 16.6,-6.8 30,7.2c2.4,2.6 2.8,5.2 2.8,5.2zm-88.7,-49.6c1.9,-1.3 4.8,-3.1 8.4,-4.8c1.8,-0.8 3.8,-1.7 6,-2.5c2.2,-0.8 4.5,-1.5 7,-2.1c1.2,-0.3 2.5,-0.6 3.8,-0.8c1.3,-0.3 2.6,-0.4 3.9,-0.6c1.3,-0.2 2.7,-0.3 4,-0.4c1.3,0 2.7,-0.2 4.1,-0.1c1.4,0 2.7,0 4.1,0.1l2,0.1c0.7,0.1 1.3,0.2 2,0.2c1.3,0.1 2.6,0.4 3.9,0.6c1.3,0.2 2.5,0.5 3.8,0.8c1.2,0.3 2.4,0.6 3.6,1c1.2,0.3 2.3,0.7 3.4,1.1c2.2,0.7 4.2,1.7 6,2.5c1.8,0.9 3.4,1.7 4.8,2.6c1.4,0.9 2.6,1.6 3.5,2.3c1.9,1.4 2.9,2.2 2.9,2.2s-1.3,-0.5 -3.4,-1.4c-1,-0.5 -2.4,-0.9 -3.9,-1.5c-0.7,-0.3 -1.5,-0.6 -2.4,-0.8c-0.8,-0.3 -1.7,-0.6 -2.6,-0.9c-1.9,-0.5 -3.9,-1.2 -6,-1.7c-1.1,-0.3 -2.2,-0.6 -3.3,-0.8c-1.1,-0.2 -2.3,-0.5 -3.5,-0.7c-2.4,-0.4 -4.8,-0.7 -7.3,-0.9c-0.6,-0.1 -1.3,-0.1 -1.9,-0.2l-1.9,-0.1c-1.3,-0.1 -2.5,-0.1 -3.8,-0.1c-2.6,0 -5.1,0.1 -7.6,0.3c-2.5,0.2 -5,0.5 -7.3,1c-2.4,0.4 -4.7,0.9 -6.8,1.4c-2.2,0.5 -4.2,1.1 -6,1.7c-1.8,0.6 -3.6,1.1 -5.1,1.7c-1.5,0.6 -2.8,1 -3.9,1.5c-2.1,0.9 -3.3,1.4 -3.3,1.4s0.9,-0.7 2.8,-2.1zm-12.9,45.8c12.2,-15.1 26.4,-11.2 29.3,-9.8c2.9,1.5 4.1,4.8 0,4.4c-19.3,-1.7 -25.6,7.4 -25.6,7.4c-6,6.8 -6,3.3 -6,3.3s0.1,-2.7 2.3,-5.3z" fill="#FFE8D4" id="svg_9"/>
    <path d="m147.219377,101.099999l32.9,0l0,-17.2l-32.9,0l0,17.2zm16.4,-13.8c2.9,0 5.2,2.3 5.2,5.2c0,2.9 -2.3,5.2 -5.2,5.2c-2.9,0 -5.2,-2.3 -5.2,-5.2c0,-2.9 2.3,-5.2 5.2,-5.2z" fill="#FFE8D4" id="svg_10"/>
    <path d="m89.119377,101.099999l32.9,0l0,-17.2l-32.9,0l0,17.2zm16.7,-13.8c2.9,0 5.2,2.3 5.2,5.2c0,2.9 -2.3,5.2 -5.2,5.2c-2.9,0 -5.2,-2.3 -5.2,-5.2c0,-2.9 2.3,-5.2 5.2,-5.2z" fill="#FFE8D4" id="svg_11"/>
    <path d="m200.819377,94.099999l-14.8,2.1l0,10.1l-44.7,0l0,-9.5l-13.4,0l0,9.5l-44.7,0l0,-11l-13.9,-2l0,36c1.8,-1.9 4.2,-3.5 7.1,-3.8c5.1,-0.5 10.2,3 15.3,10.5c0.5,0.7 1.2,1.7 2.1,2.9c6.7,9.2 27,37.1 42.1,37.5c10.3,-3.1 24.2,-16.1 41.2,-38.7c0.5,-0.7 0.9,-1.2 1.3,-1.7c5.1,-7.5 10.3,-11 15.3,-10.5c2.9,0.3 5.3,1.9 7.1,3.8l0,-35.2zm-40.2,47.3c-0.1,0.2 -5.4,18.3 -25.6,18.3c-20.2,0 -26.2,-18 -26.2,-18.2c-0.4,-1.2 0.3,-2.5 1.5,-2.9c1.2,-0.4 2.5,0.3 2.9,1.5c0.2,0.6 5.1,15 21.8,15c16.7,0 21,-14.3 21.1,-14.9c0.4,-1.2 1.6,-1.9 2.9,-1.6c1.3,0.3 2,1.6 1.6,2.8z" fill="#FFE8D4" id="svg_12"/>
    <path d="m131.619377,217.099999c0.3,0 0.5,0.1 0.7,0.2c0.4,0 0.8,0 1.2,0l0.3,0c0,0 0.1,0 0.1,0c0,0 0.1,0 0.1,0l0.3,0c0.4,0 0.8,0 1.2,0c0.2,-0.1 0.5,-0.1 0.7,-0.2c36.3,-2.3 64.7,-30.1 64.7,-63.2l0,-16.2c-0.7,-1.6 -3.5,-7.1 -7.6,-7.6c-3.2,-0.3 -7,2.6 -11,8.5c0,0 -0.1,0.1 -0.1,0.1c-0.3,0.4 -0.8,1 -1.3,1.7c-6.6,8.8 -26.8,35.6 -43.9,40.5c-0.2,0.1 -0.4,0.1 -0.6,0.1c-17.5,0 -38.4,-28.6 -46.2,-39.4c-0.9,-1.2 -1.6,-2.2 -2.1,-2.8c0,0 -0.1,-0.1 -0.1,-0.1c-4,-5.9 -7.8,-8.8 -11,-8.5c-4.1,0.4 -6.9,6 -7.6,7.6l0,16.2c-0.2,33.6 26.6,60.8 62.2,63.1z" fill="#ECE9E1" id="svg_13"/>
    <path d="m75.619377,255.299999c-39.7,17.4 -66.6,51.9 -71,91.1l71,0l0,-91.1z" fill="#A13D3F" id="svg_14"/>
    <path d="m190.219377,256.099999l0,90.4l69.3,0c-4.2,-38.6 -30.5,-72.8 -69.3,-90.4z" fill="#A13D3F" id="svg_15"/>
    <path d="m102.219377,229.299999c-1.7,1.7 -2.8,4.1 -2.8,6.7l0,6.7c0.8,-0.2 1.7,-0.4 2.5,-0.5l0.3,-12.9z" fill="#BDC9E2" id="svg_16"/>
    <path d="m164.619377,235.999999c0,-1.7 -0.5,-3.4 -1.3,-4.8l-0.2,11.1c0.5,0.1 1,0.2 1.5,0.3l0,-6.6z" fill="#BDC9E2" id="svg_17"/>
    <path d="m112.219377,226.599999l-3.4,0c-0.7,0 -1.3,0.1 -1.9,0.2l-0.3,14.4c1.8,-0.3 3.5,-0.6 5.3,-0.8l0.3,-13.8z" fill="#BDC9E2" id="svg_18"/>
    <path d="m150.919377,226.599999l-4.5,0l-0.3,13.1c1.5,0.1 3,0.3 4.4,0.5l0.4,-13.6z" fill="#BDC9E2" id="svg_19"/>
    <path d="m158.719377,227.299999c-1,-0.4 -2,-0.6 -3.1,-0.7l-0.3,14.2c1.1,0.2 2.1,0.3 3.2,0.5l0.2,-14z" fill="#BDC9E2" id="svg_20"/>
    <path d="m121.919377,226.599999l-5.1,0l-0.3,13.2c1.7,-0.2 3.4,-0.3 5.1,-0.4l0.3,-12.8z" fill="#BDC9E2" id="svg_21"/>
    <path d="m132.619377,238.999999l0.2,-12.4l-6.3,0l-0.3,12.6c1.9,-0.1 3.8,-0.1 5.7,-0.1c0.4,-0.1 0.5,-0.1 0.7,-0.1z" fill="#BDC9E2" id="svg_22"/>
    <path d="m141.819377,226.599999l-4.3,0l-0.3,12.5c1.4,0 2.9,0.1 4.3,0.2l0.3,-12.7z" fill="#BDC9E2" id="svg_23"/>
    <path d="m185.619377,254.099999c-12.6,-5.2 -26.2,-8.5 -40.1,-9.8c-0.4,0.4 -1,0.7 -1.6,0.7c0,0 0,0 0,0c-0.8,0 -1.4,-0.4 -1.8,-1c-1.7,-0.1 -3.4,-0.2 -5.1,-0.3c-0.4,0.7 -1.2,1.2 -2,1.2c0,0 0,0 0,0c-0.9,0 -1.7,-0.5 -2,-1.3c-0.2,0 -0.5,0 -0.7,0c-2.1,0 -4.1,0 -6.1,0.1c-0.4,0.7 -1.1,1.2 -2,1.2c0,0 0,0 0,0c-0.8,0 -1.4,-0.4 -1.8,-1c-2.2,0.2 -4.5,0.4 -6.7,0.6c-0.3,0.2 -0.7,0.3 -1.2,0.3c0,0 0,0 0,0c-0.2,0 -0.4,0 -0.6,-0.1c-11.5,1.5 -22.7,4.4 -33.3,8.6l0,93l105.4,0l0,-92.2l-0.4,0z" fill="#BDC9E2" id="svg_24"/>
    <path d="m102.219377,21.399999c1.5,-0.5 3.2,-1.1 5.1,-1.7c1.9,-0.6 3.9,-1.1 6,-1.7c2.2,-0.5 4.4,-1 6.8,-1.4c2.4,-0.4 4.8,-0.7 7.3,-1c2.5,-0.2 5.1,-0.4 7.6,-0.3c1.3,0 2.6,0 3.8,0.1l1.9,0.1c0.6,0.1 1.3,0.1 1.9,0.2c2.5,0.2 5,0.5 7.3,0.9c1.2,0.2 2.3,0.4 3.5,0.7c1.1,0.2 2.2,0.5 3.3,0.8c2.2,0.5 4.2,1.2 6,1.7c0.9,0.3 1.8,0.6 2.6,0.9c0.9,0.3 1.7,0.5 2.4,0.8c1.5,0.6 2.8,1 3.9,1.5c2.1,0.9 3.4,1.4 3.4,1.4s-1,-0.8 -2.9,-2.2c-0.9,-0.7 -2.2,-1.4 -3.5,-2.3c-1.4,-0.9 -3,-1.7 -4.8,-2.6c-1.8,-0.8 -3.8,-1.8 -6,-2.5c-1.1,-0.4 -2.2,-0.8 -3.4,-1.1c-1.2,-0.4 -2.4,-0.7 -3.6,-1c-1.2,-0.3 -2.5,-0.6 -3.8,-0.8c-1.3,-0.2 -2.6,-0.5 -3.9,-0.6c-0.7,-0.1 -1.3,-0.2 -2,-0.2l-2,-0.1c-1.3,-0.1 -2.7,-0.1 -4.1,-0.1c-1.4,0 -2.7,0.1 -4.1,0.1c-1.3,0.1 -2.7,0.2 -4,0.4c-1.3,0.2 -2.6,0.3 -3.9,0.6c-1.3,0.2 -2.5,0.5 -3.8,0.8c-2.5,0.6 -4.8,1.3 -7,2.1c-2.2,0.7 -4.2,1.6 -6,2.5c-3.6,1.7 -6.5,3.5 -8.4,4.8c-1.9,1.3 -2.9,2.3 -2.9,2.3s1.2,-0.6 3.3,-1.4c1.2,-0.7 2.5,-1.2 4,-1.7z" fill="#4A2510" id="svg_25"/>
    <path d="m156.819377,29.399999c0.6,0.1 1.2,0.2 1.8,0.4c1.1,0.3 2,0.6 2.8,0.8c1.6,0.4 2.5,0.6 2.5,0.6s-0.8,-0.6 -2.2,-1.5c-0.7,-0.5 -1.5,-1 -2.6,-1.6c-1,-0.7 -2.2,-1.1 -3.5,-1.8c-1.3,-0.6 -2.7,-1.3 -4.3,-1.7c-0.8,-0.2 -1.6,-0.5 -2.4,-0.8c-0.8,-0.3 -1.7,-0.5 -2.6,-0.7c-0.9,-0.2 -1.8,-0.3 -2.7,-0.5c-0.5,-0.1 -0.9,-0.2 -1.4,-0.3c-0.5,-0.1 -0.9,-0.1 -1.4,-0.1c-1.9,-0.2 -3.8,-0.4 -5.8,-0.3c-1,0 -1.9,0 -2.9,0.1c-1,0.1 -1.9,0.2 -2.9,0.3c-1.9,0.1 -3.8,0.6 -5.5,0.9c-0.9,0.2 -1.7,0.4 -2.6,0.7c-0.8,0.3 -1.7,0.4 -2.4,0.7c-1.6,0.6 -3,1.1 -4.3,1.7c-1.3,0.6 -2.5,1.2 -3.5,1.8c-1,0.6 -1.9,1.1 -2.6,1.6c-1.4,0.9 -2.1,1.6 -2.1,1.6s0.2,-0.1 0.7,-0.2c0.4,-0.1 1.1,-0.3 1.8,-0.6c0.8,-0.2 1.8,-0.5 2.8,-0.8c1.1,-0.3 2.3,-0.6 3.7,-0.9c1.3,-0.3 2.8,-0.6 4.4,-0.9c0.8,-0.2 1.6,-0.2 2.4,-0.4c0.8,-0.1 1.6,-0.3 2.5,-0.4c1.7,-0.2 3.4,-0.4 5.2,-0.5c0.9,-0.1 1.8,-0.1 2.7,-0.2c0.9,0 1.8,0 2.7,0c1.8,-0.1 3.6,0.1 5.4,0.2c0.9,0 1.8,0.1 2.6,0.2c0.9,0.1 1.7,0.2 2.6,0.3c0.4,0 0.8,0.1 1.3,0.1c0.4,0.1 0.8,0.1 1.2,0.2c0.8,0.1 1.6,0.3 2.4,0.4c1.6,0.2 3,0.6 4.4,0.9c0.5,0.5 1.2,0.6 1.8,0.7z" fill="#4A2510" id="svg_26"/>
    <circle cx="105.819377" cy="92.499999" fill="#4A2510" id="svg_27" r="5.2"/>
    <circle cx="163.619377" cy="92.499999" fill="#4A2510" id="svg_28" r="5.2"/>
    <path d="m88.719377,69.799999c0,0 6.3,-9.1 25.6,-7.4c4.1,0.4 2.9,-2.9 0,-4.4c-2.9,-1.5 -17.1,-5.4 -29.3,9.8c-2.2,2.7 -2.3,5.4 -2.3,5.4s0,3.5 6,-3.4z" fill="#4A2510" id="svg_29"/>
    <path d="m153.819377,59.199999c-2.8,1.7 -3.7,5.1 0.4,4.4c19.1,-3.3 26.2,5.2 26.2,5.2c6.5,6.3 6.2,2.8 6.2,2.8s-0.4,-2.7 -2.8,-5.2c-13.5,-14 -27.2,-8.9 -30,-7.2z" fill="#4A2510" id="svg_30"/>
    <path d="m135.019377,159.699999c20.3,0 25.6,-18.1 25.6,-18.3c0.3,-1.2 -0.4,-2.5 -1.6,-2.9c-1.2,-0.3 -2.5,0.4 -2.9,1.6c-0.2,0.6 -4.5,14.9 -21.1,14.9c-16.7,0 -21.6,-14.4 -21.8,-15c-0.4,-1.2 -1.7,-1.9 -2.9,-1.5c-1.2,0.4 -1.9,1.7 -1.5,2.9c0.1,0.3 6,18.3 26.2,18.3z" fill="#4A2510" id="svg_31"/>
    <path d="m264.019377,344.199999c-0.1,-1.1 -0.3,-2.2 -0.5,-3.4c0,-0.1 0,-0.1 0,-0.2c-0.2,-1.4 -0.5,-2.9 -0.8,-4.3c-0.1,-0.6 -0.3,-1.2 -0.4,-1.8c-0.2,-0.8 -0.4,-1.6 -0.6,-2.3c-0.2,-0.8 -0.4,-1.5 -0.6,-2.3c-0.1,-0.3 -0.2,-0.7 -0.3,-1c-0.6,-2 -1.2,-4.1 -1.9,-6.1c0,0 0,-0.1 0,-0.1c-5.9,-17.2 -16.2,-33 -30.2,-46.3c-0.2,-0.2 -0.4,-0.4 -0.7,-0.6c-0.8,-0.8 -1.6,-1.5 -2.4,-2.2c-0.2,-0.2 -0.4,-0.4 -0.7,-0.6c-0.9,-0.8 -1.7,-1.5 -2.6,-2.3c-6.9,-5.8 -14.5,-10.8 -22.5,-15.1c-0.1,-0.1 -0.2,-0.1 -0.3,-0.2c-1.1,-0.6 -2.1,-1.1 -3.2,-1.6c-0.2,-0.1 -0.3,-0.2 -0.5,-0.2c-1,-0.5 -2,-1 -3,-1.5c-0.2,-0.1 -0.4,-0.2 -0.7,-0.3c-1,-0.4 -1.9,-0.9 -2.9,-1.3c-0.1,-0.1 -0.3,-0.1 -0.4,-0.2c0,0 0,0 -0.1,0c-6.3,-2.7 -12.8,-4.9 -19.5,-6.6l0,-7.8c0,-5.8 -3.5,-10.8 -8.5,-12.9l0,-6.5c7.4,-2.9 14.2,-7.1 20.2,-12.2c0.5,-0.4 0.9,-0.8 1.4,-1.2c0,0 0,0 0,0c14.2,-12.4 23.1,-30 23.1,-49.2l0,-16.7c0,0 0,0 0,0l0,-10.2c0.1,0 0.1,0 0.2,0c9.8,0 17.8,-8.2 17.8,-18.3c0,-10.1 -8,-18.3 -17.8,-18.3c-0.1,0 -0.1,0 -0.2,0l0,-48.9l0,-0.3c0,-0.3 0,-0.5 0,-0.8c0,-11 -7.5,-21.3 -21.1,-29c-13.2,-7.4 -30.7,-11.4 -49.3,-11.4s-36.1,4.1 -49.3,11.4c-13.6,7.6 -21.1,17.9 -21.1,29c0,0.3 0,0.5 0,0.8l0,0.2l0,46.9c-8.7,1.2 -15.5,8.8 -15.5,18.1c0,9.3 6.8,16.9 15.5,18.1l0,12.7l0,13.7l0,2.9c0,26.6 15.5,49.5 38.9,60.6l0,8.4c-5.1,2.1 -8.7,7.1 -8.7,13l0,7.8c-6.1,1.6 -12,3.6 -17.7,5.9c0,0 0,0 0,0c-0.1,0.1 -0.3,0.1 -0.4,0.2c-1.1,0.5 -2.2,0.9 -3.3,1.4c-0.2,0.1 -0.4,0.2 -0.5,0.2c-1.2,0.5 -2.4,1.1 -3.6,1.7c-0.2,0.1 -0.4,0.2 -0.7,0.3c-1,0.5 -1.9,0.9 -2.8,1.4c-0.3,0.2 -0.7,0.3 -1,0.5c-1.1,0.6 -2.1,1.1 -3.2,1.7c-0.4,0.2 -0.8,0.5 -1.2,0.7c-0.6,0.4 -1.3,0.8 -1.9,1.1c-0.5,0.3 -1.1,0.7 -1.6,1c-0.4,0.3 -0.9,0.5 -1.3,0.8c-1.3,0.8 -2.5,1.6 -3.7,2.4c-0.1,0.1 -0.3,0.2 -0.4,0.3c-0.8,0.5 -1.5,1.1 -2.3,1.6c-0.1,0.1 -0.2,0.2 -0.3,0.2c-5.6,4 -10.8,8.4 -15.5,13.2c-0.2,0.2 -0.3,0.3 -0.5,0.5c-0.9,0.9 -1.8,1.9 -2.7,2.8c-0.4,0.4 -0.7,0.8 -1.1,1.2c-0.4,0.4 -0.7,0.8 -1.1,1.2c-0.5,0.6 -1,1.1 -1.4,1.7c-0.3,0.3 -0.5,0.6 -0.8,1c-0.8,0.9 -1.5,1.9 -2.3,2.8c0,0 0,0 0,0c-0.8,1 -1.6,2.1 -2.3,3.1c-0.1,0.1 -0.1,0.2 -0.2,0.2c-8.8,12.1 -15,25.5 -18.4,39.6c0,0 0,0.1 0,0.1c-0.3,1.2 -0.5,2.4 -0.8,3.5c0,0.2 -0.1,0.3 -0.1,0.5c-0.2,1.2 -0.5,2.5 -0.7,3.7c0,0.1 0,0.2 0,0.3c-0.2,1.1 -0.3,2.2 -0.5,3.3c0,0.3 -0.1,0.6 -0.1,0.9c-0.1,1.2 -0.3,2.4 -0.4,3.6c-0.1,0.6 0.2,1.3 0.6,1.8c0.4,0.5 1.1,0.8 1.7,0.8l75.9,0l110,0l73.9,0c0.7,0 1.3,-0.3 1.7,-0.8c0.4,-0.5 0.7,-1.1 0.6,-1.8c-0.1,-1.2 -0.2,-2.4 -0.4,-3.6c0,0.1 0,-0.2 0,-0.4zm-188.4,2.2l-71,0c4.4,-39.2 31.2,-73.7 71,-91.1l0,91.1zm89,-103.8c-0.5,-0.1 -1,-0.2 -1.5,-0.3l0.2,-11.1c0.8,1.4 1.3,3 1.3,4.8l0,6.6zm-32.5,-3.6c-1.9,0 -3.8,0 -5.7,0.1l0.3,-12.6l6.3,0l-0.2,12.4c-0.4,0.1 -0.5,0.1 -0.7,0.1zm-25.2,-12.2c0.6,-0.1 1.3,-0.2 1.9,-0.2l3.4,0l-0.3,13.8c-1.8,0.2 -3.5,0.5 -5.3,0.8l0.3,-14.4zm9.9,-0.2l5.1,0l-0.3,12.8c-1.7,0.1 -3.4,0.3 -5.1,0.4l0.3,-13.2zm15,-4.7c0.6,0 1.2,0 1.8,0l0.2,0l0.2,0c0.6,0 1.2,0 1.8,0l-4,0zm5.7,4.7l4.3,0l-0.3,12.7c-1.4,-0.1 -2.9,-0.2 -4.3,-0.2l0.3,-12.5zm9,0l4.5,0l-0.3,13.6c-1.5,-0.2 -3,-0.3 -4.4,-0.5l0.2,-13.1zm9.1,0c1.1,0 2.2,0.3 3.1,0.7l-0.3,14.1c-1,-0.2 -2.1,-0.4 -3.2,-0.5l0.4,-14.3zm0.5,-8.4l0,3.8c-0.3,0 -0.6,0 -0.9,0l-18.8,0c0.3,0 0.7,-0.1 1,-0.2c2.9,-0.2 5.7,-0.6 8.4,-1.1c3.5,-0.6 6.9,-1.5 10.3,-2.5zm49.6,-123.1c7.2,0 13.1,6.1 13.1,13.6s-5.9,13.6 -13.1,13.6c-0.1,0 -0.1,0 -0.2,0l0,-27.2c0,0 0.1,0 0.2,0zm-70.7,-90.4c36.3,0 65.8,16 65.8,35.8c0,0.2 0,0.3 0,0.5l0,0.5l0,47.2l-14.8,2.1l0,-12.3l-44.7,0l0,13l-13.4,0l0,-13l-44.7,0l0,11.3l-13.9,-2l0,-46.5l0,-0.3c0,-0.2 0,-0.3 0,-0.5c-0.1,-19.7 29.4,-35.8 65.7,-35.8zm45,79.2l0,17.2l-32.9,0l0,-17.2l32.9,0zm-58,0l0,17.2l-32.9,0l0,-17.2l32.9,0zm-68.3,22.5c0,-6.7 4.7,-12.3 10.9,-13.4l0,26.8c-6.2,-1.1 -10.9,-6.7 -10.9,-13.4zm15.5,-13.1l13.9,2l0,11.1l44.7,0l0,-9.5l13.4,0l0,9.5l44.7,0l0,-10.1l14.8,-2.1l0,35.2c-1.8,-1.9 -4.2,-3.5 -7.1,-3.8c-5.1,-0.5 -10.2,3 -15.3,10.5c-0.3,0.4 -0.8,1 -1.3,1.7c-17,22.6 -30.9,35.6 -41.2,38.7c-15.1,-0.4 -35.4,-28.3 -42.1,-37.5c-0.9,-1.2 -1.6,-2.2 -2.1,-2.9c-5.1,-7.5 -10.3,-11 -15.3,-10.5c-2.9,0.3 -5.3,1.9 -7.1,3.8l0,-36.1zm0,60.6l0,-16.2c0.7,-1.6 3.5,-7.1 7.6,-7.6c3.2,-0.3 7,2.6 11,8.5c0,0 0.1,0.1 0.1,0.1c0.5,0.7 1.2,1.6 2.1,2.8c7.9,10.8 28.7,39.4 46.2,39.4c0.2,0 0.4,0 0.6,-0.1c17.1,-4.9 37.3,-31.7 43.9,-40.5c0.5,-0.7 0.9,-1.2 1.3,-1.7c0,0 0.1,-0.1 0.1,-0.1c4,-5.9 7.8,-8.8 11,-8.5c4.1,0.4 6.9,6 7.6,7.6l0,16.2c0,33.1 -28.4,60.9 -64.7,63.2c-0.2,0 -0.5,0.1 -0.7,0.2c-0.4,0 -0.8,0 -1.2,0l-0.3,0c0,0 -0.1,0 -0.1,0c0,0 -0.1,0 -0.1,0l-0.3,0c-0.4,0 -0.8,0 -1.2,0c-0.2,-0.1 -0.5,-0.1 -0.7,-0.2c-35.4,-2.2 -62.2,-29.4 -62.2,-63.1zm38.9,62.7c6.9,2.7 14.4,4.5 22.3,5.1c0.3,0.1 0.6,0.2 1,0.2l-22.5,0c-0.2,0 -0.5,0 -0.7,0l0,-5.3l-0.1,0zm-8.7,19.4c0,-2.6 1.1,-5 2.8,-6.7l-0.3,12.8c-0.8,0.2 -1.7,0.4 -2.5,0.5l0,-6.6zm-19.2,17.4c10.6,-4.2 21.8,-7.1 33.3,-8.6c0.2,0.1 0.4,0.1 0.6,0.1c0,0 0,0 0,0c0.4,0 0.8,-0.1 1.2,-0.3c2.2,-0.3 4.5,-0.5 6.7,-0.6c0.4,0.6 1.1,0.9 1.8,1c0,0 0,0 0,0c0.9,0 1.6,-0.5 2,-1.2c2,-0.1 4.1,-0.1 6.1,-0.1c0.2,0 0.5,0 0.7,0c0.4,0.7 1.1,1.3 2,1.3c0,0 0,0 0,0c0.9,0 1.6,-0.5 2,-1.2c1.7,0.1 3.4,0.1 5.1,0.3c0.4,0.6 1.1,0.9 1.8,1c0,0 0,0 0,0c0.6,0 1.2,-0.3 1.6,-0.7c14,1.3 27.5,4.6 40.1,9.8l0,92.4l-105,0l0,-93.2zm110,93l0,-90.4c38.8,17.6 65,51.8 69.3,90.4l-69.3,0z" fill="#4A2510" id="svg_32"/>
   </g>
   <g id="svg_33"/>
   <g id="svg_57"/>
   <g id="svg_73"/>
   <g id="svg_91"/>
   <g id="svg_106"/>
   <g id="svg_129"/>
   <g id="svg_145"/>
  </g>
 </g>
</svg>