<?xml version="1.0"?>
<svg width="260" height="370" xmlns="http://www.w3.org/2000/svg" xmlns:svg="http://www.w3.org/2000/svg">
 <g class="layer">
  <title>Layer 1</title>
  <g id="svg_2">
   <g id="svg_3"/>
   <g id="svg_33"/>
   <g id="svg_57"/>
   <g id="svg_73"/>
   <g id="svg_91">
    <path d="m158.200002,265.503516l0,-13.5c-7.5,2.4 -15.6,3.7 -23.9,3.7c-9.6,0 -18.7,-1.7 -27.1,-4.8l0,16.1c0,0.9 -0.6,1.8 -1.4,2.2c-2.9,1.2 -5.4,2.5 -7.6,3.9c3.5,4.8 13.5,15.3 36.2,15.8c23.4,0.5 33.4,-11.3 36.4,-16.1c-3,-1.9 -6.7,-3.7 -11,-5c-1,-0.4 -1.6,-1.3 -1.6,-2.3z" fill="#FFE8D4" id="svg_92"/>
    <path d="m204.100002,175.903516l0,-29.6c-2.9,-5.3 -6.8,-16.8 -11.6,-31.1c-3.3,-10 -7.1,-21.1 -11.2,-32.2c-2.2,1.8 -5.2,2.9 -8.6,3.2c-6.6,0.6 -13.6,-2 -17,-6.2l-1.1,-1.3c-3.6,2.6 -11.9,6.7 -21,-0.4c-3.6,3.3 -7.6,5 -11.6,4.9c-4.6,-0.1 -8.3,-2.5 -10.4,-4.3l-1,1.2c-3.4,4.2 -10.4,6.7 -17,6.2c-3.5,-0.3 -6.4,-1.4 -8.6,-3.2c-4,11 -7.6,23.3 -10.8,34.2c-4,13.3 -7.1,23.9 -9.8,29.1l0,40.1c0,35.7 31.3,64.7 69.8,64.7c38.5,0 69.8,-29 69.8,-64.7l0.1,-10.6c0,0 0,0 0,0zm-72.5,45.5c-12.1,0 -22,-10.8 -22,-24.2c0,-1.3 1,-2.3 2.3,-2.3l39.4,0c1.3,0 2.3,1 2.3,2.3c0,13.4 -9.9,24.2 -22,24.2zm-43.9,-91.4c-5.7,6.5 -5.7,3.1 -5.7,3.1s0.1,-2.5 2.2,-5.1c11.6,-14.3 25,-10.6 27.7,-9.2c2.8,1.4 3.9,4.5 0,4.2c-18.1,-1.6 -24.2,7 -24.2,7zm11.3,21.5c0,-2.7 2.2,-4.9 4.9,-4.9c2.7,0 4.9,2.2 4.9,4.9c0,2.7 -2.2,4.9 -4.9,4.9c-2.7,0 -4.9,-2.2 -4.9,-4.9zm59.7,4.9c-2.7,0 -4.9,-2.2 -4.9,-4.9c0,-2.7 2.2,-4.9 4.9,-4.9c2.7,0 4.9,2.2 4.9,4.9c0,2.7 -2.2,4.9 -4.9,4.9zm15.8,-27.3c0,0 -6.7,-8.1 -24.8,-4.9c-3.9,0.7 -3,-2.5 -0.4,-4.1c2.6,-1.6 15.7,-6.4 28.4,6.8c2.3,2.4 2.6,4.9 2.6,4.9s0.4,3.3 -5.8,-2.7z" fill="#FFE8D4" id="svg_93"/>
    <path d="m134.200002,307.703516c-30.4,0 -55.2,-10.7 -59.8,-25.4c-33.9,17.1 -56.8,47.8 -60.8,83l241.1,0c-4,-35.2 -26.9,-66 -60.8,-83c-4.5,14.6 -29.2,25.4 -59.7,25.4z" fill="#F13B1F" id="svg_94"/>
    <path d="m135.600002,293.503516c-0.5,0 -1,0 -1.4,0c-26.6,-0.5 -37.6,-14 -40.8,-19c-5,1.6 -9.9,3.5 -14.7,5.7c3.3,12.7 27.5,22.8 55.5,22.8c28,0 52.2,-10.1 55.5,-22.8c-4.8,-2.2 -9.7,-4.1 -14.7,-5.7c-3,5.1 -13.8,19 -39.4,19z" fill="#BDC9E2" id="svg_95"/>
    <path d="m45.100002,160.803516c0,-9.1 6.9,-16.6 15.5,-17.3c2.4,-5.1 5.6,-15.6 9.1,-27.6c3.6,-12.2 7.7,-26.1 12.3,-38.2c0.3,-0.8 1.1,-1.4 2,-1.5c0.9,-0.1 1.8,0.4 2.2,1.2c1.8,3.2 5.7,4 7.8,4.2c5.1,0.4 10.5,-1.5 13,-4.5l2.7,-3.1c0.4,-0.5 1.1,-0.8 1.8,-0.8c0.7,0 1.3,0.3 1.8,0.8c0,0 3.8,4.4 8.9,4.5c3.2,0.1 6.5,-1.6 9.6,-5c0.4,-0.5 1,-0.7 1.6,-0.7c0.6,0 1.2,0.2 1.7,0.6c9.3,8.7 17.3,1.3 18.2,0.4c0.5,-0.5 1.1,-0.7 1.7,-0.7c0.6,0 1.2,0.3 1.7,0.8l2.6,3c2.5,3.1 8,5 13.1,4.6c2.1,-0.2 6,-1 7.8,-4.2c0.4,-0.8 1.3,-1.2 2.2,-1.2c0.9,0.1 1.7,0.7 2,1.5c4.7,12.4 8.9,25 12.6,36.1c4.4,13.1 8.2,24.5 10.9,29.8c8.7,0.7 15.6,8.2 15.6,17.3c0,8.8 -6.4,16.1 -14.7,17.2l0,8.9c0.1,0 0.2,0.1 0.3,0.2c2.1,1.4 4.5,2.1 7,2.1c6.9,0 12.6,-5.6 12.6,-12.6c0,-0.9 -0.1,-1.9 -0.3,-2.8c-0.1,-0.6 0,-1.3 0.4,-1.8c0.4,-0.5 0.9,-0.9 1.6,-1c6.1,-0.9 10.8,-6.2 10.8,-12.4c0,-3.2 -1.2,-6.2 -3.4,-8.5c-0.5,-0.5 -0.7,-1.2 -0.6,-1.8c0.1,-0.7 0.4,-1.3 1,-1.7c3.4,-2.4 5.5,-6.2 5.5,-10.4c0,-2.5 -0.8,-5 -2.2,-7.1c-0.4,-0.6 -0.5,-1.4 -0.3,-2.1c0.3,-0.7 0.9,-1.2 1.6,-1.4c5.6,-1.4 9.5,-6.4 9.5,-12.2c0,-5 -2.9,-9.5 -7.5,-11.5c-0.7,-0.3 -1.2,-0.9 -1.3,-1.6c-0.2,-0.7 0,-1.5 0.5,-2c2.1,-2.3 3.2,-5.3 3.2,-8.3c0,-5.1 -3,-9.6 -7.7,-11.6c-0.7,-0.3 -1.2,-0.8 -1.3,-1.5c-0.2,-0.7 0,-1.4 0.4,-2c1.7,-2.2 2.6,-4.8 2.6,-7.6c0,-3.7 -1.6,-7.2 -4.4,-9.6c-0.8,-0.7 -1,-1.8 -0.6,-2.8c0.9,-1.7 1.3,-3.6 1.3,-5.5c0,-6.9 -5.6,-12.6 -12.6,-12.6c-0.4,0 -0.9,0 -1.3,0.1c-1.1,0.1 -2.1,-0.6 -2.5,-1.6c-1.6,-5.3 -6.5,-8.9 -12,-8.9c-1.3,0 -2.5,0.2 -3.7,0.6c-0.6,0.2 -1.3,0.1 -1.9,-0.2c-0.6,-0.4 -1,-0.9 -1.1,-1.6c-1,-6.1 -6.2,-10.5 -12.4,-10.5c-2.5,0 -5,0.8 -7.1,2.2c-0.5,0.4 -1.2,0.5 -1.8,0.3c-0.6,-0.1 -1.2,-0.5 -1.5,-1.1c-2.3,-3.9 -6.4,-6.3 -10.9,-6.3c-2.9,0 -5.7,1 -8,2.8c-0.6,0.5 -1.3,0.6 -2,0.5c-0.7,-0.2 -1.3,-0.6 -1.6,-1.3c-2.1,-4.4 -6.5,-7.1 -11.3,-7.1c-0.2,0 -0.4,0 -0.5,0l-0.3,0c-0.1,0 -0.3,0 -0.4,0c-0.6,-0.1 -1,-0.1 -1.5,-0.1c-3.8,0 -7.3,1.6 -9.7,4.5c-0.6,0.7 -1.4,1 -2.3,0.8c-1.8,-0.4 -3.4,-0.4 -5.3,-0.1c-0.8,0.2 -1.7,-0.1 -2.2,-0.8c-2.4,-2.8 -5.9,-4.4 -9.5,-4.4c-0.2,0 -0.5,0 -0.7,0l-0.2,0c-0.1,0 -0.3,0 -0.4,0c-0.5,-0.1 -1,-0.1 -1.5,-0.1c-4.9,0 -9.2,2.7 -11.3,6.9c-0.3,0.6 -0.9,1.1 -1.6,1.2c-0.7,0.2 -1.4,0 -2,-0.5c-2.2,-1.8 -5.1,-2.8 -8,-2.8c-4.5,0 -8.6,2.3 -10.9,6.1c-0.3,0.5 -0.9,0.9 -1.5,1.1c-0.6,0.1 -1.3,0 -1.8,-0.3c-2.1,-1.4 -4.6,-2.1 -7.1,-2.1c-6.2,0 -11.4,4.3 -12.4,10.2c-0.1,0.7 -0.5,1.2 -1.1,1.6c-0.6,0.4 -1.3,0.4 -1.9,0.3c-1.2,-0.4 -2.4,-0.5 -3.7,-0.5c-5.5,0 -10.5,3.6 -12,8.7c-0.3,1.1 -1.4,1.7 -2.5,1.6c-0.5,0 -0.9,-0.1 -1.3,-0.1c-6.9,0 -12.6,5.5 -12.6,12.2c0,1.9 0.4,3.7 1.3,5.4c0.5,1 0.2,2.1 -0.6,2.8c-2.8,2.3 -4.4,5.7 -4.4,9.3c0,2.7 0.9,5.2 2.6,7.4c0.4,0.6 0.6,1.3 0.4,2c-0.2,0.7 -0.7,1.3 -1.4,1.6c-4.7,1.9 -7.7,6.3 -7.7,11.3c0,3 1.1,5.9 3.2,8.1c0.5,0.6 0.7,1.3 0.6,2.1c-0.2,0.7 -0.7,1.3 -1.3,1.6c-4.5,2 -7.5,6.4 -7.5,11.2c0,5.6 3.9,10.5 9.5,11.8c0.7,0.2 1.4,0.7 1.6,1.4c0.3,0.7 0.2,1.5 -0.3,2.1c-1.4,2 -2.2,4.4 -2.2,6.9c0,4 2,7.8 5.4,10.1c0.6,0.4 0.9,1 1,1.7c0.1,0.7 -0.2,1.4 -0.6,1.9c-2.1,2.3 -3.3,5.2 -3.3,8.3c0,6 4.6,11.2 10.8,12.1c0.6,0.1 1.2,0.4 1.6,1c0.4,0.5 0.5,1.2 0.3,1.8c-0.2,0.9 -0.3,1.8 -0.3,2.7c0,6.7 5.6,12.2 12.6,12.2c2.5,0 4.9,-0.7 7,-2.1c0.4,-0.2 0.8,-0.4 1.3,-0.4c0.2,0 0.5,0 0.7,0.1c0.7,0.2 1.2,0.7 1.5,1.3c1.5,3.7 4.8,6.3 8.6,7.3l0,-13.1c-8.5,-1.1 -14.9,-8.4 -14.9,-17.2z" fill="#604A36" id="svg_96"/>
    <path d="m218.700002,160.803516c0,-6.2 -4.3,-11.4 -10,-12.6l0,25.1c5.7,-1.1 10,-6.3 10,-12.5z" fill="#FFE8D4" id="svg_97"/>
    <path d="m59.800002,148.203516c-5.7,1.1 -10,6.3 -10,12.6c0,6.2 4.3,11.4 10,12.6l0,-25.2z" fill="#FFE8D4" id="svg_98"/>
    <path d="m114.300002,199.603516c1,9.7 8.4,17.2 17.3,17.2c8.9,0 16.2,-7.5 17.3,-17.2l-34.6,0z" fill="#FFE8D4" id="svg_99"/>
    <path d="m174.600002,269.503516c-0.1,0 -0.1,0 -0.2,0c-0.1,0 -0.2,0 -0.3,0c-3.1,-2.1 -6.9,-4 -11.3,-5.6l0,-13.5c24.9,-9.7 43,-31.6 45.6,-57.6c0.1,-0.2 0.2,-0.3 0.3,-0.5c2.3,1.1 4.7,1.6 7.3,1.6c9.5,0 17.2,-7.7 17.2,-17.2c0,-0.5 0,-1 -0.1,-1.5c7.2,-2.1 12.5,-8.8 12.5,-16.5c0,-3.5 -1.1,-6.9 -3,-9.7c3.5,-3.2 5.5,-7.8 5.5,-12.6c0,-2.5 -0.5,-4.9 -1.5,-7.1c6.1,-2.7 10.2,-8.8 10.2,-15.7c0,-5.8 -3,-11.2 -7.7,-14.4c1.7,-2.7 2.6,-5.9 2.6,-9.1c0,-6 -3.1,-11.5 -8.1,-14.6c1.3,-2.5 2,-5.3 2,-8.1c0,-4.5 -1.7,-8.7 -4.8,-11.9c0.7,-1.9 1.1,-3.9 1.1,-6c0,-9.5 -7.7,-17.2 -17.2,-17.2c-2.7,-6.3 -8.8,-10.5 -15.9,-10.5c-0.9,0 -1.8,0.1 -2.6,0.2c-2.2,-7.1 -8.8,-12 -16.4,-12c-2.7,0 -5.3,0.6 -7.7,1.8c-3.2,-4.1 -8.3,-6.6 -13.6,-6.6c-3.1,0 -6.1,0.8 -8.7,2.4c-3.2,-4.6 -8.4,-7.4 -14.1,-7.4c-0.3,0 -0.6,0 -0.9,0l-0.1,0c-0.6,-0.1 -1.2,-0.1 -1.8,-0.1c-4.7,0 -9.1,1.9 -12.4,5.1c-1.5,-0.2 -3,-0.3 -4.5,-0.1c-3.2,-3.2 -7.6,-5 -12.1,-5c-0.3,0 -0.7,0 -1,0c-6.5,-0.7 -12.4,2.2 -15.9,7.2c-2.6,-1.5 -5.6,-2.3 -8.7,-2.3c-5.3,0 -10.3,2.4 -13.6,6.5c-2.4,-1.2 -5,-1.8 -7.7,-1.8c-7.6,0 -14.1,4.8 -16.4,11.7c-0.9,-0.1 -1.8,-0.2 -2.7,-0.2c-7,0 -13.2,4.1 -15.8,10.2c0,0 0,0 0,0c-9.5,0 -17.2,7.6 -17.2,16.9c0,2 0.4,3.9 1.1,5.8c-3.1,3.1 -4.8,7.3 -4.8,11.7c0,2.8 0.7,5.5 2,7.9c-5,3 -8.1,8.4 -8.1,14.3c0,3.2 0.9,6.2 2.6,8.9c-4.8,3.1 -7.7,8.4 -7.7,14.1c0,6.8 4.1,12.7 10.2,15.4c-1,2.2 -1.5,4.5 -1.5,6.9c0,4.7 2,9.2 5.5,12.4c-2,2.8 -3,6.1 -3,9.5c0,7.6 5.2,14.2 12.5,16.2c0,0.5 -0.1,1 -0.1,1.4c0,9.3 7.7,16.9 17.2,16.9c2.5,0 5,-0.5 7.3,-1.6c2.7,4.4 7.3,7.4 12.5,8.1c3.5,23.5 19.7,43.3 41.9,53.1l0,16.4c-2.7,1.2 -5.2,2.6 -7.3,4c0,0 0,0 0,0c-0.2,-0.1 -0.4,-0.1 -0.6,-0.1c0,0 -0.1,0 -0.1,0c-0.2,0 -0.4,0 -0.6,0.1c-1.6,0.5 -3.2,1 -4.8,1.5c0,0 0,0 0,0c-1.2,0.4 -2.4,0.8 -3.6,1.3c-43.3,16.2 -73,52.7 -76.7,95c-0.1,0.6 0.2,1.3 0.6,1.8c0.4,0.5 1.1,0.8 1.7,0.8l246.2,0c0.7,0 1.3,-0.3 1.7,-0.8c0.4,-0.5 0.7,-1.1 0.6,-1.8c-3.8,-45.1 -37.2,-83.5 -85,-98zm-123.4,-85.7c-0.3,-0.6 -0.8,-1.1 -1.5,-1.3c-0.2,-0.1 -0.5,-0.1 -0.7,-0.1c-0.4,0 -0.9,0.1 -1.3,0.4c-2.1,1.4 -4.5,2.1 -7,2.1c-6.9,0 -12.6,-5.5 -12.6,-12.2c0,-0.9 0.1,-1.8 0.3,-2.7c0.1,-0.6 0,-1.3 -0.3,-1.8c-0.4,-0.5 -0.9,-0.9 -1.6,-1c-6.1,-0.9 -10.8,-6.1 -10.8,-12.1c0,-3.1 1.2,-6 3.3,-8.3c0.5,-0.5 0.7,-1.2 0.6,-1.9c-0.1,-0.7 -0.4,-1.3 -1,-1.7c-3.4,-2.3 -5.4,-6.1 -5.4,-10.1c0,-2.5 0.8,-4.8 2.2,-6.9c0.4,-0.6 0.5,-1.4 0.3,-2.1c-0.3,-0.7 -0.9,-1.3 -1.6,-1.4c-5.6,-1.4 -9.5,-6.2 -9.5,-11.8c0,-4.8 2.9,-9.2 7.5,-11.2c0.7,-0.3 1.2,-0.9 1.3,-1.6c0.2,-0.7 0,-1.5 -0.6,-2.1c-2,-2.2 -3.2,-5.1 -3.2,-8.1c0,-4.9 3,-9.4 7.7,-11.3c0.7,-0.3 1.2,-0.9 1.4,-1.6c0.2,-0.7 0,-1.5 -0.4,-2c-1.7,-2.1 -2.6,-4.7 -2.6,-7.4c0,-3.6 1.6,-7 4.4,-9.3c0.8,-0.7 1.1,-1.9 0.6,-2.8c-0.9,-1.7 -1.3,-3.5 -1.3,-5.4c0,-6.7 5.6,-12.2 12.6,-12.2c0.4,0 0.9,0 1.3,0.1c1.1,0.1 2.1,-0.6 2.5,-1.6c1.6,-5.1 6.5,-8.7 12,-8.7c1.3,0 2.5,0.2 3.7,0.5c0.6,0.2 1.3,0.1 1.9,-0.3c0.6,-0.4 1,-0.9 1.1,-1.6c1,-5.9 6.2,-10.2 12.4,-10.2c2.6,0 5,0.7 7.1,2.1c0.5,0.4 1.2,0.5 1.8,0.3c0.6,-0.1 1.2,-0.5 1.5,-1.1c2.2,-3.8 6.4,-6.1 10.9,-6.1c2.9,0 5.7,1 8,2.8c0.5,0.4 1.3,0.6 2,0.5c0.7,-0.2 1.3,-0.6 1.6,-1.2c2.1,-4.3 6.5,-6.9 11.3,-6.9c0.5,0 1,0 1.5,0.1c0.1,0 0.3,0 0.4,0l0.2,0c0.2,0 0.5,0 0.7,0c3.6,0 7.1,1.6 9.5,4.4c0.5,0.6 1.4,0.9 2.2,0.8c1.8,-0.4 3.5,-0.3 5.3,0.1c0.8,0.2 1.7,-0.1 2.3,-0.8c2.4,-2.9 6,-4.5 9.7,-4.5c0.5,0 0.9,0 1.5,0.1c0.1,0 0.3,0 0.4,0l0.3,0c0.2,0 0.4,0 0.5,0c4.9,0 9.2,2.7 11.3,7.1c0.3,0.6 0.9,1.1 1.6,1.3c0.7,0.2 1.4,0 2,-0.5c2.3,-1.9 5,-2.8 8,-2.8c4.5,0 8.6,2.4 10.9,6.3c0.3,0.6 0.9,1 1.5,1.1c0.6,0.1 1.3,0 1.8,-0.3c2.1,-1.4 4.5,-2.2 7.1,-2.2c6.2,0 11.4,4.4 12.4,10.5c0.1,0.7 0.5,1.2 1.1,1.6c0.6,0.4 1.3,0.4 1.9,0.2c1.2,-0.4 2.4,-0.6 3.7,-0.6c5.6,0 10.4,3.6 12,8.9c0.3,1.1 1.3,1.8 2.5,1.6c0.5,-0.1 0.9,-0.1 1.3,-0.1c6.9,0 12.6,5.6 12.6,12.6c0,1.9 -0.4,3.8 -1.3,5.5c-0.5,1 -0.2,2.1 0.6,2.8c2.8,2.4 4.4,5.9 4.4,9.6c0,2.8 -0.9,5.4 -2.6,7.6c-0.4,0.6 -0.6,1.3 -0.4,2c0.2,0.7 0.7,1.3 1.3,1.5c4.7,2 7.7,6.5 7.7,11.6c0,3.1 -1.1,6 -3.2,8.3c-0.5,0.6 -0.7,1.3 -0.5,2c0.2,0.7 0.7,1.3 1.3,1.6c4.6,2 7.5,6.5 7.5,11.5c0,5.8 -3.9,10.8 -9.5,12.2c-0.7,0.2 -1.3,0.7 -1.6,1.4c-0.3,0.7 -0.2,1.5 0.3,2.1c1.4,2.1 2.2,4.5 2.2,7.1c0,4.1 -2,8 -5.5,10.4c-0.6,0.4 -0.9,1 -1,1.7c-0.1,0.7 0.1,1.3 0.6,1.8c2.2,2.3 3.4,5.4 3.4,8.5c0,6.2 -4.6,11.6 -10.8,12.4c-0.6,0.1 -1.2,0.4 -1.6,1c-0.4,0.5 -0.5,1.2 -0.4,1.8c0.2,1 0.3,1.9 0.3,2.8c0,6.9 -5.6,12.6 -12.6,12.6c-2.5,0 -4.9,-0.7 -7,-2.1c-0.1,-0.1 -0.2,-0.1 -0.3,-0.2l0,-8.9c8.3,-1.1 14.7,-8.4 14.7,-17.2c0,-9.1 -6.9,-16.6 -15.6,-17.3c-2.7,-5.2 -6.5,-16.7 -10.9,-29.8c-3.7,-11.1 -7.9,-23.6 -12.6,-36.1c-0.3,-0.8 -1.1,-1.4 -2,-1.5c-0.9,-0.1 -1.8,0.4 -2.2,1.2c-1.8,3.2 -5.7,4 -7.8,4.2c-5.1,0.4 -10.5,-1.5 -13.1,-4.6l-2.6,-3c-0.4,-0.5 -1,-0.8 -1.7,-0.8c-0.6,0 -1.3,0.2 -1.7,0.7c-0.9,0.9 -8.9,8.3 -18.2,-0.4c-0.5,-0.4 -1,-0.6 -1.7,-0.6c-0.6,0 -1.2,0.3 -1.6,0.7c-3.1,3.4 -6.4,5 -9.6,5c-5.1,-0.1 -8.9,-4.5 -8.9,-4.5c-0.4,-0.5 -1.1,-0.8 -1.8,-0.8c-0.7,0 -1.3,0.3 -1.8,0.8l-2.7,3.1c-2.5,3 -8,4.9 -13,4.5c-2.1,-0.2 -6,-1 -7.8,-4.2c-0.4,-0.8 -1.3,-1.2 -2.2,-1.2c-0.9,0.1 -1.7,0.7 -2,1.5c-4.6,12.1 -8.7,26 -12.3,38.2c-3.6,12 -6.7,22.5 -9.1,27.6c-8.7,0.7 -15.5,8.2 -15.5,17.3c0,8.8 6.4,16.1 14.7,17.2l0,13.1c-3.7,-0.9 -6.9,-3.6 -8.4,-7.3zm157.5,-10.5l0,-25.1c5.7,1.1 10,6.3 10,12.6s-4.3,11.4 -10,12.5zm-148.9,-25.1l0,25.1c-5.7,-1.1 -10,-6.3 -10,-12.6c-0.1,-6.2 4.3,-11.4 10,-12.5zm4.6,38.1l0,-40.1c2.7,-5.2 5.9,-15.8 9.8,-29.1c3.2,-10.9 6.9,-23.1 10.8,-34.2c2.2,1.8 5.1,2.9 8.6,3.2c6.6,0.6 13.6,-2 17,-6.2l1,-1.2c2.1,1.8 5.8,4.2 10.4,4.3c4,0.1 7.9,-1.5 11.6,-4.9c9,7.1 17.3,3 21,0.4l1.1,1.3c3.4,4.2 10.4,6.8 17,6.2c3.5,-0.3 6.4,-1.4 8.6,-3.2c4.1,11.1 7.8,22.3 11.2,32.2c4.8,14.4 8.6,25.9 11.6,31.1l0,29.6c0,0 0,0 0,0l0,10.5c0,35.7 -31.3,64.7 -69.8,64.7c-38.6,0.1 -69.9,-28.9 -69.9,-64.6zm41.2,82.9c0.9,-0.4 1.4,-1.2 1.4,-2.2l0,-16.1c8.4,3.1 17.6,4.8 27.1,4.8c8.4,0 16.4,-1.3 23.9,-3.7l0,13.5c0,1 0.6,1.9 1.6,2.2c4.3,1.4 8,3.1 11,5c-3.1,4.8 -13,16.6 -36.4,16.1c-22.7,-0.5 -32.8,-10.9 -36.2,-15.8c2.2,-1.3 4.8,-2.6 7.6,-3.8zm-12.2,5.3c3.2,5 14.2,18.5 40.8,19c0.5,0 1,0 1.4,0c25.6,0 36.4,-13.9 39.5,-19c5,1.6 9.9,3.5 14.7,5.7c-3.3,12.7 -27.5,22.8 -55.5,22.8c-28,0 -52.2,-10.1 -55.5,-22.8c4.7,-2.2 9.6,-4.1 14.6,-5.7zm-79.7,90.8c4,-35.2 26.9,-66 60.8,-83c4.6,14.7 29.3,25.4 59.8,25.4c30.4,0 55.1,-10.7 59.8,-25.4c33.9,17.1 56.8,47.8 60.8,83l-241.2,0z" fill="#4A2510" id="svg_100"/>
    <circle cx="103.900002" cy="151.503516" fill="#4A2510" id="svg_101" r="4.9"/>
    <circle cx="158.700002" cy="151.503516" fill="#4A2510" id="svg_102" r="4.9"/>
    <path d="m112.000002,123.003516c3.9,0.3 2.8,-2.8 0,-4.2c-2.8,-1.4 -16.2,-5.1 -27.7,9.2c-2.1,2.5 -2.2,5.1 -2.2,5.1s0,3.4 5.7,-3.1c-0.1,0 6,-8.6 24.2,-7z" fill="#4A2510" id="svg_103"/>
    <path d="m149.700002,124.203516c18.1,-3.2 24.8,4.9 24.8,4.9c6.2,6 5.9,2.6 5.9,2.6s-0.3,-2.5 -2.6,-4.9c-12.7,-13.3 -25.8,-8.5 -28.4,-6.8c-2.7,1.7 -3.6,4.9 0.3,4.2z" fill="#4A2510" id="svg_104"/>
    <path d="m153.600002,197.203516c0,-1.3 -1,-2.3 -2.3,-2.3l-39.4,0c-1.3,0 -2.3,1 -2.3,2.3c0,13.3 9.9,24.2 22,24.2c12.1,0 22,-10.8 22,-24.2zm-22,19.6c-8.9,0 -16.2,-7.5 -17.3,-17.2l34.6,0c-1.1,9.6 -8.4,17.2 -17.3,17.2z" fill="#4A2510" id="svg_105"/>
   </g>
   <g id="svg_106"/>
   <g id="svg_129"/>
   <g id="svg_145"/>
  </g>
 </g>
</svg>