<?xml version="1.0"?>
<svg width="279" height="365" xmlns="http://www.w3.org/2000/svg" xmlns:svg="http://www.w3.org/2000/svg">
 <g class="layer">
  <title>Layer 1</title>
  <g id="svg_2">
   <g id="svg_3"/>
   <g id="svg_33">
    <path d="m110.7,230.6c-6.3,-2.8 -12.1,-6.6 -17.2,-11c-0.1,1.4 -0.4,2.8 -0.9,4.1c2,2 8.6,7.9 18.1,13l0,-6.1z" fill="none" id="svg_34"/>
    <path d="m168,236.9c6.2,-3.3 12.2,-7.8 18.1,-13.3c-0.4,-1.2 -0.7,-2.4 -0.8,-3.7c-5.2,4.4 -11,8.1 -17.3,10.9l0,6.1z" fill="none" id="svg_35"/>
    <path d="m69.1,138.8c-9.3,-0.6 -16.7,-8.5 -16.7,-18.2c0,-9.7 7.4,-17.7 16.7,-18.2l0,-0.9l0,-44.8c0,-0.3 0,-0.5 0,-0.8c0,-11 7.5,-21.3 21.1,-29c13.2,-7.4 30.7,-11.4 49.3,-11.4s36.1,4.1 49.3,11.4c13.6,7.6 21.1,17.9 21.1,29c0,0.3 0,0.5 0,0.8l0,0.3l0,47.8c9.3,0.6 16.8,8.5 16.8,18.2c0,9.7 -7.4,17.7 -16.8,18.2l0,25.2c0,19.1 -7.7,36.4 -20,49.1c-0.1,0.7 -0.2,1.5 -0.2,2.2c0,8 6.5,14.4 14.4,14.4c7.4,0 13.5,-5.5 14.3,-12.8c0.1,-0.8 0.6,-1.5 1.3,-1.8c0.7,-0.3 1.6,-0.3 2.2,0.1c2.3,1.5 5,2.2 7.7,2.2c6,0 11.3,-3.6 13.5,-9.3c0.3,-0.7 0.8,-1.2 1.5,-1.4c0.7,-0.2 1.4,-0.1 2,0.4c2.5,1.8 5.5,2.8 8.5,2.8c8,0 14.4,-6.5 14.4,-14.4c0,-3 -1,-6 -2.8,-8.5c-0.4,-0.5 -0.5,-1.2 -0.4,-1.8c0.1,-0.6 0.5,-1.2 1,-1.5c4,-2.7 6.4,-7.2 6.4,-12c0,-7.7 -6.1,-14.1 -13.8,-14.4c-0.8,0 -1.5,-0.5 -1.9,-1.1c-0.4,-0.7 -0.4,-1.5 -0.1,-2.2c1,-2 1.5,-4.1 1.5,-6.3c0,-8 -6.5,-14.4 -14.4,-14.4c-0.4,0 -0.9,0 -1.4,0.1c-1.2,0.1 -2.4,-0.8 -2.5,-2l-1.8,-14l-2.6,-15.4c-5.3,-38.4 -21.1,-66.5 -47.1,-83.4c-20.7,-13.5 -42,-15.8 -50.2,-16.2c-0.2,0 -0.3,0 -0.5,-0.1c-0.3,0 -0.8,0 -1.3,0c-0.5,0 -0.9,0 -1.1,0c-0.1,0 -0.3,0.1 -0.4,0.1c-7.9,0.4 -28.4,2.8 -48.4,16.3c-25.1,16.9 -40.4,44.9 -45.7,83.2l-2.6,15.6l-1.8,13.9c-0.2,1.2 -1.3,2.1 -2.5,2c-0.5,0 -1,-0.1 -1.4,-0.1c-8,0 -14.4,6.5 -14.4,14.4c0,2.2 0.5,4.3 1.5,6.3c0.3,0.7 0.3,1.5 -0.1,2.2c-0.4,0.7 -1.1,1.1 -1.9,1.1c-7.7,0.3 -13.8,6.7 -13.8,14.4c0,4.8 2.4,9.3 6.4,12c0.5,0.4 0.9,0.9 1,1.5c0.1,0.6 0,1.3 -0.4,1.8c-1.8,2.5 -2.8,5.4 -2.8,8.5c0,8 6.5,14.4 14.4,14.4c3.1,0 6,-1 8.5,-2.8c0.6,-0.4 1.3,-0.6 2,-0.4c0.7,0.2 1.3,0.7 1.5,1.4c2.2,5.6 7.5,9.3 13.5,9.3c2.7,0 5.4,-0.8 7.7,-2.2c0.7,-0.4 1.5,-0.5 2.2,-0.1c0.7,0.3 1.2,1 1.3,1.8c0.8,7.3 7,12.8 14.3,12.8c8,0 14.4,-6.5 14.4,-14.4c0,-0.9 -0.1,-1.8 -0.3,-2.7c-12.1,-12.6 -19.5,-29.8 -19.5,-48.6l0,-27.6l-0.1,0z" fill="#D4D4D4" id="svg_36"/>
    <path d="m139.6,236.8c-8.5,0 -16.6,-1.5 -24.2,-4.3l0,6.3c6.7,3 14.6,5.2 23.2,5.4c8.4,0.2 16.6,-1.5 24.7,-5.1l0,-6.5c-7.4,2.7 -15.4,4.2 -23.7,4.2z" fill="#FFE8D4" id="svg_37"/>
    <path d="m57,120.6c0,7.2 5.3,13 12.1,13.6l0,-27.1c-6.7,0.5 -12.1,6.4 -12.1,13.5z" fill="#FFE8D4" id="svg_38"/>
    <path d="m222.1,122.9c0,-7.2 -5.3,-13 -12.1,-13.6l0,27.1c6.7,-0.4 12.1,-6.3 12.1,-13.5z" fill="#FFE8D4" id="svg_39"/>
    <path d="m119.2,100.3c2.9,1.5 4.1,4.8 0,4.4c-12.3,-1.1 -19.3,2.2 -22.8,4.8l34.7,0c1.3,0 2.3,1 2.3,2.3l0,4.7l10.3,0l0,-4.7c0,-1.3 1,-2.3 2.3,-2.3l39.5,0c-0.1,-0.1 -0.2,-0.2 -0.3,-0.3c0,0 -7.1,-8.6 -26.2,-5.2c-4.1,0.7 -3.2,-2.7 -0.4,-4.4c2.8,-1.7 16.6,-6.8 30,7.2c0.9,0.9 1.5,1.9 1.9,2.7l13.4,-3.8c-6.5,-9.4 -10.3,-35.7 -12,-49.5c-10,16.8 -31.9,29.8 -65.4,38.6c-6.2,1.6 -12.3,3 -18,4.1c5.3,-0.6 9.3,0.7 10.7,1.4z" fill="#FFE8D4" id="svg_40"/>
    <path d="m86.2,109.8c0.4,-0.2 0.8,-0.4 1.2,-0.4l3,0c4.9,-5.9 10.1,-8.7 14.8,-9.9c-14.7,2.7 -26.7,3.8 -31.4,4.1l0,2.6l12.4,3.6z" fill="#FFE8D4" id="svg_41"/>
    <path d="m192.1,116.2l0,21.5c0,13.3 -10.8,24.2 -24.2,24.2s-24.2,-10.8 -24.2,-24.2l0,-14.4l-10.3,0l0,14.4c0,13.3 -10.8,24.2 -24.2,24.2s-24.2,-10.8 -24.2,-24.2l0,-21.1l-11.4,-3.2l0,53c0,36.3 29.5,65.8 65.8,65.8s65.8,-29.5 65.8,-65.8l0,-53.9l-13.1,3.7zm-76.9,62.4c1.2,-0.4 2.5,0.3 2.9,1.5c0.2,0.6 5.1,15 21.8,15c7,0 12.7,-2.5 16.9,-7.5c3.1,-3.7 4.2,-7.4 4.2,-7.4c0.3,-1.2 1.6,-2 2.9,-1.6c1.2,0.3 2,1.6 1.6,2.9c-0.1,0.2 -5.4,18.3 -25.6,18.3c-20.2,0 -26.2,-18 -26.2,-18.2c-0.4,-1.3 0.2,-2.6 1.5,-3z" fill="#FFE8D4" id="svg_42"/>
    <path d="m18.6,359.8l128.1,0l0,-58.6c-0.1,0 -0.1,0 -0.2,0c-0.6,0.1 -1.3,0.1 -1.9,0.2c-0.7,0.1 -1.5,0.1 -2.2,0.2c-0.3,0 -0.6,0 -1,0.1c-1,0 -2,0.1 -2.9,0.1c-0.1,0 -0.2,0 -0.2,0c-0.1,0 -0.1,0 -0.2,0c-19.4,0 -37.1,-8.2 -52.8,-24.5c-0.1,-0.1 -0.2,-0.2 -0.3,-0.3c-1,-1 -1.9,-2 -2.8,-3.1c-0.2,-0.2 -0.3,-0.4 -0.5,-0.5c-0.2,-0.2 -0.3,-0.4 -0.5,-0.5c-8,4.2 -15.5,9.2 -22.4,14.9c-23,18.9 -37.2,44.5 -40.2,72z" fill="#7F8B4B" id="svg_43"/>
    <path d="m233.4,287.7c-8,-6.7 -16.9,-12.3 -26.4,-16.9c-1.3,1.2 -3,2.7 -5.2,4.5l0,84.5l71.7,0c-3,-27.5 -17.2,-53.1 -40.1,-72.1z" fill="#7F8B4B" id="svg_44"/>
    <path d="m139.6,20.1c-36.3,0 -65.8,16 -65.8,35.8c0,0.2 0,0.3 0,0.5l0,0.4l0,42.2c15.8,-1.3 102.5,-10.1 117.5,-52c0.4,-1 1.4,-1.7 2.5,-1.5c1.1,0.1 1.9,1 2,2.1c2,21.6 5.7,40.9 9.5,50.6l0,-41.4c0,0 0,-0.1 0,-0.1l0,-0.4c0,-0.2 0,-0.3 0,-0.5c0.1,-19.6 -29.4,-35.7 -65.7,-35.7z" fill="#ECE9E1" id="svg_45"/>
    <path d="m109.3,157.3c10.8,0 19.5,-8.8 19.5,-19.5l0,-23.6l-39,0l0,23.6c0,10.7 8.7,19.5 19.5,19.5zm1.4,-36.4c2.9,0 5.2,2.3 5.2,5.2c0,2.9 -2.3,5.2 -5.2,5.2c-2.9,0 -5.2,-2.3 -5.2,-5.2c-0.1,-2.8 2.3,-5.2 5.2,-5.2z" fill="#FFE8D4" id="svg_46"/>
    <path d="m148.4,137.7c0,10.8 8.8,19.5 19.5,19.5s19.5,-8.8 19.5,-19.5l0,-23.6l-39,0l0,23.6zm20.1,-16.8c2.9,0 5.2,2.3 5.2,5.2c0,2.9 -2.3,5.2 -5.2,5.2c-2.9,0 -5.2,-2.3 -5.2,-5.2c-0.1,-2.8 2.3,-5.2 5.2,-5.2z" fill="#FFE8D4" id="svg_47"/>
    <polygon fill="#4A2510" id="svg_48" points="146.10002136230486,116.5 143.69999694824236,116.5 133.4999847412111,116.5 131.10002136230486,116.5 131.10002136230486,123.30000305175781 133.4999847412111,123.30000305175781 143.69999694824236,123.30000305175781 146.10002136230486,123.30000305175781 "/>
    <polygon fill="#4A2510" id="svg_49" points="85.09999084472673,116.60000610351562 88.59999084472673,117.60000610351562 90.49998474121111,111 86.19999694824236,109.80000305175781 73.80000305175798,106.30000305175781 72.59999084472673,106 70.80000305175798,112.5 73.80000305175798,113.39999389648438 "/>
    <polygon fill="#4A2510" id="svg_50" points="206.60002136230486,105 203.9999847412111,105.69999694824219 190.60002136230486,109.5 190.4000091552736,109.60000610351562 188.79997253417986,110 190.60002136230486,116.60000610351562 192.10002136230486,116.19999694824219 205.29997253417986,112.39999389648438 208.4999847412111,111.60000610351562 207.69999694824236,108.69999694824219 "/>
    <path d="m187.7,228.4c-10.7,9.7 -21.8,16 -33.3,18.8c-5.2,1.3 -10.5,1.9 -15.9,1.7c-22.6,-0.6 -39.8,-13.6 -46.6,-19.7c-1.3,7 -4.1,21.9 -8.7,38.8c18.7,22.6 40.8,32.1 65.4,28.3c0.1,0 0.2,0 0.4,0c0.6,0 1.1,0.2 1.5,0.5c0.5,0.4 0.8,1.1 0.8,1.8l0,59.7l45.9,0l0,-84.1c0,-0.7 0.3,-1.4 0.9,-1.8c0.5,-0.4 1,-0.8 1.5,-1.2c2.5,-2.1 4.3,-3.8 5.4,-4.8c-2.5,-5.5 -11.1,-25.2 -17.3,-38z" fill="#BDC9E2" id="svg_51"/>
    <path d="m278.6,174.2c0,-9.2 -6.4,-16.8 -15.1,-18.7c0.5,-1.8 0.8,-3.6 0.8,-5.4c0,-10.4 -8.3,-18.9 -18.7,-19.1l-1.6,-12l-2.6,-15.4c-5.4,-39.8 -22,-68.9 -49.2,-86.6c-21.2,-13.8 -43,-16.4 -52,-16.9c-0.2,-0.1 -0.4,-0.1 -0.6,-0.1c0,0 -0.8,0 -2.1,0c-1.1,0 -1.7,0 -1.7,0c-0.2,0 -0.4,0 -0.6,0.1c-8.6,0.5 -29.7,3.2 -50.3,17.1c-26.2,17.7 -42.2,46.8 -47.7,86.4l-2.6,15.6l-1.6,11.9c-10.3,0.2 -18.7,8.7 -18.7,19.1c0,1.9 0.3,3.7 0.8,5.4c-8.7,1.8 -15.1,9.5 -15.1,18.7c0,5.6 2.5,10.9 6.7,14.5c-1.6,2.8 -2.4,6 -2.4,9.3c0,10.5 8.6,19.1 19.1,19.1c3.1,0 6.2,-0.8 8.9,-2.2c3.3,5.9 9.7,9.7 16.6,9.7c2.5,0 4.9,-0.5 7.2,-1.4c2.3,8 9.7,13.7 18.3,13.7c4.5,0 8.7,-1.6 11.9,-4.2c-1.5,8 -4.2,21 -8.1,35.4c0,0.2 -0.1,0.4 -0.1,0.5c0,0.2 0,0.3 0,0.5c0,0 0,0 0,0c-8,4.3 -15.6,9.3 -22.6,15.1c-24.6,20.4 -39.5,48 -42.1,77.8c-0.1,0.6 0.2,1.3 0.6,1.8c0.4,0.5 1.1,0.8 1.7,0.8l260.1,0c0.7,0 1.3,-0.3 1.7,-0.8c0.4,-0.5 0.7,-1.1 0.6,-1.8c-2.6,-29.8 -17.5,-57.4 -42.1,-77.8c-8.1,-6.7 -16.9,-12.4 -26.4,-17c0,-0.1 0,-0.3 0,-0.4c0,0 0,0 0,0c0,-0.2 -0.1,-0.5 -0.2,-0.7c-0.1,-0.2 -7.3,-16.8 -13.9,-31.1c2.5,1.2 5.3,1.9 8.2,1.9c8.6,0 16,-5.7 18.3,-13.7c2.3,0.9 4.7,1.4 7.2,1.4c6.9,0 13.3,-3.8 16.6,-9.7c2.7,1.5 5.8,2.2 8.9,2.2c10.5,0 19.1,-8.6 19.1,-19.1c0,-3.3 -0.8,-6.4 -2.4,-9.3c4.7,-3.8 7.2,-9 7.2,-14.6zm-204.9,-118.3c0,-19.7 29.5,-35.8 65.8,-35.8s65.8,16 65.8,35.8c0,0.2 0,0.3 0,0.5l0,0.4c0,0 0,0.1 0,0.1l0,41.4c-3.8,-9.8 -7.6,-29 -9.5,-50.6c-0.1,-1.1 -0.9,-2 -2,-2.1c-1.1,-0.1 -2.1,0.5 -2.5,1.5c-15,41.9 -101.7,50.7 -117.5,52l0,-42.2l0,-0.4c0,-0.3 -0.1,-0.4 -0.1,-0.6zm-1.1,50.1l1.2,0.3l0,-2.6c4.7,-0.4 16.7,-1.5 31.4,-4.1c-4.6,1.2 -9.8,4.1 -14.8,9.9l-3,0c-0.5,0 -0.9,0.1 -1.2,0.4l4.2,1.2l-1.9,6.6l-3.5,-1l0,21.1c0,13.3 10.8,24.2 24.2,24.2s24.2,-10.8 24.2,-24.2l0,-14.4l-2.3,0l0,-6.9l2.3,0l0,-4.7c0,-1.3 -1,-2.3 -2.3,-2.3l-34.7,0c3.5,-2.5 10.5,-5.9 22.8,-4.8c4.1,0.4 2.9,-2.9 0,-4.4c-1.4,-0.7 -5.5,-2 -10.6,-1.4c5.8,-1.1 11.8,-2.4 18,-4.1c33.5,-8.8 55.4,-21.7 65.4,-38.6c1.6,13.8 5.4,40 12,49.5l2.6,-0.7l1,3.7l0.8,2.9l-3.1,0.9l0,53.9c0,36.3 -29.5,65.8 -65.8,65.8s-65.8,-29.5 -65.8,-65.8l0,-53l-3,-0.9l1.9,-6.5zm56.2,8.1l0,23.6c0,10.8 -8.8,19.5 -19.5,19.5s-19.5,-8.8 -19.5,-19.5l0,-23.6l39,0zm93.3,8.8c0,7.2 -5.3,13 -12.1,13.6l0,-27.1c6.7,0.5 12.1,6.4 12.1,13.5zm-36.1,100.7c-5.9,5.5 -11.9,10 -18.1,13.3l0,-6.1c6.3,-2.8 12.1,-6.5 17.3,-10.9c0.2,1.3 0.4,2.5 0.8,3.7zm-70.6,8.9c7.5,2.8 15.7,4.3 24.2,4.3c8.3,0 16.3,-1.5 23.8,-4.1l0,6.5c-8.1,3.6 -16.3,5.3 -24.7,5.1c-8.6,-0.2 -16.5,-2.5 -23.2,-5.4l0,-6.4l-0.1,0zm-4.7,-1.9l0,6c-9.5,-5 -16,-11 -18.1,-13c0.4,-1.3 0.7,-2.7 0.9,-4.1c5.2,4.5 10.9,8.3 17.2,11.1zm-52,57.1c6.9,-5.7 14.4,-10.7 22.4,-14.9c0.2,0.2 0.3,0.4 0.5,0.5c0.2,0.2 0.3,0.4 0.5,0.5c0.9,1.1 1.9,2.1 2.8,3.1c0.1,0.1 0.2,0.2 0.3,0.3c15.6,16.3 33.3,24.5 52.8,24.5c0.1,0 0.1,0 0.2,0c0.1,0 0.2,0 0.2,0c1,0 2,0 2.9,-0.1c0.3,0 0.7,0 1,-0.1c0.7,0 1.5,-0.1 2.2,-0.2c0.6,-0.1 1.3,-0.1 1.9,-0.2c0.1,0 0.1,0 0.2,0l0,58.6l-128,0c3,-27.4 17.2,-53 40.1,-72zm214.8,72.1l-71.7,0l0,-84.5c2.2,-1.8 3.9,-3.4 5.2,-4.5c9.5,4.6 18.3,10.2 26.4,16.9c22.9,19 37.1,44.6 40.1,72.1zm-68.6,-93.5c-1.1,1 -2.9,2.7 -5.4,4.8c-0.5,0.4 -1,0.8 -1.5,1.2c-0.5,0.4 -0.9,1.1 -0.9,1.8l0,84.1l-45.9,0l0,-59.7c0,-0.7 -0.3,-1.3 -0.8,-1.8c-0.4,-0.4 -1,-0.5 -1.5,-0.5c-0.1,0 -0.2,0 -0.4,0c-24.7,3.8 -46.7,-5.7 -65.4,-28.3c4.5,-16.9 7.4,-31.7 8.7,-38.8c6.9,6.1 24.1,19.1 46.6,19.7c5.4,0.1 10.7,-0.4 15.9,-1.7c11.5,-2.8 22.7,-9.1 33.3,-18.8c6.3,12.9 14.9,32.6 17.3,38zm62.6,-80.1c-0.5,0.4 -0.9,0.9 -1,1.5c-0.1,0.6 0,1.3 0.4,1.8c1.8,2.5 2.8,5.4 2.8,8.5c0,8 -6.5,14.4 -14.4,14.4c-3.1,0 -6,-1 -8.5,-2.8c-0.6,-0.4 -1.3,-0.6 -2,-0.4c-0.7,0.2 -1.3,0.7 -1.5,1.4c-2.2,5.6 -7.4,9.3 -13.5,9.3c-2.7,0 -5.4,-0.8 -7.7,-2.2c-0.7,-0.4 -1.5,-0.5 -2.2,-0.1c-0.7,0.3 -1.2,1 -1.3,1.8c-0.8,7.3 -7,12.8 -14.3,12.8c-8,0 -14.4,-6.5 -14.4,-14.4c0,-0.7 0.1,-1.5 0.2,-2.2c12.4,-12.7 20,-30 20,-49.1l0,-25.2c9.3,-0.6 16.8,-8.5 16.8,-18.2c0,-9.7 -7.4,-17.7 -16.8,-18.2l0,-47.8l0,-0.3c0,-0.3 0,-0.5 0,-0.8c0,-11 -7.5,-21.3 -21.1,-29c-13.3,-7.4 -30.9,-11.5 -49.4,-11.5s-36.1,4.1 -49.3,11.4c-13.6,7.6 -21.1,17.9 -21.1,29c0,0.3 0,0.5 0,0.8l0,44.8l0,0.9c-9.3,0.6 -16.7,8.5 -16.7,18.2c0,9.7 7.4,17.7 16.7,18.2l0,27.5c0,18.8 7.4,36 19.5,48.6c0.2,0.9 0.3,1.8 0.3,2.7c0,8 -6.5,14.4 -14.4,14.4c-7.4,0 -13.5,-5.5 -14.3,-12.8c-0.1,-0.8 -0.6,-1.5 -1.3,-1.8c-0.7,-0.3 -1.6,-0.3 -2.2,0.1c-2.3,1.5 -5,2.2 -7.7,2.2c-6,0 -11.3,-3.6 -13.5,-9.3c-0.3,-0.7 -0.8,-1.2 -1.5,-1.4c-0.7,-0.2 -1.4,-0.1 -2,0.4c-2.5,1.8 -5.5,2.8 -8.5,2.8c-8,0 -14.4,-6.5 -14.4,-14.4c0,-3.1 1,-6 2.8,-8.5c0.4,-0.5 0.5,-1.2 0.4,-1.8c-0.1,-0.6 -0.5,-1.2 -1,-1.5c-4,-2.7 -6.4,-7.2 -6.4,-12c0,-7.7 6.1,-14.1 13.8,-14.4c0.8,0 1.5,-0.5 1.9,-1.1c0.4,-0.7 0.4,-1.5 0.1,-2.2c-1,-2 -1.5,-4.1 -1.5,-6.3c0,-8 6.5,-14.4 14.4,-14.4c0.4,0 0.9,0 1.4,0.1c1.2,0.1 2.4,-0.8 2.5,-2l1.8,-13.9l2.6,-15.6c5.2,-38.3 20.6,-66.3 45.7,-83.2c20,-13.5 40.5,-15.9 48.4,-16.3c0.1,0 0.3,0 0.4,-0.1c0.3,0 0.6,0 1.1,0c0.6,0 1,0 1.3,0c0.2,0 0.3,0.1 0.5,0.1c8.2,0.4 29.5,2.7 50.2,16.2c26,16.9 41.9,45 47.1,83.4l2.6,15.4l1.8,14c0.2,1.2 1.3,2.1 2.5,2c0.5,0 1,-0.1 1.4,-0.1c8,0 14.4,6.5 14.4,14.4c0,2.2 -0.5,4.3 -1.5,6.3c-0.3,0.7 -0.3,1.5 0.1,2.2c0.4,0.7 1.1,1.1 1.9,1.1c7.7,0.3 13.8,6.7 13.8,14.4c0.2,5 -2.2,9.5 -6.2,12.2zm-198.4,-79.1l0,27.1c-6.8,-0.5 -12.1,-6.4 -12.1,-13.6s5.4,-13 12.1,-13.5z" fill="#4A2510" id="svg_52"/>
    <path d="m139.9,199.7c20.3,0 25.6,-18.1 25.6,-18.3c0.3,-1.2 -0.4,-2.5 -1.6,-2.9c-1.2,-0.3 -2.5,0.4 -2.9,1.6c0,0 -1.1,3.7 -4.2,7.4c-4.2,5 -9.9,7.5 -16.9,7.5c-16.7,0 -21.6,-14.4 -21.8,-15c-0.4,-1.2 -1.7,-1.9 -2.9,-1.5c-1.2,0.4 -1.9,1.7 -1.5,2.9c0,0.3 6,18.3 26.2,18.3z" fill="#4A2510" id="svg_53"/>
    <path d="m167.9,161.9c13.3,0 24.2,-10.8 24.2,-24.2l0,-21.5l-1.4,0.4l-1.9,-6.6l1.7,-0.5l0.2,-0.1c-0.4,-0.8 -1,-1.8 -1.9,-2.7c-13.4,-14 -27.2,-8.9 -30,-7.2c-2.8,1.7 -3.7,5.1 0.4,4.4c19.1,-3.3 26.2,5.2 26.2,5.2c0.1,0.1 0.2,0.2 0.3,0.3l-39.5,0c-1.3,0 -2.3,1 -2.3,2.3l0,4.7l2.3,0l0,6.8l-2.3,0l0,14.4c-0.2,13.5 10.7,24.3 24,24.3zm-19.5,-47.8l39,0l0,23.6c0,10.8 -8.8,19.5 -19.5,19.5s-19.5,-8.8 -19.5,-19.5l0,-23.6z" fill="#4A2510" id="svg_54"/>
    <circle cx="110.7" cy="126.1" fill="#4A2510" id="svg_55" r="5.2"/>
    <circle cx="168.5" cy="126.1" fill="#4A2510" id="svg_56" r="5.2"/>
   </g>
   <g id="svg_57"/>
   <g id="svg_73"/>
   <g id="svg_91"/>
   <g id="svg_106"/>
   <g id="svg_129"/>
   <g id="svg_145"/>
  </g>
 </g>
</svg>