<?xml version="1.0"?>
<svg width="265" height="363" xmlns="http://www.w3.org/2000/svg" xmlns:svg="http://www.w3.org/2000/svg">
 <g class="layer">
  <title>Layer 1</title>
  <g id="svg_2">
   <g id="svg_3"/>
   <g id="svg_33"/>
   <g id="svg_57">
    <path d="m219.119385,134.187756c4.7,-47.6 -4,-83 -25.6,-105.1c-26.2,-26.7 -62.6,-24.3 -63,-24.3c-0.1,0 -0.2,0 -0.3,0c-0.4,0 -36.9,-2.4 -63,24.3c-21.6,22.1 -30.2,57.5 -25.6,105.1c0,0.1 0,0.2 0,0.2c0,14.1 2.3,88.1 4.1,144.7c12.7,-9.8 27.5,-17.5 44,-22.5c0.5,-0.2 1.1,-0.1 1.6,0.1c2.7,-2.5 6.2,-4.8 10.5,-6.7l0,-17.6c-24.6,-11 -41.8,-35.7 -41.8,-64.3l0,-32.7c-9.3,-0.6 -16.8,-8.5 -16.8,-18.2c0,-9.3 6.8,-17 15.5,-18.1l1.2,-40.5l0,-0.2c0,-0.3 0,-0.5 0,-0.8c0,-11 7.5,-21.3 21.1,-29c13.2,-7.4 30.7,-11.4 49.3,-11.4l0,0c0,0 0,0 0,0c18.6,0 36.1,4.1 49.3,11.4c13.6,7.6 21.1,17.9 21.1,29c0,0.3 0,0.5 0,0.8l0,0.3l1.2,42.7c8.7,1.1 15.5,8.8 15.5,18.1c0,9.7 -7.4,17.7 -16.7,18.2l0,30.4c0,28.6 -17.2,53.3 -41.8,64.3l0,16.2c6.1,2.2 10.9,5 14.4,8.3c0.5,-0.2 1.1,-0.3 1.6,-0.1c14.9,4.5 28.4,11.2 40.2,19.6c1.8,-56.2 4,-128 4,-141.9c-0.1,-0.2 -0.1,-0.2 0,-0.3z" fill="#604A36" id="svg_58"/>
    <path d="m154.319385,250.187756l0,-15.9c-7.5,2.7 -15.6,4.2 -24,4.2c-8.4,0 -16.5,-1.5 -24,-4.2l0,17.4c0,0.9 -0.6,1.8 -1.4,2.2c-4.7,1.9 -8.4,4.2 -10.9,6.7c3.7,5.1 14.4,16.2 38.3,16.6c0.5,0 1,0 1.4,0c23,0 33.3,-11.3 36.8,-16.5c-3.2,-3.2 -8.3,-6.1 -14.7,-8.2c-0.9,-0.4 -1.5,-1.3 -1.5,-2.3z" fill="#FFE8D4" id="svg_59"/>
    <path d="m47.819385,117.087756c0,7.2 5.3,13 12.1,13.6l0,-27.1c-6.8,0.5 -12.1,6.4 -12.1,13.5z" fill="#FFE8D4" id="svg_60"/>
    <path d="m212.819385,119.387756c0,-7.2 -5.3,-13 -12.1,-13.6l0,27.1c6.8,-0.4 12.1,-6.3 12.1,-13.5z" fill="#FFE8D4" id="svg_61"/>
    <path d="m170.519385,61.187756c-18.4,30.9 -89.3,40.2 -106,42l0,64.9c0,36.3 29.5,65.8 65.8,65.8c36.3,0 65.8,-29.5 65.8,-65.8l0,-63.7c-13.8,-6.7 -23.2,-22.9 -25.6,-43.2zm-88.2,57.5c-6,6.8 -6,3.3 -6,3.3s0.1,-2.7 2.3,-5.4c12.2,-15.1 26.4,-11.2 29.3,-9.8c2.9,1.5 4.1,4.8 0,4.4c-19.2,-1.7 -25.6,7.5 -25.6,7.5zm13.9,13.3c0,-2.9 2.3,-5.2 5.2,-5.2c2.9,0 5.2,2.3 5.2,5.2c0,2.9 -2.3,5.2 -5.2,5.2c-2.9,0 -5.2,-2.4 -5.2,-5.2zm60,58.9c-0.1,0.2 -5.4,18.3 -25.6,18.3c-20.2,0 -26.2,-18 -26.2,-18.2c-0.4,-1.2 0.3,-2.5 1.5,-2.9c1.2,-0.4 2.5,0.3 2.9,1.5c0.2,0.6 5.1,15 21.8,15c16.7,0 21,-14.3 21.1,-14.9c0.4,-1.2 1.6,-1.9 2.9,-1.6c1.2,0.3 1.9,1.6 1.6,2.8zm3,-53.7c-2.9,0 -5.2,-2.3 -5.2,-5.2c0,-2.9 2.3,-5.2 5.2,-5.2c2.9,0 5.2,2.3 5.2,5.2c0,2.8 -2.3,5.2 -5.2,5.2zm14.8,-21.5c0,0 -7.1,-8.6 -26.2,-5.2c-4.1,0.7 -3.2,-2.7 -0.4,-4.4c2.8,-1.7 16.6,-6.8 30,7.2c2.4,2.5 2.8,5.2 2.8,5.2s0.3,3.5 -6.2,-2.8z" fill="#FFE8D4" id="svg_62"/>
    <path d="m197.219385,99.787756l-1.2,-41.2c0,-0.1 0,-0.1 0,-0.2l0,-0.4c0,-0.2 0,-0.3 0,-0.5c0,-19.7 -29.5,-35.8 -65.8,-35.8c-36.3,0 -65.8,16 -65.8,35.8c0,0.2 0,0.3 0,0.5l0,0.4c0,0.1 0,0.1 0,0.2l-1.2,40c16.1,-1.7 101,-12.7 106.6,-49.1c0.2,-1.1 1.2,-2 2.3,-2c0.1,0 0.1,0 0.2,0c1.2,0.1 2.1,1.1 2.1,2.3c-0.1,23.4 8.7,42.5 22.8,50z" fill="#826548" id="svg_63"/>
    <path d="m175.319385,261.687756c-3.3,5.5 -15,20.6 -43.1,20.1c-28.2,-0.6 -39.8,-15 -43,-20.1c-28.8,9.1 -52.2,26.8 -67.2,49.3l0,46.9l219.4,0l0,-48.5c-15,-21.7 -38,-38.8 -66.1,-47.7z" fill="#F13B1F" id="svg_64"/>
    <path d="m4.819385,357.787756l12.6,0l0,-39.2c-6.9,12.4 -11.1,25.5 -12.6,39.2l0,0z" fill="#FFE8D4" id="svg_65"/>
    <path d="m246.019385,316.787756l0,41l13.7,0c-1.6,-14.2 -6.3,-28.2 -13.7,-41z" fill="#FFE8D4" id="svg_66"/>
    <path d="m263.919385,354.387756c-0.1,-0.7 -0.2,-1.4 -0.3,-2.1c-0.1,-0.8 -0.3,-1.5 -0.4,-2.3c-0.1,-0.3 -0.1,-0.7 -0.2,-1c-0.3,-1.4 -0.6,-2.8 -0.9,-4.2c-0.1,-0.6 -0.3,-1.2 -0.4,-1.8c-0.2,-0.9 -0.5,-1.8 -0.7,-2.7c-6.6,-23.7 -21.1,-44.8 -41.4,-60.6c1.8,-56.6 4.1,-130.7 4.1,-145.2c4.8,-49 -4.3,-85.5 -26.9,-108.7c-27,-27.6 -63.3,-25.9 -66.5,-25.7c-3.2,-0.2 -39.5,-1.9 -66.5,25.7c-22.6,23.1 -31.7,59.7 -26.9,108.7c0,14.7 2.4,91.4 4.2,148.3c-13.7,11.6 -24.5,25.7 -31.7,41.3c0,0 0,0 0,0.1c-0.4,0.9 -0.8,1.9 -1.2,2.8c-0.2,0.4 -0.4,0.9 -0.6,1.3c-0.3,0.7 -0.5,1.3 -0.8,2c-0.5,1.2 -0.9,2.4 -1.3,3.6c-0.1,0.2 -0.1,0.4 -0.2,0.6c-0.4,1.1 -0.8,2.3 -1.1,3.5c-0.1,0.2 -0.1,0.4 -0.2,0.6c-0.4,1.3 -0.7,2.5 -1.1,3.8c0,0.1 0,0.1 0,0.2c-0.7,2.7 -1.3,5.5 -1.8,8.3c0,0.3 -0.1,0.5 -0.1,0.8c-0.2,1.1 -0.3,2.2 -0.5,3.3c0,0.3 -0.1,0.7 -0.1,1c-0.2,1.3 -0.3,2.7 -0.4,4.1c-0.1,0.6 0.2,1.3 0.6,1.8c0.4,0.5 1.1,0.8 1.7,0.8l17.5,0l224.1,0l18.6,0c0.7,0 1.3,-0.3 1.7,-0.8c0.4,-0.5 0.7,-1.1 0.6,-1.8c-0.1,-1.3 -0.3,-2.6 -0.4,-3.9c-0.3,-0.7 -0.4,-1.3 -0.5,-1.8zm-222.4,-220c0,-0.1 0,-0.2 0,-0.2c-4.7,-47.6 3.9,-82.9 25.6,-105.1c26.1,-26.7 62.7,-24.4 63,-24.3c0.1,0 0.2,0 0.3,0c0.4,0 36.8,-2.5 63,24.3c21.6,22.1 30.3,57.5 25.6,105.1c0,0.1 0,0.2 0,0.2c0,13.9 -2.2,85.7 -4,141.9c-11.8,-8.4 -25.3,-15.1 -40.2,-19.6c-0.5,-0.2 -1.1,-0.1 -1.6,0.1c-3.5,-3.3 -8.3,-6.1 -14.4,-8.3l0,-16.1c24.6,-11 41.8,-35.7 41.8,-64.3l0,-30.4c9.3,-0.6 16.7,-8.5 16.7,-18.2c0,-9.3 -6.8,-17 -15.5,-18.1l-1.2,-42.7l0,-0.3c0,-0.3 0,-0.5 0,-0.8c0,-11 -7.5,-21.3 -21.1,-29c-13.2,-7.4 -30.7,-11.4 -49.3,-11.4c0,0 0,0 0,0l0,0c-18.6,0 -36.1,4.1 -49.3,11.4c-13.6,7.6 -21.1,17.9 -21.1,29c0,0.3 0,0.5 0,0.8l0,0.2l-1.2,40.5c-8.7,1.1 -15.5,8.8 -15.5,18.1c0,9.7 7.4,17.7 16.8,18.2l0,32.7c0,28.6 17.2,53.3 41.8,64.3l0,17.7c-4.3,1.9 -7.8,4.2 -10.5,6.7c-0.5,-0.2 -1.1,-0.3 -1.6,-0.1c-16.5,5 -31.3,12.7 -44,22.5c-1.8,-56.7 -4.1,-130.7 -4.1,-144.8zm64.8,117.2l0,-17.4c7.5,2.7 15.6,4.2 24,4.2c8.4,0 16.5,-1.5 24,-4.2l0,15.9c0,1 0.6,1.9 1.6,2.2c6.4,2.1 11.5,5 14.7,8.2c-3.6,5.3 -13.8,16.5 -36.8,16.5c-0.5,0 -0.9,0 -1.4,0c-23.9,-0.5 -34.6,-11.5 -38.3,-16.6c2.5,-2.5 6.2,-4.8 10.9,-6.7c0.7,-0.3 1.3,-1.1 1.3,-2.1zm-46.4,-148l0,27.1c-6.8,-0.5 -12.1,-6.4 -12.1,-13.6s5.3,-13 12.1,-13.5zm4.6,-45.2l0,-0.4c0,-0.2 0,-0.3 0,-0.5c0,-19.7 29.5,-35.8 65.8,-35.8c36.3,0 65.8,16 65.8,35.8c0,0.2 0,0.3 0,0.5l0,0.4c0,0.1 0,0.1 0,0.2l1.2,41.2c-14.1,-7.5 -22.9,-26.6 -22.7,-50c0,-1.2 -0.9,-2.2 -2.1,-2.3c-0.1,0 -0.1,0 -0.2,0c-1.1,0 -2.1,0.8 -2.3,2c-5.6,36.4 -90.6,47.4 -106.6,49.1l1.2,-40c-0.1,-0.1 -0.1,-0.1 -0.1,-0.2zm148.3,61c0,7.2 -5.3,13 -12.1,13.6l0,-27.1c6.8,0.5 12.1,6.4 12.1,13.5zm-42.3,-58.2c2.4,20.3 11.8,36.5 25.6,43.3l0,63.6c0,36.3 -29.5,65.8 -65.8,65.8c-36.3,0 -65.8,-29.5 -65.8,-65.8l0,-64.9c16.7,-1.8 87.6,-11.2 106,-42zm-153.2,296.6l-12.6,0l0,0c1.5,-13.7 5.7,-26.9 12.6,-39.2l0,39.2zm4.7,-46.8c14.9,-22.5 38.4,-40.2 67.2,-49.3c3.2,5.1 14.8,19.5 43,20.1c28.2,0.6 39.9,-14.6 43.1,-20.1c28.1,8.9 51.1,26 66.1,47.7l0,48.5l-219.4,0l0,-46.9zm224,46.8l0,-41c7.4,12.8 12.1,26.8 13.7,41l-13.7,0z" fill="#4A2510" id="svg_67"/>
    <circle cx="101.419385" cy="131.987756" fill="#4A2510" id="svg_68" r="5.2"/>
    <circle cx="159.219385" cy="131.987756" fill="#4A2510" id="svg_69" r="5.2"/>
    <path d="m82.319385,118.687756c0,0 6.3,-9.1 25.6,-7.4c4.1,0.4 2.9,-2.9 0,-4.4c-2.9,-1.5 -17.1,-5.4 -29.3,9.8c-2.2,2.7 -2.3,5.4 -2.3,5.4s0,3.4 6,-3.4z" fill="#4A2510" id="svg_70"/>
    <path d="m147.819385,110.487756c19.1,-3.3 26.2,5.2 26.2,5.2c6.5,6.3 6.2,2.8 6.2,2.8s-0.4,-2.7 -2.8,-5.2c-13.4,-14 -27.2,-8.9 -30,-7.2c-2.8,1.7 -3.7,5.1 0.4,4.4z" fill="#4A2510" id="svg_71"/>
    <path d="m105.919385,187.987756c-1.2,0.4 -1.9,1.7 -1.5,2.9c0.1,0.2 6,18.2 26.2,18.2c20.3,0 25.6,-18.1 25.6,-18.3c0.3,-1.2 -0.4,-2.5 -1.6,-2.9c-1.2,-0.3 -2.5,0.4 -2.9,1.6c-0.2,0.6 -4.5,14.9 -21.1,14.9c-16.7,0 -21.6,-14.4 -21.8,-15c-0.4,-1.1 -1.7,-1.7 -2.9,-1.4z" fill="#4A2510" id="svg_72"/>
   </g>
   <g id="svg_73"/>
   <g id="svg_91"/>
   <g id="svg_106"/>
   <g id="svg_129"/>
   <g id="svg_145"/>
  </g>
 </g>
</svg>